<svg width="972" height="124" viewBox="0 0 972 124" fill="none" xmlns="http://www.w3.org/2000/svg">
<rect width="124" height="124" rx="10.3333" fill="#FF0033"/>
<path d="M224.427 91H212.035V54.2279L183.538 91H172.76V33.1172H185.193V69.9297L213.69 33.1172H224.427V91ZM247.133 75.7018V91H235.992V50.474H247.133V65.7721H262.835V50.474H274.016V91H262.835V75.7018H247.133ZM279.769 61.2513V50.474L316.581 50.474V61.2513L303.745 61.2513V91H292.604V61.2513L279.769 61.2513ZM360.761 74.4505H331.416C331.846 76.6571 333.017 78.5273 334.928 80.0612C336.838 81.5681 339.247 82.3216 342.153 82.3216C344.252 82.3216 346.189 81.918 347.965 81.1107C349.768 80.2765 351.033 79.4423 351.76 78.6081L352.93 77.3568L358.702 84.7839L357.976 85.5104C357.626 85.8602 356.899 86.4388 355.796 87.2461C354.693 88.0534 353.522 88.7799 352.284 89.4258C351.046 90.0447 349.432 90.5964 347.441 91.0807C345.476 91.5651 343.444 91.8073 341.346 91.8073C335.398 91.8073 330.326 89.7487 326.128 85.6315C321.93 81.4874 319.831 76.5226 319.831 70.737C319.831 64.9514 321.903 60 326.047 55.8828C330.191 51.7387 335.156 49.6667 340.942 49.6667C346.727 49.6667 351.544 51.6042 355.392 55.4792C359.241 59.3273 361.165 64.1441 361.165 69.9297L360.761 74.4505ZM346.916 61.2917C345.301 59.8924 343.31 59.1927 340.942 59.1927C338.574 59.1927 336.556 59.8789 334.887 61.2513C333.246 62.6237 332.089 64.4132 331.416 66.6198H350.024C349.593 64.467 348.557 62.691 346.916 61.2917ZM391.782 91.8073C389.468 91.8073 387.301 91.3364 385.283 90.3945C383.292 89.4258 381.879 88.4705 381.045 87.5286L379.794 86.0352V108.357H368.653V50.474L379.794 50.474V55.4388C379.901 55.2773 380.063 55.0755 380.278 54.8333C380.52 54.5911 381.005 54.1471 381.731 53.5013C382.485 52.8286 383.292 52.2365 384.153 51.7253C385.014 51.1871 386.131 50.7161 387.503 50.3125C388.876 49.8819 390.302 49.6667 391.782 49.6667C397.029 49.6667 401.577 51.7118 405.425 55.8021C409.3 59.8654 411.238 64.8437 411.238 70.737C411.238 76.6302 409.3 81.622 405.425 85.7122C401.577 89.7756 397.029 91.8073 391.782 91.8073ZM396.747 62.7448C394.836 60.6458 392.495 59.5964 389.723 59.5964C386.979 59.5964 384.637 60.6458 382.7 62.7448C380.762 64.8168 379.794 67.4809 379.794 70.737C379.794 73.9931 380.762 76.6706 382.7 78.7695C384.637 80.8685 386.979 81.918 389.723 81.918C392.495 81.918 394.836 80.8685 396.747 78.7695C398.684 76.6706 399.653 73.9931 399.653 70.737C399.653 67.4809 398.684 64.8168 396.747 62.7448ZM429.826 75.7018V91H418.686V50.474H429.826V65.7721H445.528V50.474H456.709V91L445.528 91V75.7018H429.826ZM505.047 74.4505H475.701C476.132 76.6571 477.303 78.5273 479.213 80.0612C481.124 81.5681 483.532 82.3216 486.438 82.3216C488.537 82.3216 490.475 81.918 492.251 81.1107C494.054 80.2765 495.319 79.4423 496.045 78.6081L497.216 77.3568L502.988 84.7839L502.261 85.5104C501.912 85.8602 501.185 86.4388 500.082 87.2461C498.978 88.0534 497.808 88.7799 496.57 89.4258C495.332 90.0447 493.718 90.5964 491.726 91.0807C489.762 91.5651 487.73 91.8073 485.631 91.8073C479.684 91.8073 474.612 89.7487 470.414 85.6315C466.216 81.4874 464.117 76.5226 464.117 70.737C464.117 64.9514 466.189 60 470.333 55.8828C474.477 51.7387 479.442 49.6667 485.228 49.6667C491.013 49.6667 495.83 51.6042 499.678 55.4792C503.526 59.3273 505.45 64.1441 505.45 69.9297L505.047 74.4505ZM491.201 61.2917C489.587 59.8924 487.596 59.1927 485.228 59.1927C482.859 59.1927 480.841 59.8789 479.173 61.2513C477.531 62.6237 476.374 64.4132 475.701 66.6198H494.31C493.879 64.467 492.843 62.691 491.201 61.2917ZM508.781 61.2513V50.474H545.594V61.2513H532.758V91H521.617V61.2513H508.781ZM579.036 61.6549V71.5846H549.288V61.6549L579.036 61.6549ZM607.958 31.9062C616.839 31.9062 624.293 34.8529 630.32 40.7461C636.348 46.6393 639.362 53.7435 639.362 62.0586C639.362 70.3737 636.321 77.4913 630.24 83.4115C624.185 89.3047 616.758 92.2513 607.958 92.2513C604.918 92.2513 601.998 91.8477 599.199 91.0404C596.428 90.2331 594.127 89.2643 592.297 88.1341C590.494 87.0039 588.906 85.8737 587.534 84.7435C586.162 83.6133 585.166 82.6714 584.547 81.918L583.538 80.6667L591.005 72.7956C591.167 73.0108 591.396 73.3203 591.692 73.724C591.988 74.1007 592.674 74.76 593.75 75.7018C594.827 76.6437 595.957 77.4779 597.141 78.2044C598.325 78.9041 599.899 79.5634 601.863 80.1823C603.828 80.7743 605.86 81.0703 607.958 81.0703C612.695 81.0703 616.623 79.7921 619.745 77.2357C622.893 74.6793 625.019 71.4097 626.123 67.4271H600.491V56.2865H626.123C625.019 52.546 622.84 49.411 619.583 46.8815C616.354 44.3251 612.479 43.0469 607.958 43.0469C605.967 43.0469 604.043 43.3429 602.186 43.9349C600.356 44.5 598.836 45.1862 597.625 45.9935C596.414 46.8008 595.351 47.6081 594.436 48.4154C593.521 49.1957 592.876 49.8819 592.499 50.474L591.813 51.3216L583.982 43.4505C584.197 43.1276 584.507 42.7105 584.91 42.1992C585.341 41.661 586.296 40.7326 587.776 39.4141C589.256 38.0955 590.844 36.9249 592.539 35.9023C594.261 34.8798 596.495 33.9648 599.24 33.1575C602.011 32.3233 604.918 31.9062 607.958 31.9062ZM686.045 50.474L670.746 67.8711L686.892 91H674.46L663.723 75.2982L658.758 81.0703V91H647.617V50.474H658.758V67.0234L673.249 50.474H686.045ZM693.735 85.5104C689.402 81.2856 687.236 76.3611 687.236 70.737C687.236 65.1128 689.402 60.2018 693.735 56.0039C698.067 51.7791 703.207 49.6667 709.154 49.6667C711.253 49.6667 713.244 49.9627 715.128 50.5547C717.039 51.1198 718.599 51.806 719.81 52.6133C721.021 53.3937 722.098 54.1875 723.04 54.9948C723.981 55.8021 724.668 56.5017 725.098 57.0937L725.704 57.9414L718.68 64.9648C718.465 64.5881 718.102 64.0903 717.59 63.4714C717.106 62.8524 716.03 62.0586 714.361 61.0898C712.72 60.0942 710.984 59.5964 709.154 59.5964C706.221 59.5964 703.691 60.6862 701.566 62.8659C699.467 65.0456 698.417 67.6827 698.417 70.7773C698.417 73.8451 699.48 76.4687 701.606 78.6484C703.732 80.8281 706.248 81.918 709.154 81.918C710.984 81.918 712.72 81.474 714.361 80.5859C716.03 79.6979 717.24 78.8099 717.994 77.9219L719.084 76.5495L725.704 83.5729C725.542 83.7882 725.313 84.0977 725.017 84.5013C724.748 84.878 724.102 85.5373 723.08 86.4792C722.057 87.3941 720.954 88.2148 719.77 88.9414C718.586 89.6411 717.039 90.3003 715.128 90.9193C713.244 91.5113 711.253 91.8073 709.154 91.8073C703.207 91.8073 698.067 89.7083 693.735 85.5104ZM743.485 60.4036V91H732.344V50.474L770.368 50.474V91L759.187 91V60.4036L743.485 60.4036ZM818.705 74.4505L789.36 74.4505C789.791 76.6571 790.961 78.5273 792.872 80.0612C794.782 81.5681 797.191 82.3216 800.097 82.3216C802.196 82.3216 804.134 81.918 805.91 81.1107C807.713 80.2765 808.977 79.4423 809.704 78.6081L810.874 77.3568L816.647 84.7839L815.92 85.5104C815.57 85.8602 814.844 86.4388 813.74 87.2461C812.637 88.0534 811.466 88.7799 810.229 89.4258C808.991 90.0447 807.376 90.5964 805.385 91.0807C803.42 91.5651 801.389 91.8073 799.29 91.8073C793.343 91.8073 788.27 89.7487 784.072 85.6315C779.874 81.4874 777.776 76.5226 777.776 70.737C777.776 64.9514 779.848 60 783.992 55.8828C788.136 51.7387 793.101 49.6667 798.886 49.6667C804.672 49.6667 809.489 51.6042 813.337 55.4792C817.185 59.3273 819.109 64.1441 819.109 69.9297L818.705 74.4505ZM804.86 61.2917C803.246 59.8924 801.254 59.1927 798.886 59.1927C796.518 59.1927 794.5 59.8789 792.831 61.2513C791.19 62.6237 790.033 64.4132 789.36 66.6198L807.968 66.6198C807.538 64.467 806.502 62.691 804.86 61.2917ZM849.726 91.8073C847.412 91.8073 845.246 91.3364 843.227 90.3945C841.236 89.4258 839.823 88.4705 838.989 87.5286L837.738 86.0352V108.357L826.597 108.357V50.474H837.738V55.4388C837.846 55.2773 838.007 55.0755 838.222 54.8333C838.464 54.5911 838.949 54.1471 839.675 53.5013C840.429 52.8286 841.236 52.2365 842.097 51.7253C842.958 51.1871 844.075 50.7161 845.448 50.3125C846.82 49.8819 848.246 49.6667 849.726 49.6667C854.974 49.6667 859.521 51.7118 863.369 55.8021C867.244 59.8654 869.182 64.8437 869.182 70.737C869.182 76.6302 867.244 81.622 863.369 85.7122C859.521 89.7756 854.974 91.8073 849.726 91.8073ZM854.691 62.7448C852.78 60.6458 850.439 59.5964 847.668 59.5964C844.923 59.5964 842.582 60.6458 840.644 62.7448C838.707 64.8168 837.738 67.4809 837.738 70.737C837.738 73.9931 838.707 76.6706 840.644 78.7695C842.582 80.8685 844.923 81.918 847.668 81.918C850.439 81.918 852.78 80.8685 854.691 78.7695C856.629 76.6706 857.597 73.9931 857.597 70.737C857.597 67.4809 856.629 64.8168 854.691 62.7448ZM872.472 61.2513V50.474L909.285 50.474V61.2513L896.449 61.2513V91H885.308V61.2513H872.472Z" fill="#1A1A1A"/>
</svg>