<svg xmlns="http://www.w3.org/2000/svg" viewBox="0 0 1184 495" width="1184" height="495" preserveAspectRatio="xMidYMid meet" style="width: 100%; height: 100%; transform: translate3d(0px, 0px, 0px);"><defs><clipPath id="__lottie_element_7"><rect width="1184" height="495" x="0" y="0"></rect></clipPath><linearGradient id="__lottie_element_14" spreadMethod="pad" gradientUnits="userSpaceOnUse" x1="0.06499999761581421" y1="30.40399932861328" x2="0.07199999690055847" y2="-29.590999603271484"><stop offset="0%" stop-color="rgb(255,57,57)" stop-opacity="0"></stop><stop offset="50%" stop-color="rgb(255,57,57)" stop-opacity="0.25"></stop><stop offset="100%" stop-color="rgb(255,57,57)" stop-opacity="0.5"></stop></linearGradient><linearGradient id="__lottie_element_21" spreadMethod="pad" gradientUnits="userSpaceOnUse" x1="0.06499999761581421" y1="30.40399932861328" x2="0.07199999690055847" y2="-29.590999603271484"><stop offset="0%" stop-color="rgb(58,196,255)" stop-opacity="0"></stop><stop offset="50%" stop-color="rgb(58,196,255)" stop-opacity="0.25"></stop><stop offset="100%" stop-color="rgb(58,196,255)" stop-opacity="0.5"></stop></linearGradient><mask id="__lottie_element_37" mask-type="alpha"><g transform="matrix(1,0,0,1,592,341)" opacity="1" style="display: block;"><g opacity="1" transform="matrix(1,0,0,1,4.0289998054504395,-92.36699676513672)"><path fill="rgb(30,0,228)" fill-opacity="1" d=" M581.0294799804688,-238.63299560546875 C581.0294799804688,-238.63299560546875 581.0294799804688,238.63299560546875 581.0294799804688,238.63299560546875 C581.0294799804688,238.63299560546875 -581.0294799804688,238.63299560546875 -581.0294799804688,238.63299560546875 C-581.0294799804688,238.63299560546875 -581.0294799804688,-238.63299560546875 -581.0294799804688,-238.63299560546875 C-581.0294799804688,-238.63299560546875 581.0294799804688,-238.63299560546875 581.0294799804688,-238.63299560546875z"></path></g></g></mask></defs><g clip-path="url(#__lottie_element_7)"><g transform="matrix(1,0,0,1,-368,-171)" opacity="1" style="display: block;"><g opacity="1" transform="matrix(1,0,0,1,0,0)"><g opacity="1" transform="matrix(1,0,0,1,0,0)"><path stroke-linecap="round" stroke-linejoin="miter" fill-opacity="0" stroke-miterlimit="10" stroke="rgb(89,93,216)" stroke-opacity="1" stroke-width="10" d=" M695,652 C695,652 775,652 775,652"></path></g></g><g opacity="1" transform="matrix(1,0,0,1,0,0)"><g opacity="1" transform="matrix(1,0,0,1,0,0)"><path stroke-linecap="round" stroke-linejoin="round" fill-opacity="0" stroke="rgb(89,93,216)" stroke-opacity="1" stroke-width="20" d=" M642,185 C642,185 642,326 642,326"></path></g></g><g opacity="1" transform="matrix(1,0,0,1,0,0)"><g opacity="1" transform="matrix(1,0,0,1,0,0)"><path stroke-linecap="round" stroke-linejoin="round" fill-opacity="0" stroke="rgb(89,93,216)" stroke-opacity="1" stroke-width="20" d=" M538,527 C538,527 538,652 538,652"></path></g></g><g opacity="1" transform="matrix(1,0,0,1,0,0)"><g opacity="1" transform="matrix(1,0,0,1,512,459.5)"><path stroke-linecap="round" stroke-linejoin="round" fill-opacity="0" stroke="rgb(89,93,216)" stroke-opacity="1" stroke-width="20" d=" M-130,-191.5 C-130,-191.5 -130,-130.5 -130,-130.5 C-130,-70.85299682617188 -81.64700317382812,-22.5 -22,-22.5 C-22,-22.5 70,-22.5 70,-22.5 C103.13700103759766,-22.5 130,4.36299991607666 130,37.5 C130,37.5 130,191.5 130,191.5"></path></g></g><g opacity="1" transform="matrix(1,0,0,1,0,0)"><g opacity="1" transform="matrix(1,0,0,1,0,0)"><path stroke-linecap="round" stroke-linejoin="round" fill-opacity="0" stroke="rgb(89,93,216)" stroke-opacity="1" stroke-width="20" d=" M1538,255 C1538,255 1538,652 1538,652"></path></g></g><g opacity="1" transform="matrix(1,0,0,1,0,0)"><g opacity="1" transform="matrix(1,0,0,1,0,0)"><path stroke-linecap="round" stroke-linejoin="round" fill-opacity="0" stroke="rgb(89,93,216)" stroke-opacity="1" stroke-width="20" d=" M1434,255 C1434,255 1434,320 1434,320"></path></g></g><g opacity="1" transform="matrix(1,0,0,1,0,0)"><g opacity="1" transform="matrix(1,0,0,1,0,0)"><path stroke-linecap="round" stroke-linejoin="round" fill-opacity="0" stroke="rgb(89,93,216)" stroke-opacity="1" stroke-width="20" d=" M1434,527 C1434,527 1434,652 1434,652"></path></g></g><g opacity="1" transform="matrix(1,0,0,1,0,0)"><g opacity="1" transform="matrix(1,0,0,1,1350,443)"><path stroke-linecap="round" stroke-linejoin="round" fill-opacity="0" stroke="rgb(89,93,216)" stroke-opacity="1" stroke-width="20" d=" M-84,-84 C-84,-84 -84,-24 -84,-24 C-84,35.64699935913086 -35.650001525878906,84 24,84 C24,84 84,84 84,84"></path></g></g><g opacity="1" transform="matrix(1,0,0,1,0,0)"><g opacity="1" transform="matrix(1,0,0,1,951.0900268554688,251.9770050048828)"><path stroke-linecap="round" stroke-linejoin="round" fill-opacity="0" stroke="rgb(89,93,216)" stroke-opacity="1" stroke-width="20" d=" M-124.08999633789062,68.02300262451172 C-124.08999633789062,38.744998931884766 -114.42900085449219,10.28499984741211 -96.60600280761719,-12.942000389099121 C-78.78299713134766,-36.16999816894531 -53.792999267578125,-52.867000579833984 -25.51300048828125,-60.44499969482422 C2.7669999599456787,-68.02300262451172 32.757999420166016,-66.05699920654297 59.810001373291016,-54.85300064086914 C86.86000061035156,-43.64899826049805 109.44999694824219,-23.832000732421875 124.08999633789062,1.5230000019073486"></path></g></g><g opacity="1" transform="matrix(1,0,0,1,0,0)"><g opacity="1" transform="matrix(1,0,0,1,962.2999877929688,586.0599975585938)"><path stroke-linecap="round" stroke-linejoin="round" fill-opacity="0" stroke="rgb(89,93,216)" stroke-opacity="1" stroke-width="20" d=" M132.6999969482422,-69.05999755859375 C132.6999969482422,-36.30799865722656 120.79000091552734,-4.672999858856201 99.19999694824219,19.95199966430664 C77.5999984741211,44.57600021362305 47.790000915527344,60.5099983215332 15.321000099182129,64.78500366210938 C-17.150999069213867,69.05999755859375 -50.06999969482422,61.38399887084961 -77.302001953125,43.1879997253418 C-104.53399658203125,24.992000579833984 -124.2229995727539,-2.4830000400543213 -132.6999969482422,-34.11899948120117"></path></g></g><g opacity="1" transform="matrix(1,0,0,1,0,0)"><g opacity="1" transform="matrix(1,0,0,1,960,541)"><path stroke-linecap="round" stroke-linejoin="round" fill-opacity="0" stroke="rgb(89,93,216)" stroke-opacity="1" stroke-width="20" d=" M52,-26 C52,-12.208999633789062 46.52000045776367,1.0180000066757202 36.77000045776367,10.770000457763672 C27.01799964904785,20.520999908447266 13.791000366210938,26 0,26 C-13.791000366210938,26 -27.01799964904785,20.520999908447266 -36.77000045776367,10.770000457763672 C-46.520999908447266,1.0180000066757202 -52,-12.208999633789062 -52,-26"></path></g></g><g opacity="1" transform="matrix(1,0,0,1,0,0)"><g opacity="1" transform="matrix(1,0,0,1,0,0)"><path stroke-linecap="round" stroke-linejoin="round" fill-opacity="0" stroke="rgb(89,93,216)" stroke-opacity="1" stroke-width="20" d=" M1095,441 C1095,441 1095,517 1095,517"></path></g></g><g opacity="1" transform="matrix(1,0,0,1,0,0)"><g opacity="1" transform="matrix(1,0,0,1,0,0)"><path stroke-linecap="round" stroke-linejoin="round" fill-opacity="0" stroke="rgb(89,93,216)" stroke-opacity="1" stroke-width="20" d=" M908,439 C908,439 908,515 908,515"></path></g></g><g opacity="1" transform="matrix(1,0,0,1,0,0)"><g opacity="1" transform="matrix(1,0,0,1,0,0)"><path stroke-linecap="round" stroke-linejoin="round" fill-opacity="0" stroke="rgb(89,93,216)" stroke-opacity="1" stroke-width="20" d=" M827,320 C827,320 827,407 827,407"></path></g></g><g opacity="1" transform="matrix(1,0,0,1,0,0)"><g opacity="1" transform="matrix(1,0,0,1,1190,647)"><path stroke-linecap="round" stroke-linejoin="miter" fill-opacity="0" stroke-miterlimit="10" stroke="rgb(89,93,216)" stroke-opacity="1" stroke-width="10" d=" M-92,-5 C-78.91000366210938,-5 -78.91000366210938,5 -65.70999908447266,5 C-52.619998931884766,5 -52.619998931884766,-5 -39.43000030517578,-5 C-26.34000015258789,-5 -26.34000015258789,5 -13.140000343322754,5 C-0.05000000074505806,5 -0.05000000074505806,-5 13.140000343322754,-5 C26.239999771118164,-5 26.239999771118164,5 39.43000030517578,5 C52.52000045776367,5 52.52000045776367,-5 65.70999908447266,-5 C78.80999755859375,-5 78.80999755859375,5 92,5"></path></g></g></g><g transform="matrix(1,0,0,1,-368,-171)" opacity="1" style="display: block;"><g opacity="1" transform="matrix(1,0,0,1,1.5,0)"><path stroke-linecap="round" stroke-linejoin="round" fill-opacity="0" stroke="rgb(0,219,157)" stroke-opacity="1" stroke-width="18" d=" M735.5,574 C735.5,574 711.75,598 711.75,598 C711.75,598 735.5,622.25 735.5,622.25 C735.5,622.25 759.5,598 759.5,598 C759.5,598 735.5,574 735.5,574z M709.5,567 C709.5,567 762.5,567 762.5,567"></path></g></g><g transform="matrix(1,0,0,1,-368,-175)" opacity="1" style="display: block;"><g opacity="1" transform="matrix(1,0,0,1,0,-0.04998779296875)"><path stroke-linecap="round" stroke-linejoin="miter" fill-opacity="0" stroke-miterlimit="10" stroke="rgb(0,219,157)" stroke-opacity="1" stroke-width="18" d=" M1458,634 C1458,634 1514,634 1514,634"></path></g><g opacity="1" transform="matrix(1,0,0,1,0,0)"><path stroke-linecap="round" stroke-linejoin="miter" fill-opacity="0" stroke-miterlimit="10" stroke="rgb(0,219,157)" stroke-opacity="1" stroke-width="18" d=" M1458,602.9500122070312 C1458,602.9500122070312 1514,602.9500122070312 1514,602.9500122070312"></path></g><g opacity="1" transform="matrix(1,0,0,1,0,-0.04998779296875)"><path stroke-linecap="round" stroke-linejoin="miter" fill-opacity="0" stroke-miterlimit="10" stroke="rgb(0,219,157)" stroke-opacity="1" stroke-width="18" d=" M1458,572 C1458,572 1514,572 1514,572"></path></g></g><g transform="matrix(0.12768135964870453,0.9918152689933777,-0.9918152689933777,0.12768135964870453,1252.254638671875,-1131.208984375)" opacity="1" style="display: block;"><g opacity="1" transform="matrix(1,0,0,1,0,0)"><g opacity="1" transform="matrix(1,0,0,1,1356,441)"><path stroke-linecap="butt" stroke-linejoin="miter" fill-opacity="0" stroke-miterlimit="10" stroke="rgb(255,49,172)" stroke-opacity="1" stroke-width="18" d=" M0,13 C7.179999828338623,13 13,7.179999828338623 13,0 C13,-7.179999828338623 7.179999828338623,-13 0,-13 C-7.179999828338623,-13 -13,-7.179999828338623 -13,0 C-13,7.179999828338623 -7.179999828338623,13 0,13z"></path></g></g><g opacity="1" transform="matrix(1,0,0,1,0,0)"><g opacity="1" transform="matrix(1,0,0,1,0,0)"><path stroke-linecap="butt" stroke-linejoin="miter" fill-opacity="0" stroke-miterlimit="10" stroke="rgb(255,49,172)" stroke-opacity="1" stroke-width="18" d=" M1356,400 C1356,400 1356,428 1356,428"></path></g></g><g opacity="1" transform="matrix(1,0,0,1,0,0)"><g opacity="1" transform="matrix(1,0,0,1,1356,378)"><path stroke-linecap="round" stroke-linejoin="round" fill-opacity="0" stroke="rgb(255,49,172)" stroke-opacity="1" stroke-width="18" d=" M44,-22 C44,-10.329999923706055 39.36000061035156,0.8610000014305115 31.110000610351562,9.11299991607666 C22.860000610351562,17.36400032043457 11.670000076293945,22 0,22 C-11.670000076293945,22 -22.860000610351562,17.36400032043457 -31.110000610351562,9.11299991607666 C-39.36000061035156,0.8610000014305115 -44,-10.329999923706055 -44,-22"></path></g></g></g><g mask="url(#__lottie_element_37)" style="display: block;"><g transform="matrix(1,0,0,1,382.673095703125,-186.23931884765625)" opacity="1"><g opacity="1" transform="matrix(1,0,0,1,735,524)"><path stroke-linecap="round" stroke-linejoin="miter" fill-opacity="0" stroke-miterlimit="10" stroke="rgb(255,223,41)" stroke-opacity="1" stroke-width="10" d=" M0,24 C13.255000114440918,24 24,13.255000114440918 24,0 C24,-13.255000114440918 13.255000114440918,-24 0,-24 C-13.255000114440918,-24 -24,-13.255000114440918 -24,0 C-24,13.255000114440918 -13.255000114440918,24 0,24z"></path></g></g></g><g transform="matrix(1,0,0,1,-368,-171)" opacity="1" style="display: block;"><g opacity="1" transform="matrix(1,0,0,1,0,0)"><g opacity="1" transform="matrix(1,0,0,1,0,0)"><path stroke-linecap="round" stroke-linejoin="miter" fill-opacity="0" stroke-miterlimit="10" stroke="rgb(254,182,22)" stroke-opacity="1" stroke-width="18" d=" M960,337 C960,337 960,407 960,407"></path></g></g><g opacity="1" transform="matrix(1,0,0,1,0,0)"><g opacity="1" transform="matrix(1,0,0,1,996,284)"><path stroke-linecap="round" stroke-linejoin="miter" fill-opacity="0" stroke-miterlimit="10" stroke="rgb(254,182,22)" stroke-opacity="1" stroke-width="18" d=" M26,-26 C26,-26 -26,26 -26,26"></path></g></g><g opacity="1" transform="matrix(1,0,0,1,0,0)"><g opacity="1" transform="matrix(1,0,0,1,960,320)"><path stroke-linecap="butt" stroke-linejoin="miter" fill-opacity="0" stroke-miterlimit="10" stroke="rgb(254,182,22)" stroke-opacity="1" stroke-width="18" d=" M0,13 C7.179999828338623,13 13,7.179999828338623 13,0 C13,-7.179999828338623 7.179999828338623,-13 0,-13 C-7.179999828338623,-13 -13,-7.179999828338623 -13,0 C-13,7.179999828338623 -7.179999828338623,13 0,13z"></path></g></g></g><g transform="matrix(-0.05920593440532684,0.9982457756996155,-0.9982457756996155,-0.05920593440532684,785.567138671875,-566.17626953125)" opacity="1" style="display: block;"><g opacity="1" transform="matrix(1,0,0,1,0,0)"><g opacity="1" transform="matrix(1,0,0,1,0,0)"><path stroke-linecap="round" stroke-linejoin="miter" fill-opacity="0" stroke-miterlimit="10" stroke="rgb(0,219,157)" stroke-opacity="1" stroke-width="18" d=" M763,360 C763,360 763,433 763,433"></path></g></g><g opacity="1" transform="matrix(1,0,0,1,0,0)"><g opacity="1" transform="matrix(1,0,0,1,763,346)"><path stroke-linecap="butt" stroke-linejoin="miter" fill-opacity="0" stroke-miterlimit="10" stroke="rgb(0,219,157)" stroke-opacity="1" stroke-width="18" d=" M0,13 C7.179999828338623,13 13,7.179999828338623 13,0 C13,-7.179999828338623 7.179999828338623,-13 0,-13 C-7.179999828338623,-13 -13,-7.179999828338623 -13,0 C-13,7.179999828338623 -7.179999828338623,13 0,13z"></path></g></g></g><g transform="matrix(1,0,0,1,-368,-171)" opacity="1" style="display: block;"><g opacity="1" transform="matrix(1,0,0,1,1177,588)"><path stroke-linecap="round" stroke-linejoin="round" fill-opacity="0" stroke="rgb(0,219,157)" stroke-opacity="1" stroke-width="18" d=" M44,-22 C44,-10.329999923706055 39.36000061035156,0.8610000014305115 31.110000610351562,9.11299991607666 C22.860000610351562,17.36400032043457 11.670000076293945,22 0,22 C-11.670000076293945,22 -22.860000610351562,17.36400032043457 -31.110000610351562,9.11299991607666 C-39.36000061035156,0.8610000014305115 -44,-10.329999923706055 -44,-22"></path></g></g><g transform="matrix(1,0,0,1,-368,-171)" opacity="1" style="display: block;"><g opacity="1" transform="matrix(1,0,0,1,1177,222)"><path stroke-linecap="round" stroke-linejoin="miter" fill-opacity="0" stroke-miterlimit="10" stroke="rgb(0,219,157)" stroke-opacity="1" stroke-width="10" d=" M-44,35 C-44,35 -44,29 -44,29 C-44,-6.3460001945495605 -15.350000381469727,-35 20,-35 C20,-35 44,-35 44,-35"></path></g></g><g transform="matrix(-1,0,0,-1,616,483)" opacity="1" style="display: block;"><g opacity="1" transform="matrix(1,0,0,1,0,0)"><g opacity="1" transform="matrix(1,0,0,1,492,327)"><path stroke-linecap="round" stroke-linejoin="miter" fill-opacity="0" stroke-miterlimit="10" stroke="rgb(255,49,172)" stroke-opacity="1" stroke-width="18" d=" M-46,46 C-46,46 46,-46 46,-46"></path></g></g><g opacity="1" transform="matrix(1,0,0,1,0,0)"><g opacity="1" transform="matrix(1,0,0,1,492,327)"><path stroke-linecap="round" stroke-linejoin="miter" fill-opacity="0" stroke-miterlimit="10" stroke="rgb(255,49,172)" stroke-opacity="1" stroke-width="18" d=" M46,46 C46,46 -46,-46 -46,-46"></path></g></g></g><g transform="matrix(1,0,0,1.6200000047683716,599,737.905029296875)" opacity="0.03544823684634281" style="display: none;"><g opacity="1" transform="matrix(1,0,0,1,-475.3380126953125,-406.6210021972656)"><path fill="url(#__lottie_element_21)" fill-opacity="1" d=" M35,-40 C35,-40 35,40 35,40 C35,40 -35,40 -35,40 C-35,40 -35,-40 -35,-40 C-35,-40 35,-40 35,-40z"></path></g></g><g transform="matrix(1,0,0,1,-368,-171)" opacity="1" style="display: block;"><g opacity="1" transform="matrix(1,0,0,1,0,0)"><path stroke-linecap="round" stroke-linejoin="round" fill-opacity="0" stroke="rgb(58,196,255)" stroke-opacity="1" stroke-width="20" d=" M452,185 C452,185 532,185 532,185"></path></g></g><g style="display: none;" transform="matrix(1,0,0,1.6200000047683716,1593.3380126953125,737.5260009765625)" opacity="0.020483895341232454"><g opacity="1" transform="matrix(1,0,0,1,-475.3380126953125,-406.6210021972656)"><path fill="url(#__lottie_element_14)" fill-opacity="1" d=" M35,-40 C35,-40 35,40 35,40 C35,40 -35,40 -35,40 C-35,40 -35,-40 -35,-40 C-35,-40 35,-40 35,-40z"></path></g></g><g transform="matrix(1,0,0,1,-368,-171)" opacity="1" style="display: block;"><g opacity="1" transform="matrix(1,0,0,1,0,0)"><path stroke-linecap="round" stroke-linejoin="round" fill-opacity="0" stroke="rgb(255,57,57)" stroke-opacity="1" stroke-width="20" d=" M1446,185 C1446,185 1526,185 1526,185"></path></g></g></g></svg>