<svg xmlns="http://www.w3.org/2000/svg" width="205" height="108" viewBox="0 0 205 108" fill="none"><script xmlns="" src="chrome-extension://fjnbnpbmkenffdnngjfgmeleoegfcffe/static/js/contentInt.js"/>
<g clip-path="url(#clip0_2511_7537)">
<path d="M11 42.645C11 38.043 14.5192 34.3433 18.9408 34.3433H46.3728C50.7944 34.3433 54.3136 38.043 54.3136 42.645V69.3551C54.3136 73.9572 50.7944 77.6569 46.3728 77.6569H18.9408C14.5192 77.6569 11 73.9572 11 69.3551V42.645Z" fill="url(#paint0_linear_2511_7537)"/>
<path fill-rule="evenodd" clip-rule="evenodd" d="M50.4333 39.6672C50.8845 39.9379 51.1552 40.2989 51.3357 40.8403C51.4259 41.2915 51.4259 41.8329 51.1552 42.2841L37.8904 65.4749L33.3786 59.6095L28.0546 68.6332L23.4526 62.6775L18.0384 70.5281C17.8579 70.7086 17.6774 70.8891 17.4969 71.0696C17.3165 71.25 17.0458 71.3403 16.7751 71.3403C16.5043 71.3403 16.3239 71.3403 16.0532 71.3403C15.7825 71.25 15.602 71.1598 15.4215 71.0696C15.241 70.8891 15.0606 70.7086 14.8801 70.5281C14.7898 70.3477 14.6996 70.077 14.6094 69.8062C14.6094 69.5355 14.6094 69.2648 14.6094 69.0844C14.6996 68.8136 14.7898 68.6332 14.8801 68.3625L23.1819 56.2707L27.5132 61.9557L32.8372 53.0222L37.2588 58.7974L47.9067 40.3891C47.997 40.2086 48.1774 39.9379 48.3579 39.8477C48.5384 39.6672 48.8091 39.577 48.9896 39.4867C49.2603 39.3965 49.4407 39.3965 49.7114 39.3965C49.9822 39.4867 50.2529 39.577 50.4333 39.6672Z" fill="white"/>
<path d="M67.8508 52.5918L72.8758 40.4606H74.7792L79.8043 52.5918H77.8163L76.5135 49.3856H71.1416L69.8388 52.5918H67.8508ZM73.8318 42.6263L71.8353 47.6513H75.8198L73.8318 42.6263ZM83.019 49.1233V52.5918H81.2847V44.2759H83.019V47.5667H87.0881V44.2759H88.8223V52.5918H87.0881V49.1233H83.019ZM97.9249 52.5918H96.1907V51.7289C96.1682 51.7515 96.1287 51.7881 96.0723 51.8389C96.0215 51.8896 95.9144 51.9742 95.7508 52.0927C95.5929 52.2055 95.4209 52.3098 95.2348 52.4057C95.0487 52.4959 94.8146 52.5777 94.5326 52.651C94.2506 52.7243 93.9658 52.761 93.6782 52.761C92.8322 52.761 92.1301 52.5157 91.5717 52.025C91.0134 51.5343 90.7342 50.9732 90.7342 50.3415C90.7342 49.6591 90.9485 49.0867 91.3771 48.6242C91.8114 48.1617 92.4036 47.8685 93.1537 47.7444L96.1907 47.2199C96.1907 46.78 96.0272 46.4106 95.7 46.1117C95.3786 45.8128 94.9641 45.6633 94.4565 45.6633C94.0166 45.6633 93.6161 45.7564 93.2552 45.9425C92.8999 46.123 92.6546 46.3062 92.5192 46.4924L92.2908 46.7885L91.1657 45.6633C91.1995 45.6182 91.2446 45.5618 91.301 45.4941C91.363 45.4208 91.4956 45.2967 91.6986 45.1219C91.9073 44.9414 92.1272 44.7807 92.3585 44.6397C92.5897 44.4987 92.8943 44.3746 93.2721 44.2675C93.6556 44.1547 94.0504 44.0983 94.4565 44.0983C95.4716 44.0983 96.3035 44.4 96.9521 45.0035C97.6007 45.6013 97.9249 46.3401 97.9249 47.2199V52.5918ZM93.9404 51.2044C94.6454 51.2044 95.1953 50.9957 95.5901 50.5784C95.9905 50.1554 96.1907 49.5548 96.1907 48.7765V48.6073L93.5005 49.0387C93.1903 49.0951 92.9394 49.222 92.7476 49.4194C92.5559 49.6168 92.46 49.865 92.46 50.1639C92.46 50.4402 92.5925 50.6827 92.8576 50.8914C93.1283 51.1001 93.4893 51.2044 93.9404 51.2044ZM101.309 44.2759H107.721V52.5918H105.987V45.8325H103.043V46.7039C103.043 48.2886 102.916 49.5407 102.662 50.46C102.414 51.3736 102.093 51.9855 101.698 52.2957C101.309 52.6059 100.804 52.761 100.184 52.761C100.031 52.761 99.8679 52.7469 99.693 52.7187C99.5238 52.6905 99.3913 52.6595 99.2954 52.6256L99.1431 52.5918V50.9422C99.3744 50.9986 99.5746 51.0296 99.7438 51.0352C100.099 51.0352 100.378 50.9393 100.581 50.7476C100.79 50.5558 100.962 50.1328 101.097 49.4786C101.238 48.8188 101.309 47.8938 101.309 46.7039V44.2759ZM116.215 44.2759H117.771V52.5918H116.037V47.1353L111.706 52.5918H110.149V44.2759H111.883V49.7324L116.215 44.2759ZM119.336 45.8325V44.2759H126.781V45.8325H123.922V52.5918H122.196V45.8325H119.336ZM134.403 44.2759H135.96V52.5918H134.225V47.1353L129.894 52.5918H128.338V44.2759H130.072V49.7324L134.403 44.2759ZM143.59 52.5918V49.4702C143.015 49.8762 142.321 50.0793 141.509 50.0793C140.505 50.0793 139.705 49.7775 139.107 49.1741C138.515 48.565 138.218 47.7416 138.218 46.7039V44.2759H139.944V46.7039C139.944 47.2227 140.111 47.657 140.443 48.0066C140.782 48.3507 141.193 48.5227 141.678 48.5227C142.034 48.5227 142.369 48.4663 142.685 48.3535C143.007 48.2351 143.238 48.1166 143.379 47.9982L143.59 47.829V44.2759H145.316V52.5918H143.59ZM155.451 49.0387H148.954C149.044 49.6253 149.332 50.1328 149.817 50.5615C150.307 50.9901 150.888 51.2044 151.559 51.2044C152.044 51.2044 152.496 51.0944 152.913 50.8745C153.336 50.6545 153.635 50.4402 153.81 50.2315L154.072 49.9101L155.197 51.0352C155.163 51.0803 155.11 51.1452 155.036 51.2298C154.969 51.3087 154.819 51.4469 154.588 51.6443C154.357 51.8361 154.111 52.0081 153.852 52.1604C153.593 52.307 153.254 52.4452 152.837 52.5749C152.425 52.699 151.999 52.761 151.559 52.761C150.381 52.761 149.363 52.3295 148.505 51.4667C147.654 50.5981 147.228 49.5576 147.228 48.345C147.228 47.1776 147.643 46.1794 148.472 45.3503C149.306 44.5156 150.305 44.0983 151.466 44.0983C152.634 44.0983 153.604 44.4874 154.376 45.2657C155.155 46.0384 155.544 47.0084 155.544 48.1758L155.451 49.0387ZM151.466 45.5787C150.84 45.5787 150.313 45.7648 149.884 46.1371C149.461 46.5036 149.177 46.9802 149.03 47.5667H153.843C153.742 46.9802 153.48 46.5036 153.057 46.1371C152.634 45.7648 152.104 45.5787 151.466 45.5787ZM158.209 51.4751C157.351 50.6122 156.923 49.5999 156.923 48.4381C156.923 47.2707 157.351 46.2555 158.209 45.3926C159.072 44.5297 160.087 44.0983 161.254 44.0983C161.903 44.0983 162.506 44.2393 163.065 44.5213C163.623 44.7976 164.023 45.074 164.266 45.3503L164.63 45.7479L163.504 46.873C163.448 46.7828 163.361 46.6728 163.242 46.5431C163.129 46.4078 162.878 46.2273 162.489 46.0017C162.106 45.7761 161.694 45.6633 161.254 45.6633C160.549 45.6633 159.937 45.9312 159.418 46.467C158.905 47.0028 158.649 47.6598 158.649 48.4381C158.649 49.2107 158.905 49.865 159.418 50.4007C159.937 50.9365 160.549 51.2044 161.254 51.2044C161.694 51.2044 162.106 51.0944 162.489 50.8745C162.878 50.6545 163.158 50.4402 163.327 50.2315L163.589 49.9101L164.714 51.0352C164.68 51.0803 164.63 51.1452 164.562 51.2298C164.494 51.3087 164.348 51.4469 164.122 51.6443C163.896 51.8361 163.66 52.0081 163.411 52.1604C163.163 52.307 162.842 52.4452 162.447 52.5749C162.052 52.699 161.655 52.761 161.254 52.761C160.087 52.761 159.072 52.3324 158.209 51.4751ZM173.808 44.2759L170.602 47.7444L174.062 52.5918H172.159L169.477 48.8695L168.174 50.2569V52.5918H166.44V44.2759H168.174V47.9982L171.727 44.2759H173.808ZM181.507 44.2759H183.063V52.5918H181.329V47.1353L176.998 52.5918H175.441V44.2759H177.175V49.7324L181.507 44.2759ZM191.557 44.2759H193.113V52.5918H191.379V47.1353L187.048 52.5918H185.491V44.2759H187.225V49.7324L191.557 44.2759ZM188.435 41.332C188.666 41.5632 188.954 41.6788 189.298 41.6788C189.648 41.6788 189.938 41.5632 190.169 41.332C190.401 41.1007 190.516 40.8103 190.516 40.4606H191.819C191.819 41.1543 191.582 41.7324 191.108 42.1948C190.635 42.6573 190.034 42.8885 189.307 42.8885C188.579 42.8885 187.978 42.6573 187.505 42.1948C187.031 41.7324 186.794 41.1543 186.794 40.4606H188.088C188.088 40.8046 188.204 41.0951 188.435 41.332Z" fill="#172B4D"/>
<path d="M68.629 69.3027V60.9869H70.3633V67.7462H74.2632V60.9869H75.9974V67.7462H77.2072V71.3838H75.4729V69.3027H68.629ZM86.6397 65.7497H80.1427C80.2329 66.3362 80.5205 66.8438 81.0056 67.2724C81.4962 67.701 82.0771 67.9153 82.7483 67.9153C83.2333 67.9153 83.6845 67.8054 84.1018 67.5854C84.5248 67.3655 84.8237 67.1512 84.9985 66.9425L85.2608 66.621L86.3859 67.7462C86.3521 67.7913 86.2985 67.8561 86.2252 67.9407C86.1575 68.0197 86.0081 68.1579 85.7768 68.3552C85.5456 68.547 85.3003 68.719 85.0408 68.8713C84.7814 69.0179 84.443 69.1561 84.0257 69.2858C83.614 69.4099 83.1882 69.4719 82.7483 69.4719C81.5695 69.4719 80.5516 69.0405 79.6943 68.1776C78.8427 67.3091 78.4169 66.2685 78.4169 65.056C78.4169 63.8885 78.8314 62.8903 79.6605 62.0612C80.4952 61.2266 81.4934 60.8092 82.6552 60.8092C83.8226 60.8092 84.7927 61.1984 85.5653 61.9766C86.3436 62.7493 86.7328 63.7193 86.7328 64.8868L86.6397 65.7497ZM82.6552 62.2897C82.0292 62.2897 81.5019 62.4758 81.0732 62.848C80.6503 63.2146 80.3655 63.6911 80.2188 64.2777H85.0324C84.9309 63.6911 84.6686 63.2146 84.2456 62.848C83.8226 62.4758 83.2925 62.2897 82.6552 62.2897ZM90.362 65.8343V69.3027H88.6277V60.9869H90.362V64.2777H94.4311V60.9869H96.1653V69.3027H94.4311V65.8343H90.362ZM97.7304 62.5434V60.9869H105.175V62.5434H102.316V69.3027H100.59V62.5434H97.7304ZM111.147 69.4719C110.837 69.4719 110.536 69.4353 110.242 69.362C109.949 69.2886 109.698 69.1984 109.489 69.0912C109.281 68.9784 109.095 68.8657 108.931 68.7529C108.773 68.6344 108.657 68.5414 108.584 68.4737L108.466 68.3468V72.9404H106.731V60.9869H108.466V61.9428C108.545 61.8638 108.655 61.7595 108.796 61.6298C108.942 61.5001 109.25 61.3309 109.718 61.1222C110.186 60.9135 110.662 60.8092 111.147 60.8092C112.247 60.8092 113.2 61.2322 114.007 62.0782C114.819 62.9185 115.225 63.9393 115.225 65.1406C115.225 66.3418 114.819 67.3655 114.007 68.2114C113.2 69.0518 112.247 69.4719 111.147 69.4719ZM112.729 63.1864C112.222 62.645 111.638 62.3742 110.978 62.3742C110.318 62.3742 109.735 62.645 109.227 63.1864C108.72 63.7278 108.466 64.382 108.466 65.149C108.466 65.9104 108.72 66.5618 109.227 67.1032C109.735 67.6446 110.318 67.9153 110.978 67.9153C111.638 67.9153 112.222 67.6446 112.729 67.1032C113.237 66.5618 113.491 65.9104 113.491 65.149C113.491 64.382 113.237 63.7278 112.729 63.1864ZM127.517 63.0679L132.195 57.1715H133.845V69.3027H131.941V60.4708L127.517 66.0119L123.101 60.4708V69.3027H121.198V57.1715H122.839L127.517 63.0679ZM142.338 67.1117C142.852 66.5759 143.108 65.9217 143.108 65.149C143.108 64.3707 142.852 63.7137 142.338 63.1779C141.825 62.6421 141.216 62.3742 140.511 62.3742C139.806 62.3742 139.194 62.6421 138.675 63.1779C138.162 63.7137 137.905 64.3707 137.905 65.149C137.905 65.9217 138.162 66.5759 138.675 67.1117C139.194 67.6475 139.806 67.9153 140.511 67.9153C141.216 67.9153 141.825 67.6475 142.338 67.1117ZM137.466 68.1861C136.608 67.3232 136.18 66.3108 136.18 65.149C136.18 63.9816 136.608 62.9664 137.466 62.1035C138.328 61.2407 139.344 60.8092 140.511 60.8092C141.678 60.8092 142.691 61.2407 143.548 62.1035C144.411 62.9664 144.842 63.9816 144.842 65.149C144.842 66.3108 144.411 67.3232 143.548 68.1861C142.691 69.0433 141.678 69.4719 140.511 69.4719C139.344 69.4719 138.328 69.0433 137.466 68.1861ZM147.516 68.1861C146.658 67.3232 146.23 66.3108 146.23 65.149C146.23 63.9816 146.658 62.9664 147.516 62.1035C148.379 61.2407 149.394 60.8092 150.561 60.8092C151.21 60.8092 151.813 60.9502 152.372 61.2322C152.93 61.5085 153.33 61.7849 153.573 62.0612L153.937 62.4588L152.811 63.584C152.755 63.4937 152.668 63.3838 152.549 63.2541C152.436 63.1187 152.185 62.9382 151.796 62.7126C151.413 62.487 151.001 62.3742 150.561 62.3742C149.856 62.3742 149.244 62.6421 148.725 63.1779C148.212 63.7137 147.956 64.3707 147.956 65.149C147.956 65.9217 148.212 66.5759 148.725 67.1117C149.244 67.6475 149.856 67.9153 150.561 67.9153C151.001 67.9153 151.413 67.8054 151.796 67.5854C152.185 67.3655 152.465 67.1512 152.634 66.9425L152.896 66.621L154.021 67.7462C153.987 67.7913 153.937 67.8561 153.869 67.9407C153.801 68.0197 153.655 68.1579 153.429 68.3552C153.203 68.547 152.967 68.719 152.718 68.8713C152.47 69.0179 152.149 69.1561 151.754 69.2858C151.359 69.4099 150.962 69.4719 150.561 69.4719C149.394 69.4719 148.379 69.0433 147.516 68.1861ZM163.115 60.9869L159.909 64.4553L163.369 69.3027H161.466L158.784 65.5805L157.481 66.9679V69.3027H155.747V60.9869H157.481V64.7091L161.034 60.9869H163.115ZM164.748 60.9869H168.733C169.528 60.9869 170.159 61.1927 170.628 61.6044C171.096 62.0105 171.33 62.5265 171.33 63.1525C171.33 63.5078 171.251 63.8321 171.093 64.1254C170.941 64.413 170.783 64.6132 170.619 64.726L170.382 64.8868C170.416 64.8981 170.464 64.9178 170.526 64.946C170.588 64.9742 170.701 65.0475 170.864 65.1659C171.028 65.2787 171.169 65.4056 171.287 65.5466C171.411 65.682 171.521 65.8681 171.617 66.105C171.719 66.3418 171.77 66.5985 171.77 66.8748C171.77 67.5911 171.513 68.1748 171 68.626C170.492 69.0771 169.796 69.3027 168.91 69.3027H164.748V60.9869ZM168.91 65.5805H166.482V67.8307H168.91C169.254 67.8307 169.528 67.7292 169.731 67.5262C169.934 67.3232 170.035 67.0496 170.035 66.7056C170.035 66.3954 169.931 66.1304 169.722 65.9104C169.514 65.6904 169.243 65.5805 168.91 65.5805ZM169.367 63.9647C169.525 63.8068 169.604 63.5953 169.604 63.3302C169.604 63.0595 169.525 62.848 169.367 62.6957C169.209 62.5378 168.998 62.4588 168.733 62.4588H166.482V64.1931H168.733C168.998 64.1931 169.209 64.1169 169.367 63.9647ZM175.399 67.8307H177.218C177.612 67.8307 177.942 67.6982 178.207 67.4331C178.472 67.1681 178.605 66.8381 178.605 66.4434C178.605 66.0486 178.472 65.7186 178.207 65.4536C177.942 65.1885 177.612 65.056 177.218 65.056H175.399V67.8307ZM179.476 64.3961C180.052 64.9319 180.339 65.6171 180.339 66.4518C180.339 67.2809 180.052 67.9633 179.476 68.4991C178.907 69.0348 178.154 69.3027 177.218 69.3027H173.665V60.9869H175.399V63.584H177.218C178.154 63.584 178.907 63.8547 179.476 64.3961ZM183.283 60.9869V69.3027H181.549V60.9869H183.283Z" fill="#172B4D"/>
</g>
<defs>
<linearGradient id="paint0_linear_2511_7537" x1="32.6568" y1="34.3433" x2="32.6568" y2="77.6569" gradientUnits="userSpaceOnUse">
<stop stop-color="#007DCD"/>
<stop offset="1" stop-color="#FF0000"/>
</linearGradient>
<clipPath id="clip0_2511_7537">
<rect width="183" height="43.3136" fill="white" transform="translate(11 34.3433)"/>
</clipPath>
</defs>
</svg>