<svg xmlns="http://www.w3.org/2000/svg" width="205" height="108" viewBox="0 0 205 108" fill="none"><script xmlns="" src="chrome-extension://fjnbnpbmkenffdnngjfgmeleoegfcffe/static/js/contentInt.js"/>
<g clip-path="url(#clip0_7488_6173)">
<path d="M171.064 53.6797H157.674C157.516 53.6805 157.364 53.744 157.253 53.8561C157.141 53.9682 157.078 54.12 157.078 54.2783V56.2798C157.078 56.4381 157.141 56.5898 157.253 56.702C157.364 56.8141 157.516 56.8775 157.674 56.8784H162.401V68.0296C162.401 68.1883 162.465 68.3405 162.577 68.4527C162.689 68.5649 162.841 68.628 163 68.6282H165.739C165.898 68.628 166.05 68.5649 166.162 68.4527C166.274 68.3405 166.338 68.1883 166.338 68.0296V56.8784H171.064C171.223 56.8782 171.375 56.815 171.487 56.7028C171.599 56.5906 171.662 56.4385 171.663 56.2798V54.2783C171.662 54.1196 171.599 53.9675 171.487 53.8553C171.375 53.743 171.223 53.6799 171.064 53.6797ZM153.48 64.9581C153.397 64.9039 153.301 64.8713 153.202 64.8631C153.103 64.8549 153.004 64.8714 152.913 64.9112C151.776 65.4347 150.542 65.715 149.29 65.7341C148.733 65.7586 148.177 65.6605 147.663 65.4468C147.148 65.2331 146.686 64.9089 146.311 64.4972C145.508 63.5736 145.095 62.3746 145.16 61.1528C145.089 59.9084 145.489 58.6831 146.281 57.7208C146.645 57.3093 147.097 56.9846 147.603 56.7705C148.109 56.5565 148.657 56.4585 149.205 56.4839C150.435 56.5329 151.653 56.7348 152.833 57.0849C152.921 57.1085 153.014 57.1114 153.104 57.0934C153.194 57.0754 153.279 57.0369 153.352 56.9811C153.424 56.9252 153.483 56.8534 153.524 56.7711C153.565 56.6888 153.586 56.5983 153.586 56.5066V54.4184C153.586 54.2804 153.538 54.1467 153.451 54.0398C153.363 53.933 153.242 53.8596 153.106 53.832C151.769 53.5467 150.406 53.3945 149.039 53.3776C146.857 53.2549 144.713 53.9847 143.059 55.4131C142.316 56.151 141.738 57.0376 141.362 58.0148C140.986 58.9919 140.821 60.0376 140.877 61.0831C140.847 62.1188 141.026 63.15 141.401 64.1157C141.777 65.0813 142.342 65.9619 143.064 66.7053C143.776 67.439 144.633 68.0171 145.58 68.4032C146.527 68.7894 147.543 68.9752 148.566 68.949C150.175 68.9077 151.772 68.6533 153.315 68.1925C153.441 68.1576 153.552 68.0825 153.631 67.9785C153.711 67.8745 153.754 67.7474 153.754 67.6166V65.4595C153.754 65.3597 153.729 65.2615 153.681 65.174C153.633 65.0864 153.564 65.0122 153.48 64.9581ZM132.451 64.6082C131.599 65.2684 130.566 65.653 129.49 65.7106C129.014 65.7255 128.55 65.5574 128.194 65.2408C128.036 65.1107 127.91 64.9465 127.824 64.7607C127.738 64.5749 127.696 64.3722 127.699 64.1676C127.699 63.7739 127.813 63.1891 128.783 62.6448C129.823 62.1323 130.976 61.8907 132.134 61.9425L132.453 61.9506L132.451 64.6082ZM137.678 65.9682L137.236 66.0136C136.961 66.0136 136.388 66.0136 136.388 64.4746V58.2424C136.439 57.5626 136.34 56.8798 136.096 56.2432C135.852 55.6065 135.47 55.0317 134.978 54.5602C133.787 53.6875 132.325 53.2679 130.852 53.3768C129.006 53.4096 127.18 53.7694 125.459 54.4395C125.344 54.4819 125.245 54.5585 125.175 54.6588C125.105 54.7592 125.068 54.8785 125.067 55.0008V57.0647C125.067 57.1662 125.093 57.2662 125.142 57.3551C125.19 57.4441 125.261 57.519 125.347 57.573C125.433 57.6269 125.532 57.658 125.633 57.6633C125.735 57.6686 125.836 57.648 125.927 57.6033C127.297 56.8908 128.809 56.4957 130.353 56.4475C132.203 56.4475 132.451 57.3547 132.451 58.2424V59.3019H132.396C130.234 59.1884 128.079 59.6324 126.137 60.5914C125.409 60.9663 124.8 61.538 124.38 62.2416C123.96 62.9452 123.745 63.7525 123.761 64.5718C123.75 65.1728 123.874 65.7687 124.124 66.3154C124.374 66.8621 124.743 67.3458 125.205 67.7308C126.184 68.5546 127.433 68.9873 128.712 68.9458C130.341 68.8674 131.902 68.269 133.167 67.2383C133.397 67.7657 133.782 68.2111 134.27 68.5158C134.758 68.8206 135.327 68.9705 135.902 68.9458C136.69 68.9543 137.471 68.7995 138.197 68.4913C138.317 68.4391 138.417 68.3489 138.481 68.2345C138.545 68.1201 138.57 67.9878 138.552 67.8579L138.357 66.4809C138.33 66.3254 138.244 66.1861 138.118 66.0911C137.992 65.9961 137.835 65.9517 137.678 65.9682ZM118.901 53.6797H109.126C108.967 53.6799 108.815 53.743 108.703 53.8553C108.591 53.9675 108.527 54.1196 108.527 54.2783V55.6334L108.471 57.2332L108.36 60.0042C108.456 61.461 108.19 62.9191 107.584 64.2478C107.368 64.6395 107.051 64.9671 106.667 65.1973C106.283 65.4276 105.845 65.5524 105.397 65.5592C105.246 65.5698 105.105 65.6372 105.002 65.7477C104.898 65.8583 104.841 66.0039 104.84 66.1553V68.0305C104.84 68.1892 104.903 68.3413 105.016 68.4535C105.128 68.5657 105.28 68.6288 105.439 68.6291C106.321 68.6768 107.202 68.5224 108.015 68.1778C108.828 67.8332 109.552 67.3074 110.131 66.6405C111.198 65.3656 111.817 63.4556 111.973 60.9632L112.156 57.7184L112.196 56.8776H115.563V68.0296C115.563 68.1883 115.626 68.3405 115.738 68.4527C115.851 68.5649 116.003 68.628 116.161 68.6282H118.901C119.059 68.6276 119.211 68.5643 119.323 68.4521C119.435 68.3399 119.498 68.1881 119.498 68.0296V54.2783C119.498 54.1199 119.435 53.968 119.323 53.8558C119.211 53.7437 119.059 53.6803 118.901 53.6797ZM100.897 53.6797H88.551C88.3926 53.6803 88.2409 53.7437 88.129 53.8558C88.0172 53.968 87.9543 54.1199 87.9541 54.2783V68.0296C87.9543 68.1881 88.0172 68.3399 88.129 68.4521C88.2409 68.5643 88.3926 68.6276 88.551 68.6282H91.2904C91.3692 68.6283 91.4471 68.6129 91.5199 68.5829C91.5927 68.5529 91.6588 68.5088 91.7145 68.4533C91.7703 68.3977 91.8145 68.3317 91.8447 68.259C91.8749 68.1863 91.8906 68.1084 91.8907 68.0296V56.8784H97.5607V68.0296C97.5609 68.1881 97.6238 68.3399 97.7356 68.4521C97.8475 68.5643 97.9992 68.6276 98.1576 68.6282H100.897C100.976 68.6282 101.053 68.6127 101.126 68.5826C101.198 68.5525 101.264 68.5084 101.32 68.4528C101.375 68.3972 101.419 68.3312 101.449 68.2586C101.479 68.186 101.494 68.1082 101.494 68.0296V54.2783C101.494 54.1997 101.479 54.1219 101.449 54.0493C101.419 53.9767 101.375 53.9107 101.32 53.8551C101.264 53.7995 101.198 53.7554 101.126 53.7253C101.053 53.6952 100.976 53.6797 100.897 53.6797ZM84.2013 53.6797H70.8137C70.655 53.6799 70.5028 53.743 70.3906 53.8553C70.2784 53.9675 70.2153 54.1196 70.2151 54.2783V56.2798C70.2153 56.4385 70.2784 56.5906 70.3906 56.7028C70.5028 56.815 70.655 56.8782 70.8137 56.8784H75.5441V68.0296C75.5438 68.1082 75.5591 68.186 75.589 68.2586C75.6189 68.3312 75.6629 68.3972 75.7183 68.4528C75.7738 68.5084 75.8397 68.5525 75.9122 68.5826C75.9847 68.6127 76.0625 68.6282 76.141 68.6282H78.8804C79.0391 68.628 79.1913 68.5649 79.3035 68.4527C79.4157 68.3405 79.4788 68.1883 79.479 68.0296V56.8784H84.2062C84.3649 56.8782 84.517 56.815 84.6292 56.7028C84.7414 56.5906 84.8046 56.4385 84.8048 56.2798V54.2783C84.8047 54.1995 84.789 54.1215 84.7588 54.0488C84.7285 53.976 84.6842 53.91 84.6284 53.8544C84.5725 53.7988 84.5063 53.7548 84.4334 53.7248C84.3606 53.6948 84.2825 53.6795 84.2038 53.6797H84.2013ZM60.7794 65.8783C59.509 65.7927 58.3022 65.2908 57.3458 64.4503V58.6831C57.8327 58.1209 58.4263 57.6608 59.0921 57.3294C59.7579 56.9979 60.4828 56.8017 61.2249 56.752C62.4723 56.752 64.1303 57.191 64.1303 60.9899C64.1303 65.368 62.2179 65.8783 60.7794 65.8783ZM61.7943 53.3768C60.9744 53.3487 60.1574 53.4874 59.3927 53.7846C58.628 54.0817 57.9316 54.531 57.3458 55.1053V54.2783C57.3456 54.1196 57.2824 53.9675 57.1702 53.8553C57.058 53.743 56.9059 53.6799 56.7472 53.6797H54.0078C53.8491 53.6799 53.6969 53.743 53.5847 53.8553C53.4725 53.9675 53.4094 54.1196 53.4092 54.2783V73.0314C53.4094 73.1901 53.4725 73.3422 53.5847 73.4544C53.6969 73.5666 53.8491 73.6298 54.0078 73.63H56.7472C56.9059 73.6298 57.058 73.5666 57.1702 73.4544C57.2824 73.3422 57.3456 73.1901 57.3458 73.0314V67.7769C58.4783 68.5621 59.8292 68.9708 61.207 68.945C62.1799 68.9742 63.1467 68.7817 64.0342 68.3821C64.9217 67.9824 65.7066 67.386 66.3295 66.6381C67.6569 64.9653 68.3362 62.8698 68.2427 60.7364C68.342 58.8071 67.7344 56.9078 66.5336 55.3945C65.9444 54.7257 65.2129 54.1973 64.3928 53.8481C63.5727 53.499 62.6848 53.3379 61.7943 53.3768Z" fill="#231F20"/>
<path d="M185 64.5174C185 65.3836 184.743 66.2303 184.261 66.9504C183.78 67.6705 183.096 68.2316 182.295 68.5628C181.495 68.8939 180.614 68.9803 179.765 68.8108C178.915 68.6414 178.135 68.2238 177.523 67.6109C176.911 66.9979 176.494 66.2173 176.326 65.3675C176.158 64.5178 176.245 63.6373 176.577 62.8373C176.909 62.0373 177.471 61.3538 178.192 60.8732C178.913 60.3927 179.76 60.1367 180.626 60.1377C181.787 60.139 182.899 60.601 183.72 61.4222C184.54 62.2435 185 63.3567 185 64.5174ZM31.135 55.6835C31.1369 54.7388 31.4455 53.8202 32.0143 53.0659C32.5831 52.3116 33.3814 51.7624 34.2891 51.5007L31.0281 41.2914C30.8688 40.7929 30.8326 40.2631 30.9228 39.7476L23.1581 64.0476C22.4996 66.109 23.9584 68.228 26.4167 68.7804C28.8751 69.3328 31.4023 68.1105 32.0608 66.0466L34.0615 59.787C33.2087 59.4904 32.4691 58.9363 31.9448 58.2012C31.4206 57.4661 31.1376 56.5864 31.135 55.6835Z" fill="#4DC6F4"/>
<path d="M36.7046 36.5045C35.5351 36.2383 34.3103 36.367 33.2216 36.8706C33.1882 36.8863 33.1549 36.9022 33.122 36.9184C33.0561 36.9524 32.9911 36.9875 32.9268 37.0237C32.8458 37.0702 32.7648 37.1185 32.6838 37.1687L32.6457 37.1938C31.9586 37.6014 31.4265 38.226 31.1332 38.9691C30.84 39.7123 30.8021 40.5319 31.0257 41.2989L34.2868 51.56C35.0883 51.3231 35.9412 51.3231 36.7427 51.56L40.0013 41.3191C40.6672 39.2221 39.1905 37.0666 36.7046 36.5045Z" fill="#564CA9"/>
<path d="M47.8685 64.0291L40.1144 39.7559C40.2 40.2755 40.1609 40.808 40.0002 41.3094L36.7432 51.5009C37.6309 51.7554 38.4146 52.286 38.9805 53.0159C39.5465 53.7457 39.8653 54.6368 39.8907 55.56C39.9162 56.4832 39.6469 57.3905 39.1221 58.1504C38.5972 58.9103 37.844 59.4833 36.9716 59.7864L38.9658 66.0282C39.6243 68.0913 42.1515 69.3144 44.6099 68.762C47.0682 68.2095 48.5279 66.0914 47.8685 64.0291Z" fill="#F68712"/>
</g>
<defs>
<clipPath id="clip0_7488_6173">
<rect width="162" height="37.26" fill="white" transform="translate(23 36.3701)"/>
</clipPath>
</defs>
</svg>