<svg xmlns="http://www.w3.org/2000/svg" width="205" height="108" viewBox="0 0 205 108" fill="none"><script xmlns="" src="chrome-extension://fjnbnpbmkenffdnngjfgmeleoegfcffe/static/js/contentInt.js"/>
<g clip-path="url(#clip0_2511_7535)">
<path d="M110 53.9937L103.05 54.4172L102.463 55.951C102.463 55.951 103.158 56.0167 103.409 56.0167C103.872 56.0427 104.307 56.3547 104.16 57.0275L102.724 63.0968C99.7055 62.3322 96.2221 63.294 94.0445 65.6092C92.3716 67.3891 90.6024 70.7303 91.1728 74.7123C92.0796 79.4848 97.9714 78.6223 99.9502 76.0167C99.9502 76.0167 100.391 77.3516 101.452 77.8119C103.099 78.5 105.62 78.1621 107.39 76.4096L107.617 74.7123C107.032 74.8652 105.064 76.1053 105.105 74.8101L110 53.9937V53.9937ZM148.076 54.0594L141.322 54.4509L140.734 55.9846C140.734 55.9846 141.579 56.0443 141.681 56.0504C142.216 56.055 142.576 56.4571 142.464 56.9312C142.27 57.7569 138.745 72.8207 138.745 72.8207C137.69 77.4388 139.429 78.2722 141.519 78.237C143.421 78.2018 144.788 77.0855 145.629 76.3775L145.825 74.6802C145.371 75.0319 144.548 75.2322 143.998 75.3652C143.559 75.4723 143.213 75.0946 143.281 74.7123L148.077 54.0594H148.076ZM156.33 54.0594L149.576 54.4509L148.957 55.9846C148.957 55.9846 149.833 56.0443 149.935 56.0504C150.471 56.055 150.798 56.4847 150.686 56.9633C150.492 57.7844 146.999 72.8207 146.999 72.8207C145.944 77.4388 147.649 78.2722 149.74 78.237C151.636 78.2018 153.009 77.0855 153.85 76.3775L154.046 74.6802C153.592 75.0319 152.769 75.2322 152.218 75.3652C151.775 75.4723 151.434 75.0946 151.501 74.7123L156.33 54.0594V54.0594ZM52.6394 54.223C48.9541 54.2031 42.3221 56.2018 38.8051 60.3565L39.6859 61.8581C43.9369 56.1941 55.7023 55.4815 54.3352 60.8137C53.7954 63.2711 51.4971 64.7513 48.2339 64.762L49.8655 58.3992C46.7766 57.9756 44.3192 59.4757 44.3192 59.4757L40.5667 74.1251C40.3679 74.8851 39.5987 75.6955 38.38 75.5931L37.8906 77.5183H50.5827C53.8245 77.5183 57.9028 75.4799 57.9242 70.9276C57.9502 66.1046 53.2587 65.8095 52.8672 65.8049C53.2602 65.8049 58.6368 65.2835 59.5237 60.7143C60.0329 56.4418 57.0434 54.2521 52.6394 54.2215V54.223ZM134.274 62.8368C132.258 62.8246 130.457 63.6304 129.543 64.1748C123.527 67.7531 123.802 76.5259 128.075 77.8455C131.919 79.0337 135.034 76.9816 136.167 75.9203L136.493 73.5379C135.83 74.2612 131.306 77.9021 129.772 75.0059C129.451 74.3988 129.382 73.3498 129.804 72.3298C132.797 72.2488 135.619 71.605 138.026 69.296C139.02 68.3739 140.118 65.4241 137.961 63.9454C136.777 63.1335 135.482 62.8429 134.274 62.8368V62.8368ZM163.802 62.8368C161.786 62.8246 159.953 63.5999 159.039 64.1412C153.023 67.7194 153.298 76.4922 157.571 77.8119C161.409 79 164.525 76.9479 165.663 75.8867L166.022 73.5042C165.365 74.2336 160.803 77.896 159.268 75.0059C158.947 74.3942 158.91 73.3116 159.334 72.2977C162.326 72.2106 165.144 71.5775 167.556 69.2639C168.545 68.3418 169.74 65.444 167.49 63.9454C166.296 63.1503 165.011 62.8444 163.803 62.8368H163.802ZM82.429 62.8689L75.7083 63.2604L75.089 64.7941C75.089 64.7941 75.8918 64.892 76.0998 64.892C76.7314 64.892 76.9301 65.4578 76.817 65.8707C76.6182 66.6001 74.1012 77.4831 74.0767 77.5183H79.0037C79.4059 75.8974 80.3432 70.3771 82.6584 67.3387C84.03 66.0328 85.6617 65.8248 85.105 67.9259C84.6509 69.7654 83.6034 73.3743 83.6034 73.3743C81.7378 81.6134 87.5701 82.5829 92.4129 82.7052C94.1669 82.67 97.06 82.5706 99.1336 81.6944L99.6229 79.7035C95.3351 80.9268 90.1819 81.67 88.5288 78.7906C87.515 76.7614 88.1175 74.3713 88.6267 72.2656C88.8974 71.1233 90.0351 67.3616 90.4541 66.23C90.9327 64.6703 90.3073 63.5326 89.246 63.1304C87.0027 62.3047 84.2732 63.6213 81.8724 65.4471L82.4275 62.8689H82.429ZM116.427 62.8689L109.706 63.2604L109.087 64.7941C109.087 64.7941 109.847 64.8492 110.066 64.8599C110.682 64.8951 110.893 65.389 110.816 65.7407L108.728 74.7138C108.09 77.9709 110.78 78.0963 111.631 78.107C113.222 78.133 115.659 76.5656 117.016 75.3989C117.158 76.4341 117.372 77.8409 119.137 78.0092C121.66 78.2431 123.281 76.9601 124.096 76.3118L124.323 74.5502C122.58 75.5441 121.727 75.6114 122.007 74.1587L124.617 62.8689L119.592 63.2604L117.569 72.0378C117.279 73.4859 114.48 74.9309 113.914 74.6159C113.827 74.5594 113.736 74.4676 113.817 74.1266L116.427 62.8704V62.8689ZM67.7139 62.9347C62.972 62.8276 58.7346 66.3768 58.8065 71.5163C58.8631 75.4417 62.0713 77.9281 65.6908 78.0092C70.7279 78.1269 74.7022 74.5624 74.6303 69.4275C74.5737 65.4975 71.338 63.0157 67.7139 62.9347V62.9347ZM68.0396 64.1427C69.6299 64.1014 69.9541 65.9303 70.0306 67.0466C70.1942 69.3097 68.9326 76.7476 65.7566 76.8348C64.2886 76.8699 63.842 75.0472 63.7656 73.9309C63.602 71.6723 64.9553 64.2237 68.0396 64.1427ZM133.948 64.8935C134.254 64.8813 134.523 64.9486 134.797 65.0893C135.612 65.5174 135.04 67.3494 134.373 68.221C133.159 69.796 130.855 70.2884 130.523 70.1462C130.206 70.0132 131.111 67.7347 131.631 66.5573C132.06 65.5862 133.031 64.9287 133.948 64.8935V64.8935ZM163.444 64.8935C163.75 64.8813 164.054 64.9165 164.325 65.0571C165.14 65.4853 164.574 67.3509 163.901 68.2225C162.693 69.8037 160.383 70.2578 160.051 70.1156C159.74 69.9826 160.607 67.7424 161.127 66.5588C161.552 65.5878 162.528 64.9318 163.444 64.8951V64.8935ZM101.06 65.2529C101.605 65.2238 102.024 65.4425 102.105 65.9379C101.947 66.6459 100.88 70.9796 100.603 72.1372C100.098 73.804 98.3308 75.431 96.9484 75.0089C96.7145 74.9218 96.2955 74.9508 96.1334 73.9982C95.9086 72.2947 96.9576 68.9382 97.9928 67.3417C98.8629 66.0251 100.154 65.3018 101.06 65.2529V65.2529ZM49.9328 67.0481C51.0445 67.0986 53.3122 67.5481 52.8688 70.5713C52.303 74.4707 49.3808 75.2368 47.5503 75.2368H45.9524L48.0076 67.1445C48.0076 67.1445 49.7233 67.0359 49.9328 67.0466V67.0481Z" fill="#00542E"/>
<path d="M25.9414 76.8379C34.7708 48.1049 65.7883 24.4243 102.474 24.4243C139.161 24.4243 170.172 48.1049 179.001 76.8379C169.534 49.5775 138.497 31.0563 102.474 31.0563C66.452 31.0563 35.413 49.5775 25.9414 76.8379Z" fill="url(#paint0_linear_2511_7535)"/>
</g>
<defs>
<linearGradient id="paint0_linear_2511_7535" x1="25.9414" y1="68.9474" x2="179.001" y2="68.3015" gradientUnits="userSpaceOnUse">
<stop stop-color="#D91917"/>
<stop offset="0.20831" stop-color="#EB6600"/>
<stop offset="0.478059" stop-color="#F8B500"/>
<stop offset="0.745002" stop-color="#FAD900"/>
<stop offset="1" stop-color="#D91717"/>
</linearGradient>
<clipPath id="clip0_2511_7535">
<rect width="153.06" height="58.281" fill="white" transform="translate(25.9414 24.4243)"/>
</clipPath>
</defs>
</svg>