<svg xmlns="http://www.w3.org/2000/svg" width="205" height="108" viewBox="0 0 205 108" fill="none"><script xmlns="" src="chrome-extension://fjnbnpbmkenffdnngjfgmeleoegfcffe/static/js/contentInt.js"/>
<g clip-path="url(#clip0_2511_7542)">
<path d="M56.9413 35.5508H23.4028C21.9011 35.5508 20.6836 36.7682 20.6836 38.27V71.8082C20.6836 73.31 21.9011 74.5275 23.4028 74.5275H56.9411C58.4428 74.5275 59.6603 73.31 59.6603 71.8082V38.27C59.6606 36.7682 58.4431 35.5508 56.9413 35.5508Z" fill="#BA1222"/>
<path d="M57.3916 36.5659C57.2431 36.5659 57.0887 36.5932 56.9323 36.6531L22.1414 49.4548C21.4086 49.7353 21.1109 50.6129 21.5222 51.2812L34.459 73.2995C34.7035 73.6969 35.1149 73.8961 35.5262 73.8961C35.9367 73.8961 36.3469 73.6981 36.5919 73.3025L58.4457 38.4822C58.9884 37.6049 58.3059 36.5659 57.3916 36.5659Z" fill="white"/>
<path d="M69.5125 66.9393C68.9675 66.9393 68.4468 66.7277 68.0646 66.3451C67.5358 65.8163 67.5273 65.3038 67.5273 63.9939C67.5273 62.684 67.5355 62.1712 68.0646 61.6427C68.4468 61.2605 68.9675 61.0488 69.5125 61.0488C70.5457 61.0488 71.2943 61.6913 71.4815 62.741H71.0338C70.8629 61.9436 70.2934 61.439 69.5123 61.439C69.0974 61.439 68.7067 61.5933 68.414 61.8863C67.9991 62.3015 67.9663 62.7489 67.9663 63.9936C67.9663 65.2384 67.9989 65.6858 68.414 66.1009C68.7067 66.394 69.0974 66.5486 69.5123 66.5486C70.2934 66.5486 70.8791 66.044 71.0501 65.2466H71.4812C71.2943 66.2966 70.5297 66.9393 69.5125 66.9393Z" fill="#58595B"/>
<path d="M76.5236 61.4879V66.8903H76.0844V61.4879H74.3594V61.0972H78.2565V61.4879H76.5236V61.4879Z" fill="#58595B"/>
<path d="M83.5334 64.433H81.8494V66.89H81.4102V61.0972H83.5334C84.5913 61.0972 85.2829 61.7565 85.2829 62.7649C85.2832 63.7739 84.5913 64.433 83.5334 64.433ZM83.4849 61.4879H81.8497V64.0426H83.4849C84.3471 64.0426 84.8436 63.5789 84.8436 62.7649C84.8436 61.9512 84.3471 61.4879 83.4849 61.4879Z" fill="#58595B"/>
<path d="M91.9633 66.8903L91.4589 65.4827H88.7577L88.2533 66.8903H87.7812L89.913 61.0972H90.3037L92.4354 66.8903H91.9633ZM90.1083 61.6832L88.8961 65.0923H91.3208L90.1083 61.6832Z" fill="#58595B"/>
<path d="M98.2342 66.8903L96.7208 64.3112L95.2072 66.8903H94.7109L96.4845 63.9205L94.8249 61.0972H95.3374L96.7206 63.5298L98.1119 61.0972H98.6165L96.9566 63.9205L98.7467 66.8903H98.2342Z" fill="#58595B"/>
<path d="M105.549 63.9936C105.549 65.3928 105.492 65.8652 105.011 66.3448C104.629 66.7274 104.108 66.939 103.563 66.939C103.018 66.939 102.497 66.7274 102.115 66.3448C101.611 65.8408 101.578 65.2794 101.578 63.9936V63.6114C101.578 62.7489 101.611 62.1468 102.115 61.6427C102.497 61.2605 103.018 61.0488 103.563 61.0488C104.108 61.0488 104.629 61.2605 105.011 61.6427C105.5 62.1308 105.549 62.7895 105.549 63.4977V63.9936ZM105.109 63.8553C105.109 62.6183 105.028 62.2523 104.662 61.8863C104.377 61.6017 103.978 61.439 103.563 61.439C103.14 61.439 102.749 61.6017 102.465 61.8863C102.058 62.293 102.017 62.814 102.017 63.9936V64.246C102.017 65.3527 102.107 65.7428 102.465 66.1009C102.749 66.3855 103.14 66.5486 103.563 66.5486C103.987 66.5486 104.376 66.3855 104.662 66.1009C105.101 65.6617 105.109 65.0596 105.109 64.1727V63.8553Z" fill="#58595B"/>
<path d="M111.322 66.8903H109.125V61.0972H111.256C112.258 61.0972 112.933 61.6992 112.933 62.5943C112.933 63.0173 112.778 63.3754 112.493 63.6437C112.363 63.7577 112.274 63.8144 112.029 63.912C112.314 64.0263 112.42 64.0911 112.567 64.2213C112.868 64.4978 113.022 64.8719 113.022 65.3277C113.023 66.3045 112.388 66.8903 111.322 66.8903ZM111.208 61.4879H109.565V63.7335H111.208C112.021 63.7335 112.493 63.3184 112.493 62.6109C112.493 61.9024 112.013 61.4879 111.208 61.4879ZM111.273 64.124H109.565V66.4996H111.273C112.079 66.4996 112.583 66.044 112.583 65.3118C112.583 64.5876 112.079 64.124 111.273 64.124Z" fill="#58595B"/>
<path d="M120.002 66.8903L119.498 65.4827H116.796L116.292 66.8903H115.82L117.952 61.0972H118.342L120.474 66.8903H120.002V66.8903ZM118.147 61.6832L116.935 65.0923H119.36L118.147 61.6832Z" fill="#58595B"/>
<path d="M126.954 66.8903V64.1647H123.936V66.8903H123.496V61.0972H123.936V63.7739H126.954V61.0972H127.394V66.8903H126.954V66.8903Z" fill="#58595B"/>
<path d="M134.828 66.8903V61.8132L131.639 66.8903H131.199V61.0972H131.639V66.158L134.828 61.0972H135.267V66.8903H134.828V66.8903Z" fill="#58595B"/>
<path d="M139.074 66.8903V61.0972H142.59V61.4879H139.514V63.7739H142.134V64.1647H139.514V66.4996H142.59V66.8903H139.074V66.8903Z" fill="#58595B"/>
<path d="M152.007 63.8638L149.379 61.0972H149.965L152.536 63.8638V61.0975H152.976V63.8641L155.547 61.0975H156.133L153.504 63.8641L156.352 66.8906H155.734L152.976 63.8801V66.8906H152.536V63.8798L149.778 66.8903H149.16L152.007 63.8638Z" fill="#58595B"/>
<path d="M162.902 66.8903V61.8132L159.713 66.8903H159.273V61.0972H159.713V66.158L162.902 61.0972H163.342V66.8903H162.902V66.8903Z" fill="#58595B"/>
<path d="M166.82 65.2468H167.251C167.422 66.044 168.008 66.5489 168.789 66.5489C169.578 66.5489 170.188 66.0849 170.188 65.312C170.188 64.5064 169.717 64.1242 168.903 64.1242H168.179V63.7335H168.928C169.668 63.7335 170.091 63.3183 170.091 62.5701C170.091 61.8375 169.578 61.439 168.798 61.439C168.016 61.439 167.447 61.9433 167.276 62.741H166.828C167.016 61.6913 167.765 61.0488 168.798 61.0488C169.798 61.0488 170.53 61.6346 170.53 62.5619C170.53 63.2125 170.254 63.6524 169.66 63.9044C170.303 64.1242 170.628 64.5878 170.628 65.328C170.628 66.3207 169.806 66.939 168.74 66.939C167.764 66.9393 167.008 66.2966 166.82 65.2468Z" fill="#58595B"/>
<path d="M177.665 66.8903V64.1647H174.647V66.8903H174.207V61.0972H174.647V63.7739H177.665V61.0972H178.105V66.8903H177.665V66.8903Z" fill="#58595B"/>
<path d="M185.539 66.8903V61.8132L182.35 66.8903H181.91V61.0972H182.35V66.158L185.539 61.0972H185.978V66.8903H185.539V66.8903Z" fill="#58595B"/>
<path d="M67.8984 55.8497V43.0225H69.8441V49.1118L74.6363 43.0225H77.0326L72.0965 49.0757L77.4832 55.85H75.0148L69.8441 49.1478V55.85H67.8984V55.8497Z" fill="#58595B"/>
<path d="M87.2655 55.8497L86.3646 53.2735H81.3021L80.4012 55.8497H78.3477L83.0495 43.0225H84.6172L89.3016 55.8497H87.2655ZM83.8785 45.9228L81.8608 51.6159H85.8425L83.8785 45.9228Z" fill="#58595B"/>
<path d="M98.2281 55.8497V44.7699H93.0397V55.8497H91.0938V43.0225H100.174V55.8497H98.2281Z" fill="#58595B"/>
<path d="M110.478 55.8497V46.5353L104.731 55.8497H102.965V43.0225H104.911V52.3185L110.64 43.0225H112.423V55.8497H110.478Z" fill="#58595B"/>
<path d="M120.211 44.7699V55.8497H118.265V44.7699H114.734V43.0225H123.742V44.7699H120.211Z" fill="#58595B"/>
<path d="M132.695 55.8497L131.795 53.2735H126.732L125.831 55.8497H123.777L128.48 43.0225H130.047L134.731 55.8497H132.695ZM129.309 45.9228L127.291 51.6159H131.272L129.309 45.9228Z" fill="#58595B"/>
<path d="M144.401 55.8497V44.7699H140.708V48.8234C140.708 54.2101 139.41 55.8497 136.834 55.8497H136.023V54.1023H136.366C137.789 54.1023 138.816 53.2011 138.816 48.5533V43.0225H146.347V55.8497H144.401Z" fill="#58595B"/>
<path d="M167.78 36.7421C167.78 36.5436 167.618 36.3828 167.42 36.3828C167.368 36.3828 167.321 36.393 167.274 36.413L163.001 38.0125C162.862 38.0634 162.762 38.1982 162.762 38.3552C162.762 38.4177 162.778 38.4794 162.805 38.5308L164.374 41.2C164.434 41.3181 164.554 41.4012 164.696 41.4012C164.835 41.4012 164.942 41.3308 165.008 41.2175L167.736 36.9136C167.764 36.8631 167.78 36.8035 167.78 36.7421Z" fill="#BA1222"/>
<path d="M163.605 55.4365V43.3732C163.605 43.1787 163.763 43.0206 163.957 43.0191L165.961 43.0064C166.157 43.0052 166.317 43.1639 166.317 43.3604V55.4368C166.317 55.6324 166.159 55.7908 165.963 55.7908H163.96C163.764 55.7905 163.605 55.6321 163.605 55.4365Z" fill="#BA1222"/>
<path d="M171.252 55.7904H169.478C169.231 55.7904 169.031 55.5904 169.031 55.3439V43.4504C169.031 43.2039 169.231 43.0039 169.478 43.0039H175.812C176.115 43.0039 176.36 43.2493 176.36 43.5519V44.6775C176.36 44.9801 176.115 45.2254 175.812 45.2254H172.146C171.899 45.2254 171.699 45.4255 171.699 45.672V48.0764C171.699 48.3232 171.899 48.5229 172.146 48.5229H175.489C175.791 48.5229 176.037 48.7682 176.037 49.0708V50.1877C176.037 50.4903 175.791 50.7357 175.489 50.7357H172.146C171.899 50.7357 171.699 50.9357 171.699 51.1822V55.3439C171.699 55.5907 171.499 55.7904 171.252 55.7904Z" fill="#BA1222"/>
<path d="M185.458 55.7907H179.078C178.834 55.7907 178.637 55.593 178.637 55.3494V43.4452C178.637 43.2016 178.834 43.0039 179.078 43.0039H185.458C185.758 43.0039 186 43.2466 186 43.5464V44.6827C186 44.9824 185.758 45.2252 185.458 45.2252H181.789C181.545 45.2252 181.348 45.4225 181.348 45.6664V47.5915C181.348 47.8351 181.545 48.0328 181.789 48.0328H185.134C185.434 48.0328 185.677 48.2755 185.677 48.5752V49.7116C185.677 50.0113 185.434 50.254 185.134 50.254H181.789C181.545 50.254 181.348 50.4514 181.348 50.6953V53.1101C181.348 53.3538 181.545 53.5514 181.789 53.5514H185.458C185.758 53.5514 186 53.7942 186 54.0939V55.248C186.001 55.548 185.758 55.7907 185.458 55.7907Z" fill="#BA1222"/>
<path d="M160.3 53.5586H159.982C159.955 53.5548 159.929 53.5522 159.908 53.5522H157.02C156.801 53.5258 156.623 53.3705 156.565 53.1636L156.571 43.4585C156.571 43.2059 156.347 43.0227 156.094 43.0245L154.176 43.0195C153.981 43.0207 153.824 43.1788 153.824 43.3736V55.3354C153.824 55.5868 154.028 55.7906 154.279 55.7906H154.308C154.33 55.7932 154.351 55.797 154.373 55.797H160.299C160.599 55.797 160.842 55.5543 160.842 55.2546V54.1008C160.842 53.8017 160.599 53.5586 160.3 53.5586Z" fill="#BA1222"/>
</g>
<defs>
<clipPath id="clip0_2511_7542">
<rect width="165.317" height="38.977" fill="white" transform="translate(20.6836 35.5508)"/>
</clipPath>
</defs>
</svg>