<svg xmlns="http://www.w3.org/2000/svg" width="205" height="108" viewBox="0 0 205 108" fill="none"><script xmlns="" src="chrome-extension://fjnbnpbmkenffdnngjfgmeleoegfcffe/static/js/contentInt.js"/>
<path d="M79.606 54.9088V50.4427H82.633C84.6675 50.4427 85.8915 49.0698 85.8915 46.8864C85.8915 44.703 84.6675 43.3301 82.633 43.3301H77.6211V54.9088H79.606ZM79.606 45.0669H82.2856C83.1954 45.0669 83.8735 45.712 83.8735 46.8864C83.8735 48.0608 83.1954 48.7059 82.2856 48.7059H79.606V45.0669Z" fill="#F7323F"/>
<path d="M96.0603 54.9088V50.4593H98.3429L100.725 54.9088H102.677V54.2471L100.51 50.2277C101.85 49.6488 102.544 48.4247 102.544 46.8864C102.544 44.6369 101.304 43.3301 99.0542 43.3301H94.0754V54.9088H96.0603ZM96.0603 45.0669H98.6903C99.9143 45.0669 100.526 45.6789 100.526 46.9195C100.526 48.1601 99.9143 48.7721 98.6903 48.7721H96.0603V45.0669Z" fill="#F7323F"/>
<path d="M117.731 51.0878C117.731 52.3945 116.822 53.3374 115.168 53.3374C113.514 53.3374 112.604 52.3945 112.604 51.0878V47.1511C112.604 45.8444 113.514 44.9015 115.168 44.9015C116.822 44.9015 117.731 45.8444 117.731 47.1511V51.0878ZM110.619 50.9886C110.619 53.5855 112.372 55.1569 115.168 55.1569C117.963 55.1569 119.716 53.5855 119.716 50.9886V47.2503C119.716 44.6534 117.963 43.082 115.168 43.082C112.372 43.082 110.619 44.6534 110.619 47.2503V50.9886Z" fill="#F7323F"/>
<path d="M131.137 55.1569C132.311 55.1569 133.27 54.8591 133.998 54.2637C134.743 53.6517 135.106 52.7254 135.106 51.4848V43.3301H133.122V51.4186C133.122 52.7254 132.278 53.3374 131.137 53.3374C129.813 53.3374 129.152 52.7254 129.152 51.4848V50.9886H127.167V51.4848C127.167 54.0486 128.689 55.1569 131.137 55.1569Z" fill="#F7323F"/>
<path d="M151.318 54.9088V53.172H145.859V49.93H150.524V48.2759H145.859V45.0669H151.301V43.3301H143.874V54.9088H151.318Z" fill="#F7323F"/>
<path d="M163.754 55.1569C164.978 55.1569 165.987 54.8261 166.798 54.1479C167.608 53.4697 168.022 52.4773 168.022 51.154V50.9886H166.037V51.154C166.037 51.8652 165.805 52.4111 165.325 52.7915C164.846 53.1554 164.316 53.3374 163.737 53.3374C162.067 53.3374 161.24 52.5269 161.24 51.1209V47.118C161.24 45.712 162.067 44.9015 163.737 44.9015C164.316 44.9015 164.846 45.0835 165.325 45.4639C165.805 45.8278 166.037 46.3737 166.037 47.0849V47.2503H168.022V47.0849C168.022 45.7617 167.608 44.7692 166.798 44.091C165.987 43.4128 164.978 43.082 163.754 43.082C160.892 43.082 159.255 44.6038 159.255 47.2503V50.9886C159.255 53.6351 160.892 55.1569 163.754 55.1569Z" fill="#F7323F"/>
<path d="M180.645 54.9088V45.0669H184.003V43.3301H175.302V45.0669H178.66V54.9088H180.645Z" fill="#F7323F"/>
<path d="M40.2004 54.9625C40.2004 48.4122 34.8883 43.0601 28.298 43.0601H25.3424V46.0157H28.298C33.2108 46.0157 37.2049 50.0098 37.2049 54.9226C37.2049 59.8353 33.2108 63.8294 28.298 63.8294H25.3424V46.0556H22.3867V66.8649H25.3424H28.298C34.8883 66.8649 40.2004 61.5528 40.2004 54.9625Z" fill="#F7323F"/>
<path d="M46.151 43.1001H43.1953V66.865H46.151V43.1001Z" fill="#F7323F"/>
<path d="M54.9395 43.1001L48.9883 54.9626H52.1037L58.0549 43.1001H54.9395Z" fill="#F7323F"/>
<path d="M52.1016 54.9629L58.0528 66.8653H61.1682L55.217 54.9629H52.1016Z" fill="#F7323F"/>
<path d="M68.794 41.3823H68.1992V68.5423H68.794V41.3823Z" fill="#F7323F"/>
</svg>