<svg xmlns="http://www.w3.org/2000/svg" width="205" height="108" viewBox="0 0 205 108" fill="none"><script xmlns="" src="chrome-extension://fjnbnpbmkenffdnngjfgmeleoegfcffe/static/js/contentInt.js"/>
<path d="M170.444 42.9238V61.3416H157.16C154.943 61.3416 153.826 60.233 153.826 58.0184V42.9238C153.826 40.7271 152.739 39.7391 150.544 39.7391C148.361 39.7391 147.279 40.7696 147.279 42.9238V57.88C147.279 64.5085 150.598 67.8303 157.104 67.8303C162.841 67.8303 169.338 66.0104 170.565 65.576C170.858 67.0793 171.884 67.8509 173.662 67.8509C173.682 67.8509 173.7 67.8289 173.719 67.8289V67.8509C175.922 67.8509 177 66.782 177 64.5661V42.9238C177 40.4325 175.482 39.7391 173.741 39.7391C171.539 39.7185 170.444 40.786 170.444 42.9238ZM138.438 39.7377C136.221 39.7377 135.123 40.786 135.1 42.9224V61.3402H121.821C119.599 61.3402 118.481 60.2316 118.481 58.0171V42.9238C118.481 40.7271 117.379 39.7391 115.205 39.7391C113.022 39.7391 111.924 40.7696 111.924 42.9238V57.88C111.924 64.5085 115.242 67.8303 121.76 67.8303C127.48 67.8303 133.981 66.0104 135.2 65.576C135.501 67.0999 136.597 67.8714 138.382 67.8509C140.56 67.8509 141.664 66.782 141.664 64.6469V42.9416C141.664 40.5873 140.338 39.7377 138.438 39.7377ZM99.9194 56.9098C99.9194 59.1257 97.683 61.3594 95.4616 61.3594H82.9994V46.2675H95.4616C97.683 46.2675 99.9194 48.4437 99.9194 50.5198V56.9098ZM95.4616 39.7569C88.8797 39.7569 82.8802 42.0125 82.8802 42.0125C82.8802 42.0125 81.6633 39.7569 79.6818 39.7569C77.6783 39.7569 76.4395 40.7066 76.4395 42.9224V73.331C76.4395 75.4866 77.5413 76.5554 79.7188 76.5554C81.8977 76.5554 82.9994 75.4468 82.9994 73.2501V65.5747C85.858 66.782 91.5999 67.8495 95.4986 67.8495C101.843 67.8495 106.459 63.4163 106.459 56.7906V50.6184C106.46 44.1092 102.038 39.7569 95.4616 39.7569ZM64.0404 58.0376C64.0404 60.2549 62.9427 61.3608 60.7213 61.3608H53.0843V46.2675H60.7213C62.9427 46.2675 64.0404 47.3159 64.0404 49.4139V58.0376ZM38.8639 61.3608C36.6617 61.3608 35.5435 60.2549 35.5435 58.0376V49.4139C35.5435 47.3159 36.6617 46.2675 38.8639 46.2675H46.5229V61.3608H38.8639ZM49.8022 35.4443C47.6014 35.4443 46.5216 36.5338 46.5216 38.7497V42.0139C45.0429 40.8258 40.6221 39.7391 38.8626 39.7583C32.2848 39.8364 29 43.0019 29 49.4906V57.9006C29 64.5263 32.2848 67.9893 38.8242 67.8509C41.7239 67.7919 45.3609 66.1694 46.5216 65.576V73.3323C46.5216 75.4879 47.6014 76.5568 49.8022 76.5568C51.9811 76.5568 53.0843 75.4879 53.0843 73.3323V65.576C54.4245 66.2283 57.9614 67.8509 60.7583 67.8509C67.3197 67.8509 70.6003 64.5277 70.6003 57.9006V49.4906C70.6003 43.0019 67.3019 39.8186 60.72 39.7583C58.341 39.7391 55.4016 40.5106 53.0829 42.0139V38.6496C53.0843 36.5132 51.9811 35.4443 49.8022 35.4443Z" fill="#3EB5F1"/>
</svg>