<svg xmlns="http://www.w3.org/2000/svg" width="205" height="108" viewBox="0 0 205 108" fill="none"><script xmlns="" src="chrome-extension://fjnbnpbmkenffdnngjfgmeleoegfcffe/static/js/contentInt.js"/>
<path d="M109.942 59.6327C109.942 58.9378 109.714 58.3973 109.256 58.0112C108.799 57.6252 107.961 57.2391 106.742 56.8144C104.19 56.0423 102.323 55.1929 101.104 54.305C99.8853 53.417 99.2758 52.1043 99.2758 50.4056C99.2758 48.7455 99.9996 47.4329 101.447 46.3905C102.895 45.3867 104.761 44.8462 107.009 44.8462C109.218 44.8462 111.047 45.4253 112.456 46.5449C113.866 47.6645 114.552 49.1316 114.513 50.8689L114.475 50.9461H109.942C109.942 50.174 109.676 49.5177 109.142 49.0158C108.609 48.5139 107.847 48.2822 106.895 48.2822C105.942 48.2822 105.219 48.4753 104.685 48.8999C104.152 49.3246 103.885 49.8265 103.885 50.4056C103.885 50.9847 104.152 51.448 104.685 51.7955C105.219 52.1429 106.247 52.5676 107.695 53.1081C109.98 53.7645 111.694 54.6138 112.837 55.579C113.98 56.5442 114.552 57.8954 114.552 59.5941C114.552 61.3315 113.866 62.6827 112.494 63.6479C111.123 64.6131 109.295 65.115 107.047 65.115C104.761 65.115 102.819 64.5359 101.142 63.4162C99.4663 62.2966 98.6663 60.6751 98.7044 58.5517L98.7425 58.4745H103.276C103.276 59.5941 103.58 60.4435 104.228 60.9068C104.838 61.4087 105.79 61.6403 107.047 61.6403C107.999 61.6403 108.723 61.4473 109.218 61.0612C109.714 60.7523 109.942 60.2505 109.942 59.6327Z" fill="#141414"/>
<path d="M130.511 48.668H125.216V64.8831H120.53V48.668H115.273V45.1548H130.473V48.668H130.511Z" fill="#141414"/>
<path d="M148.036 56.7758C148.036 59.208 147.236 61.2156 145.674 62.7985C144.112 64.3814 142.055 65.1535 139.541 65.1535C136.989 65.1535 134.931 64.3814 133.37 62.7985C131.808 61.2156 131.008 59.208 131.008 56.7758V53.2239C131.008 50.7917 131.808 48.7841 133.37 47.2398C134.931 45.6569 136.989 44.8848 139.541 44.8848C142.055 44.8848 144.112 45.6569 145.674 47.2398C147.236 48.8227 148.036 50.8303 148.036 53.2239V56.7758ZM143.388 53.1853C143.388 51.7955 143.046 50.6372 142.36 49.7107C141.674 48.8227 140.722 48.3594 139.503 48.3594C138.246 48.3594 137.293 48.8227 136.608 49.7107C135.96 50.5986 135.617 51.7568 135.617 53.1853V56.7758C135.617 58.2042 135.96 59.3625 136.646 60.289C137.331 61.177 138.284 61.6403 139.541 61.6403C140.76 61.6403 141.712 61.177 142.36 60.289C143.046 59.4011 143.35 58.2042 143.35 56.7758V53.1853H143.388Z" fill="#141414"/>
<path d="M166.894 64.8445H162.247L154.895 52.2585L154.818 52.2972V64.8445H150.133V45.1162H154.818L162.171 57.7022L162.247 57.6635V45.1162H166.894V64.8445Z" fill="#141414"/>
<path d="M182.549 56.4281H174.701V61.3312H183.958V64.8445H170.016V45.1162H183.996V48.6295H174.701V52.8763H182.549V56.4281Z" fill="#141414"/>
<path d="M39.7935 62.1422C39.1078 62.953 38.2316 63.6479 36.9364 64.227C35.6412 64.8447 34.0032 65.1536 32.0604 65.1536C29.5843 65.1536 27.5653 64.42 26.0034 62.9144C24.4416 61.4087 23.6797 59.4783 23.6797 57.0847V52.9537C23.6797 50.5601 24.4416 48.6297 25.9272 47.124C27.451 45.6183 29.3938 44.8462 31.7556 44.8462C34.346 44.8462 36.2507 45.4253 37.5459 46.6221C38.8411 47.7803 39.5649 49.4018 39.7173 51.448L39.6792 51.5252H35.2984C35.146 50.4828 34.8031 49.7107 34.2698 49.1702C33.7365 48.6297 32.9365 48.3981 31.8699 48.3981C30.8033 48.3981 29.9271 48.8227 29.2414 49.6721C28.5938 50.5215 28.251 51.6025 28.251 52.9537V57.0847C28.251 58.4745 28.5938 59.5555 29.2414 60.4049C29.889 61.2543 30.8033 61.6403 31.9842 61.6403C32.8223 61.6403 33.508 61.5631 34.0032 61.4473C34.4984 61.2929 34.8793 61.1384 35.146 60.9068V57.7796H31.9842V54.7296H39.7935V62.1422Z" fill="#E34D1C"/>
<path d="M59.3367 56.7758C59.3367 59.208 58.5367 61.2156 56.9748 62.7985C55.413 64.3814 53.3559 65.1535 50.8417 65.1535C48.2894 65.1535 46.2323 64.3814 44.6704 62.7985C43.1086 61.2156 42.3086 59.208 42.3086 56.7758V53.2239C42.3086 50.7917 43.1086 48.7841 44.6704 47.2398C46.2323 45.6569 48.2894 44.8848 50.8417 44.8848C53.3559 44.8848 55.413 45.6569 56.9748 47.2398C58.5367 48.8227 59.3367 50.8303 59.3367 53.2239V56.7758ZM54.6892 53.1853C54.6892 51.7955 54.3463 50.6372 53.6606 49.7107C52.9749 48.8227 52.0226 48.3594 50.8036 48.3594C49.5465 48.3594 48.5941 48.8227 47.9084 49.7107C47.2608 50.5986 46.918 51.7568 46.918 53.1853V56.7758C46.918 58.2042 47.2608 59.3625 47.9465 60.289C48.6322 61.177 49.5846 61.6403 50.8417 61.6403C52.0607 61.6403 53.013 61.177 53.6606 60.289C54.3463 59.4011 54.6511 58.2042 54.6511 56.7758V53.1853H54.6892Z" fill="#E34D1C"/>
<path d="M78.6101 56.7758C78.6101 59.208 77.8101 61.2156 76.2482 62.7985C74.6864 64.3814 72.6293 65.1535 70.1151 65.1535C67.5628 65.1535 65.5057 64.3814 63.9439 62.7985C62.382 61.2156 61.582 59.208 61.582 56.7758V53.2239C61.582 50.7917 62.382 48.7841 63.9439 47.2398C65.5057 45.6569 67.5628 44.8848 70.1151 44.8848C72.6293 44.8848 74.6864 45.6569 76.2482 47.2398C77.8101 48.8227 78.6101 50.8303 78.6101 53.2239V56.7758ZM73.9626 53.1853C73.9626 51.7955 73.6198 50.6372 72.9341 49.7107C72.2484 48.8227 71.296 48.3594 70.077 48.3594C68.8199 48.3594 67.8676 48.8227 67.1819 49.7107C66.5343 50.5986 66.1914 51.7568 66.1914 53.1853V56.7758C66.1914 58.2042 66.5343 59.3625 67.22 60.289C67.9056 61.177 68.858 61.6403 70.1151 61.6403C71.3341 61.6403 72.2865 61.177 72.9341 60.289C73.6198 59.4011 73.9245 58.2042 73.9245 56.7758V53.1853H73.9626Z" fill="#E34D1C"/>
<path d="M81.3164 64.8445V45.1162H88.5543C90.9161 45.1162 92.897 45.8884 94.4588 47.394C96.0588 48.8997 96.8588 50.8301 96.8588 53.2237V56.7756C96.8588 59.1692 96.0588 61.0996 94.4588 62.6053C92.8589 64.111 90.878 64.8831 88.5543 64.8831H81.3164V64.8445ZM85.9639 48.6681V61.3312H88.2114C89.4685 61.3312 90.4209 60.9066 91.1066 60.0958C91.7923 59.2464 92.1351 58.1654 92.1351 56.7756V53.1851C92.1351 51.8339 91.7923 50.7143 91.1066 49.9035C90.4209 49.0541 89.4304 48.6681 88.2114 48.6681H85.9639Z" fill="#E34D1C"/>
</svg>