<svg xmlns="http://www.w3.org/2000/svg" width="205" height="108" viewBox="0 0 205 108" fill="none"><script xmlns="" src="chrome-extension://fjnbnpbmkenffdnngjfgmeleoegfcffe/static/js/contentInt.js"/>
<g clip-path="url(#clip0_2511_7544)">
<path d="M66.0904 67.181C66.6748 67.181 67.0401 66.9682 67.3323 66.6136L66.894 66.188C66.6748 66.4008 66.4557 66.5427 66.0904 66.5427C65.579 66.5427 65.1407 66.1171 65.1407 65.5497C65.1407 65.0532 65.506 64.5568 66.0173 64.5568C66.3826 64.5568 66.6018 64.6986 66.8209 64.9114L67.2593 64.4149C66.967 64.1312 66.6018 63.9185 66.0173 63.9185C65.0676 63.9185 64.4102 64.6277 64.4102 65.4788C64.4102 66.5007 65.1407 67.181 66.0904 67.181ZM68.6473 67.1101H69.3778V64.6986H70.4006V64.1312H67.6245V64.6986H68.6473V67.1101ZM70.9119 68.0321H71.6425V66.6845C71.8616 66.9682 72.1539 67.181 72.6652 67.181C73.3958 67.181 74.1263 66.6136 74.1263 65.6206C74.1263 64.6277 73.3958 64.0603 72.6652 64.0603C72.1539 64.0603 71.8616 64.344 71.6425 64.6277V64.1312H70.9119V68.0321ZM72.5191 66.5427C72.0077 66.5427 71.6425 66.188 71.6425 65.5497C71.6425 64.9823 72.0808 64.5568 72.5191 64.5568C73.0305 64.5568 73.3958 64.9114 73.3958 65.5497C73.3958 66.188 73.0305 66.5427 72.5191 66.5427ZM76.3179 67.181C77.2676 67.181 77.9982 66.4717 77.9982 65.6206C77.9982 64.7696 77.2676 64.0603 76.3179 64.0603C75.3682 64.0603 74.6377 64.7696 74.6377 65.6206C74.7107 66.4717 75.3682 67.181 76.3179 67.181ZM76.391 66.6136C75.8065 66.6136 75.4413 66.188 75.4413 65.6206C75.4413 65.0532 75.8065 64.6277 76.391 64.6277C76.9754 64.6277 77.3407 65.0532 77.3407 65.6206C77.2676 66.1171 76.9023 66.6136 76.391 66.6136ZM78.7287 67.1101H79.3862L80.8472 65.1242V67.1101H81.5047V64.0603H80.8472C80.3359 64.6986 79.8975 65.4079 79.3862 66.0462V64.0603H78.7287V67.1101ZM83.1119 67.1101H83.8424V64.6986H84.8652V64.1312H82.1622V64.6986H83.185V67.1101H83.1119ZM86.8377 67.181C87.4221 67.181 87.7874 66.9682 88.0796 66.6136L87.6412 66.259C87.4221 66.4717 87.1299 66.6136 86.7646 66.6136C86.3263 66.6136 85.961 66.3299 85.888 65.8334H88.1526C88.1526 65.8334 88.1526 65.6916 88.1526 65.6206C88.1526 64.7696 87.6412 63.9894 86.6915 63.9894C85.8149 63.9894 85.1574 64.6986 85.1574 65.5497C85.2305 66.5427 85.961 67.181 86.8377 67.181ZM85.961 65.4079C86.0341 64.9114 86.3263 64.6277 86.7646 64.6277C87.2029 64.6277 87.4951 64.9823 87.5682 65.4079H85.961ZM88.9562 67.1101C89.6137 67.1101 90.052 66.8264 90.052 64.6277H91.0017V67.0391H91.7323V63.9894H89.3945C89.3945 66.259 89.1754 66.4717 88.8101 66.4717C88.7371 66.4717 88.664 66.4717 88.5909 66.4717L88.5179 67.0391C88.5909 67.1101 88.8101 67.1101 88.9562 67.1101ZM92.6089 67.1101H94.07C94.8005 67.1101 95.2388 66.7554 95.2388 66.1171C95.2388 65.4788 94.7275 65.1951 93.9969 65.1951H93.2664V64.1312H92.5358V67.1101H92.6089ZM93.3394 66.5427V65.6916H93.9969C94.3622 65.6916 94.5813 65.8334 94.5813 66.1171C94.5813 66.4008 94.3622 66.5427 93.9969 66.5427H93.3394ZM95.8963 67.1101H96.6269V65.9043H98.0149V67.1101H98.7454V64.0603H98.0149V65.3369H96.6269V64.1312H95.8963V67.1101ZM101.083 67.181C102.033 67.181 102.763 66.4717 102.763 65.6206C102.763 64.7696 102.033 64.0603 101.083 64.0603C100.133 64.0603 99.4029 64.7696 99.4029 65.6206C99.4029 66.4717 100.133 67.181 101.083 67.181ZM101.083 66.6136C100.499 66.6136 100.133 66.188 100.133 65.6206C100.133 65.0532 100.499 64.6277 101.083 64.6277C101.668 64.6277 102.033 65.0532 102.033 65.6206C102.033 66.1171 101.668 66.6136 101.083 66.6136ZM103.348 65.6916H105.101V64.9823H103.348V65.6916ZM105.832 67.1101H106.562V64.6986H107.877V67.1101H108.608V64.0603H105.832V67.1101ZM109.557 68.0321H110.288V66.6845C110.507 66.9682 110.799 67.181 111.311 67.181C112.041 67.181 112.772 66.6136 112.772 65.6206C112.772 64.6277 112.041 64.0603 111.311 64.0603C110.799 64.0603 110.507 64.344 110.288 64.6277V64.1312H109.557V68.0321ZM111.091 66.5427C110.58 66.5427 110.215 66.188 110.215 65.5497C110.215 64.9823 110.653 64.5568 111.091 64.5568C111.603 64.5568 111.968 64.9114 111.968 65.5497C112.041 66.188 111.603 66.5427 111.091 66.5427ZM114.963 67.181C115.913 67.181 116.644 66.4717 116.644 65.6206C116.644 64.7696 115.913 64.0603 114.963 64.0603C114.014 64.0603 113.283 64.7696 113.283 65.6206C113.283 66.4717 114.014 67.181 114.963 67.181ZM114.963 66.6136C114.379 66.6136 114.014 66.188 114.014 65.6206C114.014 65.0532 114.379 64.6277 114.963 64.6277C115.548 64.6277 115.913 65.0532 115.913 65.6206C115.913 66.1171 115.548 66.6136 114.963 66.6136ZM117.301 67.1101H118.032V65.1242L118.981 66.4717L119.931 65.1242V67.1101H120.662V64.0603H119.931L118.981 65.4788L118.032 64.0603H117.301V67.1101ZM121.611 67.1101H122.999C123.73 67.1101 124.168 66.7554 124.168 66.1171C124.168 65.4788 123.657 65.1951 122.926 65.1951H122.269V64.1312H121.538V67.1101H121.611ZM122.269 66.5427V65.6916H122.853C123.218 65.6916 123.438 65.8334 123.438 66.1171C123.438 66.4008 123.218 66.5427 122.853 66.5427H122.269ZM124.679 67.1101H125.41V64.0603H124.679V67.1101ZM126.287 67.1101H130.743V64.0603H130.012V66.4717H128.844V64.0603H128.113V66.4717H126.944V64.0603H126.214V67.1101H126.287ZM131.547 67.1101C132.204 67.1101 132.642 66.8264 132.642 64.6277H133.592V67.0391H134.323V63.9894H131.985C131.985 66.259 131.766 66.4717 131.4 66.4717C131.327 66.4717 131.254 66.4717 131.181 66.4717L131.108 67.0391C131.254 67.1101 131.4 67.1101 131.547 67.1101ZM136.66 67.181C137.245 67.181 137.61 66.9682 137.902 66.6136L137.464 66.259C137.245 66.4717 136.953 66.6136 136.587 66.6136C136.149 66.6136 135.784 66.3299 135.711 65.8334H137.975C137.975 65.8334 137.975 65.6916 137.975 65.6206C137.975 64.7696 137.464 63.9894 136.514 63.9894C135.638 63.9894 134.98 64.6986 134.98 65.5497C135.053 66.5427 135.784 67.181 136.66 67.181ZM135.784 65.4079C135.857 64.9114 136.149 64.6277 136.587 64.6277C137.026 64.6277 137.318 64.9823 137.391 65.4079H135.784ZM138.779 67.1101H139.509V65.9043H140.897V67.1101H141.628V64.0603H140.897V65.3369H139.509V64.1312H138.779V67.1101ZM142.505 67.1101H143.235V65.9043H144.623V67.1101H145.354V64.0603H144.623V65.3369H143.235V64.1312H142.505V67.1101ZM148.787 67.0391V65.3369C148.787 64.5568 148.349 64.0603 147.399 64.0603C146.888 64.0603 146.523 64.1312 146.23 64.344L146.449 64.9114C146.742 64.7696 146.961 64.6986 147.326 64.6986C147.838 64.6986 148.057 64.9114 148.057 65.3369C147.838 65.266 147.545 65.1951 147.18 65.1951C146.449 65.1951 145.938 65.5497 145.938 66.188C145.938 66.8264 146.449 67.1101 147.034 67.1101C147.472 67.1101 147.838 66.8973 148.057 66.6845V67.0391H148.787ZM148.057 66.0462C148.057 66.4008 147.691 66.6845 147.253 66.6845C146.888 66.6845 146.669 66.5427 146.669 66.259C146.669 65.9753 146.961 65.7625 147.399 65.7625C147.691 65.7625 147.838 65.8334 148.057 65.9043V66.0462ZM149.299 67.1101H150.102L150.833 66.1171H151.49V67.1101H152.221V64.0603H150.687C149.883 64.0603 149.445 64.4859 149.445 65.0532C149.445 65.5497 149.737 65.8334 150.175 65.9753L149.299 67.1101ZM150.76 65.5497C150.394 65.5497 150.175 65.4079 150.175 65.0532C150.175 64.7696 150.394 64.6277 150.76 64.6277H151.49V65.5497H150.76ZM154.924 67.1101H155.654V66.4008L156.166 65.9043L157.115 67.181H157.992L156.677 65.4079L157.846 64.1312H157.042L155.654 65.5497V64.1312H154.924V67.1101ZM159.891 67.181C160.841 67.181 161.572 66.4717 161.572 65.6206C161.572 64.7696 160.841 64.0603 159.891 64.0603C158.942 64.0603 158.211 64.7696 158.211 65.6206C158.211 66.4717 158.942 67.181 159.891 67.181ZM159.891 66.6136C159.307 66.6136 158.942 66.188 158.942 65.6206C158.942 65.0532 159.307 64.6277 159.891 64.6277C160.476 64.6277 160.841 65.0532 160.841 65.6206C160.841 66.1171 160.476 66.6136 159.891 66.6136ZM162.229 67.1101H162.887V65.1242L163.836 66.4717L164.786 65.1242V67.1101H165.517V64.0603H164.786L163.836 65.4788L162.887 64.0603H162.156V67.1101H162.229ZM166.466 67.1101H167.197V64.6986H168.512V67.1101H169.242V64.0603H166.466V67.1101ZM172.749 67.0391V65.3369C172.749 64.5568 172.311 64.0603 171.361 64.0603C170.849 64.0603 170.484 64.1312 170.192 64.344L170.411 64.9114C170.703 64.7696 170.922 64.6986 171.288 64.6986C171.799 64.6986 172.018 64.9114 172.018 65.3369C171.799 65.266 171.507 65.1951 171.142 65.1951C170.411 65.1951 169.9 65.5497 169.9 66.188C169.9 66.8264 170.411 67.1101 170.996 67.1101C171.434 67.1101 171.799 66.8973 172.018 66.6845V67.0391H172.749ZM172.091 66.0462C172.091 66.4008 171.726 66.6845 171.288 66.6845C170.922 66.6845 170.703 66.5427 170.703 66.259C170.703 65.9753 170.996 65.7625 171.434 65.7625C171.726 65.7625 171.872 65.8334 172.091 65.9043V66.0462ZM173.625 67.1101H174.356V65.9043H175.744V67.1101H176.475V64.0603H175.744V65.3369H174.356V64.1312H173.625V67.1101ZM177.278 67.1101H177.936L179.397 65.1242V67.1101H180.054V64.0603H179.397C178.885 64.6986 178.447 65.4079 177.936 66.0462V64.0603H177.278V67.1101ZM180.712 67.1101H181.515L182.246 66.1171H182.903V67.1101H183.634V64.0603H182.1C181.296 64.0603 180.858 64.4859 180.858 65.0532C180.858 65.5497 181.15 65.8334 181.588 65.9753L180.712 67.1101ZM182.173 65.5497C181.807 65.5497 181.588 65.4079 181.588 65.0532C181.588 64.7696 181.807 64.6277 182.173 64.6277H182.903V65.5497H182.173Z" fill="#5A5A5A"/>
<path d="M99.258 43.7046H97.0664V45.8323H99.258V43.7046Z" fill="#5A5A5A"/>
<path d="M102.91 43.7046H100.719V45.8323H102.91V43.7046Z" fill="#5A5A5A"/>
<path d="M182.466 55.1231V46.9668H174.284C173.846 52.8535 173.773 54.343 173.042 55.1231H172.02V59.8751H174.869V57.8892H180.859V59.8751H183.708V55.1231H182.466ZM177.06 49.6619H179.471V55.1231H176.111C176.622 54.272 176.914 52.7117 177.06 49.6619Z" fill="#5A5A5A"/>
<path d="M71.7882 52.2158C72.5918 51.6484 73.1031 50.9391 73.1031 49.9462C73.1031 47.8185 71.1307 46.6837 69.0121 46.6837C66.8205 46.6837 64.702 47.8894 64.702 50.159H67.6972C67.6972 49.4497 68.2816 49.0951 68.866 49.0951C69.4505 49.0951 69.9618 49.4497 69.9618 50.088C69.9618 50.6554 69.5235 51.081 68.7199 51.081H67.9894V53.4924H68.9391C69.7427 53.4924 70.254 53.918 70.254 54.5563C70.254 55.1946 69.6696 55.6911 69.0121 55.6911C68.3546 55.6911 67.7702 55.2655 67.7702 54.4854H64.6289C64.6289 56.8968 66.6744 58.2444 69.0121 58.2444C71.2768 58.2444 73.4684 57.1096 73.4684 54.84C73.3954 53.7052 72.884 52.7832 71.7882 52.2158ZM78.0708 55.2655V53.6343H81.7965V51.1519H78.0708V49.5916H82.2349V46.9674H75.0025V57.8897H82.381V55.2655H78.0708ZM86.3259 46.9674L85.5223 53.4215C85.3762 54.6272 84.8648 55.1946 83.9151 55.1946H83.4037V57.9607H84.3534C86.9103 57.9607 88.2983 56.5422 88.6636 53.5633L89.0288 49.7334H91.2205V57.8897H94.2887V46.9674H86.3259ZM99.5486 55.2655V53.6343H103.274V51.1519H99.5486V49.5916H103.64V46.9674H96.4073V57.8897H103.786V55.2655H99.5486ZM112.114 46.9674V50.9391H108.753V46.9674H105.612V57.8897H108.753V53.7052H112.114V57.8897H115.255V46.9674H112.114ZM122.195 50.159H120.442V46.9674H117.374V57.8897H122.122C124.533 57.8897 126.286 56.2585 126.286 53.9889C126.359 51.7193 124.606 50.159 122.195 50.159ZM127.382 46.9674V57.8897H130.523V46.9674H127.382ZM121.83 55.3365H120.515V52.7832H121.83C122.707 52.7832 123.291 53.2796 123.291 54.0598C123.218 54.7691 122.634 55.3365 121.83 55.3365ZM135.126 45.9035H140.313V43.8467H135.126V45.9035ZM140.166 46.9674L135.71 52.8541V46.9674H132.642V57.8897H135.053L139.509 52.0739V57.8897H142.577V46.9674H140.166ZM153.681 58.1734C156.677 58.1734 158.941 56.1876 159.38 53.3506H156.238C155.946 54.5563 154.923 55.3365 153.681 55.3365C152.074 55.3365 150.905 54.1307 150.905 52.4285C150.905 50.7264 152.074 49.5206 153.681 49.5206C154.85 49.5206 155.8 50.2299 156.238 51.3647H159.38C158.941 48.5986 156.604 46.6837 153.681 46.6837C150.248 46.6837 147.691 49.166 147.691 52.4285C147.691 55.6911 150.248 58.1734 153.681 58.1734ZM167.854 57.8897H171.287L166.758 46.9674H163.69L159.307 57.8897H162.667L163.324 56.1166H167.342L167.854 57.8897ZM166.539 53.7761H164.055L165.297 50.3717L166.539 53.7761Z" fill="#5A5A5A"/>
</g>
<g clip-path="url(#clip1_2511_7544)">
<path fill-rule="evenodd" clip-rule="evenodd" d="M45.4038 44.8967L46.6556 44.6022C46.8765 44.5286 47.0238 44.6758 47.0238 44.8967V47.6213C47.0238 47.8422 46.8765 48.0631 46.6556 48.1367L45.4038 48.4313C45.1829 48.5049 45.0356 48.3577 45.0356 48.1367V45.4122C45.0356 45.1913 45.1829 44.9704 45.4038 44.8967ZM45.6247 50.6404L46.8765 50.3458C47.0974 50.2722 47.2447 50.4195 47.2447 50.6404V53.3649C47.2447 53.5858 47.0974 53.8067 46.8765 53.8804L45.6247 54.1749C45.4038 54.2486 45.2565 54.1013 45.2565 53.8804V51.1558C45.1829 50.9349 45.4038 50.714 45.6247 50.6404ZM49.8956 49.8304L50.7792 49.6095C51.0001 49.5358 51.1474 49.6831 51.1474 49.904L51.221 52.2604C51.221 52.4813 51.0738 52.7022 50.8529 52.7758L49.9692 52.9967C49.7483 53.0704 49.601 52.9231 49.601 52.7022V50.2722C49.4538 50.0513 49.6747 49.8304 49.8956 49.8304ZM45.6247 56.8258L46.8765 56.5313C47.0974 56.4577 47.2447 56.6049 47.2447 56.8258V59.5504C47.2447 59.7713 47.0974 59.9922 46.8765 60.0658L45.6247 60.5813C45.4038 60.6549 45.2565 60.5077 45.2565 60.2867V57.3413C45.1829 57.1204 45.4038 56.8995 45.6247 56.8258ZM49.8956 55.7949L50.7792 55.574C51.0001 55.5004 51.1474 55.6477 51.1474 55.8686V58.0777C51.1474 58.2986 51.0001 58.5195 50.7792 58.5931L49.8956 58.8877C49.6747 58.9613 49.5274 58.814 49.5274 58.5931V56.3104C49.5274 56.0895 49.6747 55.8686 49.8956 55.7949ZM40.102 37.4595C31.9283 37.4595 24.7856 41.6567 22.9447 47.6213C19.1156 59.7713 27.3629 70.8167 39.8074 73.5413C39.8074 70.8167 39.8074 69.6386 39.7338 67.6504L28.3938 61.9804C28.1729 61.8331 27.952 61.5386 27.952 61.244C27.8783 60.3604 28.6883 60.2867 29.0565 60.5077L39.7338 64.7786C39.7338 61.5386 39.6601 60.3604 39.6601 58.814L30.161 54.0277C29.9401 53.8804 29.7192 53.5858 29.7192 53.2913C29.7192 52.6286 30.2347 52.334 30.8238 52.5549L39.6601 56.0895C39.5865 52.5549 39.6601 55.1322 39.7338 49.8304L32.812 46.1486C32.591 46.0013 32.3701 45.7067 32.3701 45.4122C32.3701 44.8231 32.8856 44.4549 33.7692 44.7495L39.8074 47.1795C39.8074 46.1486 39.8074 44.8967 39.881 43.3504C39.881 43.0558 40.102 42.9086 40.3229 42.9086H41.4274C41.722 42.9086 41.8692 43.1295 41.8692 43.3504C41.9429 51.0086 42.1638 57.7831 42.1638 65.4413C42.6792 65.3677 43.2683 65.294 43.7101 65.2204C51.8101 63.8949 57.9956 58.2249 57.9956 51.4504C57.922 43.7922 49.8956 37.4595 40.102 37.4595Z" fill="#009640"/>
</g>
<defs>
<clipPath id="clip0_2511_7544">
<rect width="120.027" height="25.0364" fill="white" transform="translate(63.9727 43.3501)"/>
</clipPath>
<clipPath id="clip1_2511_7544">
<rect width="36.0818" height="36.0818" fill="white" transform="translate(22 37.4595)"/>
</clipPath>
</defs>
</svg>