<svg xmlns="http://www.w3.org/2000/svg" width="40" height="40" viewBox="0 0 40 40" fill="none" class=""><script xmlns="" src="chrome-extension://fjnbnpbmkenffdnngjfgmeleoegfcffe/static/js/contentInt.js"/><link xmlns="" type="text/css" id="dark-mode" rel="stylesheet" href=""/><style xmlns="" type="text/css" id="dark-mode-Ñustom-style"/><style xmlns="" type="text/css" id="dark-mode-theme-changer-style"/>
<path fill-rule="evenodd" clip-rule="evenodd" d="M10 26.5858V15.618L16.1061 12.565C16.6361 12.3 16.7921 12.2262 16.9469 12.1814C17.1022 12.1364 17.2624 12.1104 17.4239 12.104C17.585 12.0976 17.7563 12.1182 18.3429 12.202L21.8787 12.7071C22.1611 12.7475 22.4117 12.8763 22.6039 13.0631C18.8627 12.9301 15.1038 13.6864 11.6503 15.3223C10.8064 15.7221 10.4913 16.7625 10.9718 17.5633L11.1685 17.8912C11.9676 19.223 13.4998 19.9305 15.0317 19.6752L17.3721 19.2851C18.078 19.1675 18.2845 19.1386 18.4769 19.1486C18.67 19.1586 18.8606 19.1966 19.0428 19.2614C19.2244 19.3259 19.404 19.4318 20.0108 19.811L22.464 21.3443L22.4777 21.3528L22.4897 21.36C22.4984 21.3652 22.5072 21.3702 22.516 21.3751L28.8763 24.9528C29.1946 25.1318 29.2765 25.5536 29.0484 25.8387C28.8698 26.062 28.5571 26.1258 28.3053 25.9902L22.9834 23.1245C22.8931 23.0746 22.798 23.04 22.7011 23.0202C22.4036 22.959 22.0941 23.0377 21.8623 23.2294C21.7771 23.2998 21.7025 23.3855 21.6428 23.485C21.5824 23.5854 21.5416 23.6926 21.5195 23.8019C21.4595 24.0985 21.5383 24.4067 21.7294 24.6377C21.7924 24.7139 21.8676 24.7817 21.9541 24.8379L25.2083 27.0074C25.4953 27.1988 25.595 27.574 25.4407 27.8826C25.2593 28.2454 24.8037 28.3716 24.4615 28.1538L23.3192 27.4269C23.2248 27.3471 23.1234 27.2729 23.0152 27.2053L20.53 25.652C20.0649 25.3612 19.4514 25.4995 19.1563 25.9631L19.152 25.97C18.8612 26.4351 18.9995 27.0486 19.4631 27.3437L22.0873 29.0136C22.2697 29.2223 22.2863 29.5413 22.1033 29.7702C21.9162 30.004 21.5837 30.0606 21.3298 29.9019L18.5407 28.1587C18.4567 28.1046 18.367 28.0645 18.2747 28.0382C17.9823 27.9546 17.6678 28.01 17.4224 28.1834C17.332 28.2472 17.2511 28.3271 17.184 28.4219C17.1169 28.5164 17.0685 28.6191 17.0382 28.7253C16.9545 29.0177 17.01 29.3323 17.1834 29.5776C17.2388 29.6561 17.3063 29.7274 17.3851 29.7887L18.1702 30.4168C18.5439 30.7158 18.5439 31.2842 18.1702 31.5832C17.9602 31.7513 17.676 31.7934 17.4262 31.6935L17.2937 31.6405C14.8316 30.6556 12.5951 29.1809 10.7199 27.3057L10 26.5858ZM9.19195 28.6062C8.85907 28.8536 8.44663 29 8 29L4 29C2.89543 29 2 28.1046 2 27V15C2 13.8954 2.89543 13 4 13L8 13C8.58229 13 9.10646 13.2489 9.47196 13.646L15.2117 10.7761L15.2803 10.7418L15.2803 10.7418C15.7122 10.5257 16.0387 10.3623 16.3904 10.2604C16.701 10.1704 17.0213 10.1184 17.3444 10.1056C17.7103 10.091 18.0717 10.1428 18.5498 10.2112L18.6258 10.2221L22.1615 10.7272C23.5388 10.924 24.6166 11.9519 24.9164 13.2595C26.6575 13.4939 28.38 13.9235 30.0509 14.5495C30.2553 13.6619 31.0503 13 32 13L36 13C37.1046 13 38 13.8954 38 15V27C38 28.1046 37.1046 29 36 29L32 29C31.0983 29 30.3359 28.4032 30.0863 27.5831C29.3418 28.1115 28.3556 28.2171 27.502 27.8234C27.4721 28.1474 27.3827 28.4706 27.2295 28.777C26.6411 29.9538 25.3179 30.4961 24.1183 30.1661C24.0253 30.4671 23.8751 30.7569 23.665 31.0196C22.8686 32.015 21.4715 32.2788 20.3712 31.6582C20.2335 32.2208 19.9163 32.7476 19.4196 33.145C18.6471 33.763 17.602 33.9178 16.6835 33.5504L16.551 33.4974C13.8373 32.412 11.3724 30.7866 9.30571 28.7199L9.19195 28.6062ZM8 27L4 27V15L7.99978 15L8 15.0217L8 26.9987M29.8568 23.2096L23.5104 19.6398L21.0708 18.115L20.9919 18.0657L20.9919 18.0657C20.4984 17.7569 20.1254 17.5236 19.7125 17.3768C19.3482 17.2474 18.967 17.1714 18.5808 17.1513C18.1433 17.1285 17.7093 17.2011 17.1351 17.297L17.0433 17.3123L14.7029 17.7024C14.0098 17.8179 13.3166 17.5149 12.9295 16.9349C18.267 14.5458 24.3526 14.4181 29.7945 16.5948L30 16.677V23.2962C29.9536 23.2661 29.9058 23.2372 29.8568 23.2096ZM32 16.0233C32.0004 16.008 32.0004 15.9926 32 15.9773V15L36 15V27L32 27V16.0233Z" fill="#5C6370"/>
</svg>