<svg xmlns="http://www.w3.org/2000/svg" width="40" height="40" viewBox="0 0 40 40" fill="none" class=""><script xmlns="" src="chrome-extension://fjnbnpbmkenffdnngjfgmeleoegfcffe/static/js/contentInt.js"/><link xmlns="" type="text/css" id="dark-mode" rel="stylesheet" href=""/><style xmlns="" type="text/css" id="dark-mode-Ñustom-style"/><style xmlns="" type="text/css" id="dark-mode-theme-changer-style"/>
<path fill-rule="evenodd" clip-rule="evenodd" d="M18.8 5H18.7587H18.7587C17.9537 4.99999 17.2894 4.99998 16.7482 5.04419C16.1861 5.09012 15.6694 5.18868 15.184 5.43598C14.4314 5.81947 13.8195 6.43139 13.436 7.18404C13.1887 7.66937 13.0901 8.18608 13.0442 8.74818C13.0147 9.10898 13.0049 9.52454 13.0016 10H9.4H9.35719C8.27341 9.99999 7.39926 9.99998 6.69138 10.0578C5.96253 10.1174 5.32234 10.2432 4.73005 10.545C3.78924 11.0243 3.02434 11.7892 2.54497 12.73C2.24318 13.3223 2.11737 13.9625 2.05782 14.6914C1.99998 15.3993 1.99999 16.2734 2 17.3572V17.4V20.8V20.8385C1.99998 21.3657 1.99997 21.8205 2.03057 22.195C2.06287 22.5904 2.13419 22.9836 2.32698 23.362C2.49638 23.6944 2.72519 23.9903 3 24.2361V28.6L3 28.6428C2.99999 29.7266 2.99998 30.6007 3.05782 31.3086C3.11737 32.0375 3.24318 32.6777 3.54497 33.27C4.02434 34.2108 4.78924 34.9757 5.73005 35.455C6.32234 35.7568 6.96253 35.8826 7.69138 35.9422C8.39926 36 9.27342 36 10.3572 36H10.4H29.6H29.6428C30.7266 36 31.6007 36 32.3086 35.9422C33.0375 35.8826 33.6777 35.7568 34.27 35.455C35.2108 34.9757 35.9757 34.2108 36.455 33.27C36.7568 32.6777 36.8826 32.0375 36.9422 31.3086C37 30.6007 37 29.7266 37 28.6428V28.6V24.2361C37.2748 23.9903 37.5036 23.6944 37.673 23.362C37.8658 22.9836 37.9371 22.5904 37.9694 22.195C38 21.8205 38 21.3657 38 20.8386V20.8V17.4V17.3572C38 16.2734 38 15.3993 37.9422 14.6914C37.8826 13.9625 37.7568 13.3223 37.455 12.73C36.9757 11.7892 36.2108 11.0243 35.27 10.545C34.6777 10.2432 34.0375 10.1174 33.3086 10.0578C32.6007 9.99998 31.7266 9.99999 30.6428 10H30.6H26.9984C26.9951 9.52454 26.9853 9.10898 26.9558 8.74818C26.9099 8.18608 26.8113 7.66937 26.564 7.18404C26.1805 6.43139 25.5686 5.81947 24.816 5.43598C24.3306 5.18868 23.8139 5.09012 23.2518 5.04419C22.7106 4.99998 22.0463 4.99999 21.2413 5H21.2413H21.2H18.8ZM25.9986 12C25.9991 12 25.9995 12 26 12C26.0005 12 26.0009 12 26.0014 12H30.6C31.7366 12 32.5289 12.0008 33.1458 12.0512C33.7509 12.1006 34.0986 12.1928 34.362 12.327C34.9265 12.6146 35.3854 13.0735 35.673 13.638C35.8072 13.9014 35.8994 14.2491 35.9488 14.8542C35.9992 15.4711 36 16.2634 36 17.4V20.8C36 21.3766 35.9992 21.7488 35.9761 22.0322C35.9539 22.3038 35.9162 22.4045 35.891 22.454C35.7951 22.6422 35.6422 22.7951 35.454 22.891C35.4045 22.9162 35.3038 22.9539 35.0322 22.9761C34.7488 22.9992 34.3766 23 33.8 23H30C29.4477 23 29 23.4477 29 24C29 24.5523 29.4477 25 30 25H33.8H33.8385C34.2773 25 34.666 25 35 24.9824V28.6C35 29.7366 34.9992 30.5289 34.9488 31.1458C34.8994 31.7509 34.8072 32.0986 34.673 32.362C34.3854 32.9265 33.9265 33.3854 33.362 33.673C33.0986 33.8072 32.7509 33.8994 32.1458 33.9488C31.5289 33.9992 30.7366 34 29.6 34H10.4C9.26339 34 8.47108 33.9992 7.85424 33.9488C7.24907 33.8994 6.90139 33.8072 6.63803 33.673C6.07354 33.3854 5.6146 32.9265 5.32698 32.362C5.1928 32.0986 5.10062 31.7509 5.05118 31.1458C5.00078 30.5289 5 29.7366 5 28.6V24.9824C5.334 25 5.72266 25 6.16148 25H6.2H10C10.5523 25 11 24.5523 11 24C11 23.4477 10.5523 23 10 23H6.2C5.62345 23 5.25117 22.9992 4.96784 22.9761C4.69617 22.9539 4.59545 22.9162 4.54601 22.891C4.35785 22.7951 4.20487 22.6422 4.10899 22.454C4.0838 22.4045 4.04612 22.3038 4.02393 22.0322C4.00078 21.7488 4 21.3766 4 20.8V17.4C4 16.2634 4.00078 15.4711 4.05118 14.8542C4.10062 14.2491 4.1928 13.9014 4.32698 13.638C4.6146 13.0735 5.07354 12.6146 5.63803 12.327C5.90139 12.1928 6.24907 12.1006 6.85424 12.0512C7.47108 12.0008 8.2634 12 9.4 12H13.9986C13.9991 12 13.9995 12 14 12C14.0005 12 14.0009 12 14.0014 12H25.9986ZM24.9982 10C24.9951 9.55447 24.9864 9.20463 24.9625 8.91104C24.9266 8.47262 24.8617 8.24842 24.782 8.09202C24.5903 7.7157 24.2843 7.40974 23.908 7.21799C23.7516 7.1383 23.5274 7.07337 23.089 7.03755C22.6389 7.00078 22.0566 7 21.2 7H18.8C17.9434 7 17.3611 7.00078 16.911 7.03755C16.4726 7.07337 16.2484 7.1383 16.092 7.21799C15.7157 7.40974 15.4097 7.7157 15.218 8.09202C15.1383 8.24842 15.0734 8.47262 15.0376 8.91104C15.0136 9.20463 15.0049 9.55447 15.0018 10H24.9982ZM18.9546 15.8181C19.4136 15.0037 20.5864 15.0037 21.0454 15.8181L22.8683 19.0522L26.5074 19.7865C27.4237 19.9713 27.7861 21.0867 27.1534 21.7749L24.6409 24.5079L25.0671 28.1958C25.1745 29.1245 24.2257 29.8138 23.3757 29.4247L20 27.8798L16.6243 29.4247C15.7743 29.8138 14.8255 29.1245 14.9329 28.1958L15.3591 24.5079L12.8466 21.7749C12.2139 21.0867 12.5763 19.9713 13.4926 19.7865L17.1318 19.0522L18.9546 15.8181ZM20 18.0366L18.6943 20.3532C18.523 20.657 18.2281 20.8713 17.8862 20.9403L15.2795 21.4662L17.0792 23.4239C17.3153 23.6807 17.4279 24.0274 17.3879 24.3738L17.0826 27.0155L19.5006 25.9088C19.8177 25.7637 20.1823 25.7637 20.4994 25.9088L22.9174 27.0155L22.6121 24.3738C22.5721 24.0274 22.6847 23.6807 22.9208 23.4239L24.7205 21.4662L22.1138 20.9403C21.7719 20.8713 21.477 20.657 21.3057 20.3532L20 18.0366Z" fill="#5C6370"/>
</svg>