<svg xmlns="http://www.w3.org/2000/svg" width="40" height="40" viewBox="0 0 40 40" fill="none" class=""><script xmlns="" src="chrome-extension://fjnbnpbmkenffdnngjfgmeleoegfcffe/static/js/contentInt.js"/><link xmlns="" type="text/css" id="dark-mode" rel="stylesheet" href=""/><style xmlns="" type="text/css" id="dark-mode-Ñustom-style"/><style xmlns="" type="text/css" id="dark-mode-theme-changer-style"/>
<path fill-rule="evenodd" clip-rule="evenodd" d="M21.8996 2.26214C20.7946 1.35803 19.2054 1.35803 18.1003 2.26214L15.4212 4.45406C15.2458 4.59752 15.0269 4.67719 14.8004 4.68L11.3391 4.72302C9.91143 4.74077 8.69407 5.76226 8.42868 7.16517L7.78526 10.5664C7.74315 10.789 7.62669 10.9907 7.45495 11.1385L4.8311 13.3964C3.74884 14.3276 3.47289 15.8927 4.17136 17.1379L5.86475 20.157C5.97558 20.3546 6.01603 20.584 5.97946 20.8076L5.42078 24.2238C5.19034 25.6329 5.98492 27.0091 7.32044 27.5141L7.63582 27.6333L5.18857 30.8147L5.16161 30.8498C4.86657 31.2333 4.6044 31.5741 4.4212 31.8631C4.24126 32.1471 4.02516 32.5461 4.03102 33.0245C4.03842 33.6282 4.31813 34.1962 4.79212 34.5702C5.16769 34.8665 5.61577 34.9385 5.95053 34.969C6.29133 35 6.72124 35 7.20506 35H7.2052L7.24939 35H8.01116C8.20274 35 8.30126 35.0004 8.37255 35.0049L8.37871 35.0053L8.38182 35.0106C8.41768 35.0724 8.46214 35.1603 8.54782 35.3317L8.90424 36.0445L8.92289 36.0818C9.10472 36.4455 9.27071 36.7776 9.42955 37.0337C9.592 37.2957 9.8276 37.6173 10.2077 37.8186C10.7019 38.0803 11.2831 38.1231 11.8104 37.9367C12.2159 37.7933 12.496 37.5097 12.6951 37.2743C12.8898 37.0443 13.1026 36.7402 13.3357 36.4071L13.3357 36.407L13.3358 36.4069L13.3597 36.3727L15.2972 33.605C15.6643 33.6191 16.0387 33.5658 16.4024 33.4385L19.6697 32.2951C19.8835 32.2202 20.1165 32.2202 20.3303 32.2951L23.5976 33.4385C23.9614 33.5658 24.3358 33.6191 24.7029 33.605L26.6402 36.3727L26.6642 36.4069C26.8973 36.7401 27.1102 37.0442 27.3048 37.2743C27.5039 37.5096 27.7841 37.7932 28.1896 37.9366C28.7168 38.1231 29.2981 38.0803 29.7923 37.8186C30.1724 37.6173 30.408 37.2957 30.5704 37.0337C30.7293 36.7776 30.8953 36.4456 31.0771 36.0819L31.0771 36.0818L31.0958 36.0445L31.4522 35.3317C31.5378 35.1603 31.5823 35.0724 31.6182 35.0106L31.6213 35.0053L31.6274 35.0049C31.6987 35.0004 31.7972 35 31.9888 35H32.7506L32.7948 35H32.795C33.2788 35 33.7087 35 34.0495 34.969C34.3842 34.9385 34.8323 34.8665 35.2079 34.5702C35.6819 34.1962 35.9616 33.6282 35.969 33.0245C35.9748 32.5462 35.7587 32.1471 35.5788 31.8631C35.3956 31.5741 35.1334 31.2333 34.8384 30.8498L34.8114 30.8147L32.3642 27.6333L32.6796 27.5141C34.0151 27.0091 34.8096 25.6329 34.5792 24.2238L34.0205 20.8076C33.984 20.584 34.0244 20.3546 34.1352 20.157L35.8286 17.1379C36.5271 15.8927 36.2511 14.3276 35.1689 13.3964L32.545 11.1385C32.3733 10.9907 32.2568 10.789 32.2147 10.5664L31.5713 7.16517C31.3059 5.76226 30.0886 4.74077 28.6609 4.72302L25.1996 4.68C24.973 4.67719 24.7542 4.59752 24.5788 4.45405L21.8996 2.26214ZM30.4095 28.3724L29.4417 28.7383C29.2298 28.8185 29.0514 28.9682 28.9356 29.163L27.1677 32.139C27.0114 32.4022 26.82 32.6339 26.6024 32.8309L28.2787 35.2258C28.5438 35.6045 28.7037 35.8312 28.8318 35.9826C28.8394 35.9915 28.8465 35.9998 28.8532 36.0075C28.8587 35.9989 28.8645 35.9897 28.8707 35.9797C28.9752 35.8112 29.1002 35.5635 29.3069 35.15L29.6633 34.4372L29.697 34.3694C29.8195 34.1221 29.9735 33.8112 30.2186 33.5711C30.4304 33.3637 30.6856 33.206 30.9659 33.1093C31.2902 32.9974 31.6371 32.9987 31.9131 32.9998L31.9888 33H32.7506C33.2924 33 33.6293 32.999 33.8681 32.9772C33.8845 32.9757 33.8996 32.9742 33.9136 32.9726C33.9063 32.9606 33.8983 32.9477 33.8895 32.9338C33.7611 32.7313 33.5565 32.4636 33.2262 32.0342L30.4095 28.3724ZM13.3977 32.831C13.18 32.6339 12.9886 32.4022 12.8322 32.139L11.0643 29.163C10.9486 28.9682 10.7702 28.8185 10.5583 28.7383L9.59055 28.3724L6.77382 32.0342C6.4435 32.4636 6.23885 32.7313 6.11051 32.9338C6.10169 32.9477 6.09367 32.9606 6.08641 32.9726C6.10036 32.9742 6.1155 32.9757 6.13192 32.9772C6.37068 32.999 6.70762 33 7.2494 33H8.01116L8.08685 32.9998C8.36288 32.9987 8.70979 32.9974 9.03412 33.1093C9.31437 33.206 9.56963 33.3637 9.78142 33.5711C10.0265 33.8112 10.1805 34.1221 10.303 34.3694L10.3367 34.4372L10.6931 35.1501C10.8998 35.5635 11.0248 35.8112 11.1293 35.9797L11.1468 36.0075L11.1682 35.9826C11.2963 35.8312 11.4562 35.6045 11.7213 35.2258L13.3977 32.831ZM19.3668 3.81009C19.7351 3.50872 20.2649 3.50872 20.6332 3.81009L23.3124 6.002C23.8384 6.4324 24.4951 6.6714 25.1747 6.67985L28.636 6.72287C29.1119 6.72879 29.5177 7.06928 29.6062 7.53692L30.2496 10.9381C30.3759 11.606 30.7253 12.2112 31.2405 12.6545L33.8644 14.9123C34.2251 15.2228 34.3171 15.7444 34.0843 16.1595L32.3909 19.1786C32.0584 19.7714 31.937 20.4596 32.0467 21.1304L32.6054 24.5466C32.6822 25.0163 32.4174 25.475 31.9722 25.6433L28.7344 26.8676C28.0986 27.108 27.5633 27.5571 27.2162 28.1415L25.4483 31.1176C25.2052 31.5268 24.7074 31.7079 24.2582 31.5507L20.9909 30.4073C20.3494 30.1828 19.6506 30.1828 19.009 30.4073L15.7418 31.5507C15.2926 31.7079 14.7948 31.5268 14.5517 31.1176L12.7838 28.1415C12.4367 27.5571 11.9014 27.108 11.2656 26.8676L8.02778 25.6433C7.58261 25.475 7.31775 25.0163 7.39456 24.5466L7.95324 21.1304C8.06294 20.4596 7.9416 19.7714 7.60909 19.1786L5.91571 16.1595C5.68288 15.7444 5.77486 15.2228 6.13562 14.9123L8.75946 12.6545C9.27468 12.2112 9.62407 11.606 9.75041 10.9382L10.3938 7.53692C10.4823 7.06928 10.8881 6.72879 11.364 6.72287L14.8253 6.67985C15.5049 6.6714 16.1615 6.4324 16.6876 6.002L19.3668 3.81009ZM20 12C18.8954 12 18 12.8954 18 14C18 15.1046 18.8954 16 20 16C21.1046 16 22 15.1046 22 14C22 12.8954 21.1046 12 20 12ZM16 14C16 11.7909 17.7909 10 20 10C22.2091 10 24 11.7909 24 14C24 16.2091 22.2091 18 20 18C17.7909 18 16 16.2091 16 14ZM24.1521 24.9884C23.6062 25.0723 23.0956 24.6979 23.0116 24.1521L22.9109 23.4973C22.7867 22.6898 22.7433 22.4484 22.6711 22.2655C22.4285 21.6511 21.8981 21.196 21.2539 21.0497C21.0622 21.0061 20.817 21 20 21C19.183 21 18.9378 21.0061 18.7461 21.0497C18.1019 21.196 17.5715 21.6511 17.3289 22.2655C17.2567 22.4484 17.2133 22.6898 17.0891 23.4973L16.9884 24.1521C16.9044 24.6979 16.3938 25.0723 15.8479 24.9884C15.3021 24.9044 14.9276 24.3938 15.0116 23.8479L15.1124 23.1932L15.1293 23.0831C15.2287 22.4345 15.3029 21.9507 15.4686 21.531C15.9538 20.3021 17.0146 19.3921 18.303 19.0994C18.743 18.9994 19.2324 18.9997 19.8886 19L20 19L20.1114 19C20.7676 18.9997 21.257 18.9994 21.697 19.0994C22.9854 19.3921 24.0461 20.3021 24.5314 21.531C24.6971 21.9507 24.7713 22.4345 24.8707 23.0831L24.8876 23.1932L24.9884 23.8479C25.0723 24.3938 24.6979 24.9044 24.1521 24.9884Z" fill="#5C6370"/>
</svg>