<svg xmlns="http://www.w3.org/2000/svg" width="40" height="40" viewBox="0 0 40 40" fill="none" class=""><script xmlns="" src="chrome-extension://fjnbnpbmkenffdnngjfgmeleoegfcffe/static/js/contentInt.js"/><link xmlns="" type="text/css" id="dark-mode" rel="stylesheet" href=""/><style xmlns="" type="text/css" id="dark-mode-Ñustom-style"/><style xmlns="" type="text/css" id="dark-mode-theme-changer-style"/>
<path fill-rule="evenodd" clip-rule="evenodd" d="M17.9999 3.51677C19.4799 2.52784 21.22 2 23 2C24.78 2 26.5201 2.52784 28.0001 3.51677C29.4802 4.50571 30.6337 5.91131 31.3149 7.55585C31.8989 8.96566 32.1132 10.4968 31.9437 12.005C32.3455 12.0136 32.6745 12.0362 32.9755 12.0961C34.9589 12.4906 36.5094 14.0411 36.9039 16.0245C37.0004 16.5094 37.0002 17.0666 37 17.8843L37 18V21C37 21.0172 36.9996 21.0344 36.9987 21.0514C37 21.2728 37 21.5069 37 21.7544V21.7587V21.8V24V30V32.2V32.2413C37 33.0463 37 33.7106 36.9558 34.2518C36.9099 34.8139 36.8113 35.3306 36.564 35.816C36.1805 36.5686 35.5686 37.1805 34.816 37.564C34.3306 37.8113 33.8139 37.9099 33.2518 37.9558C32.7106 38 32.0463 38 31.2413 38H31.2H15H10.4H10.3573H10.3571H10.2786H8C7.87909 38 7.7632 37.9785 7.65592 37.9392C6.94174 37.8785 6.31272 37.7519 5.73005 37.455C4.78924 36.9757 4.02433 36.2108 3.54497 35.27C3.24318 34.6777 3.11737 34.0375 3.05782 33.3086C2.99998 32.6007 2.99999 31.7266 3 30.6428V30.6V19.4V19.3572C2.99999 18.2734 2.99998 17.3993 3.05782 16.6914C3.11737 15.9625 3.24318 15.3223 3.54497 14.73C4.02433 13.7892 4.78924 13.0243 5.73005 12.545C6.32234 12.2432 6.96253 12.1174 7.69138 12.0578C8.39926 12 9.27341 12 10.3572 12H10.4H14.0557C13.8873 10.4934 14.1018 8.96409 14.6851 7.55585C15.3663 5.91131 16.5198 4.50571 17.9999 3.51677ZM30.4833 16C30.8987 15.3783 31.2353 14.7068 31.485 14.0008C32.1026 14.0035 32.3694 14.0147 32.5853 14.0576C33.7753 14.2944 34.7056 15.2247 34.9424 16.4147C34.9486 16.446 34.9541 16.4783 34.9591 16.5126C34.912 16.4861 34.8643 16.4606 34.816 16.436C34.3306 16.1887 33.8139 16.0901 33.2518 16.0442C32.7106 16 32.0463 16 31.2413 16H31.2H30.4833ZM27.9497 15.9497C27.9334 15.9661 27.9178 15.9828 27.9028 16H18.0972C18.0822 15.9828 18.0666 15.9661 18.0503 15.9497C17.0713 14.9708 16.4046 13.7235 16.1345 12.3656C15.8644 11.0078 16.003 9.6003 16.5328 8.32122C17.0627 7.04213 17.9599 5.94888 19.111 5.17971C20.2622 4.41054 21.6155 4 23 4C24.3845 4 25.7378 4.41054 26.889 5.17971C28.0401 5.94888 28.9373 7.04213 29.4672 8.32122C29.997 9.6003 30.1356 11.0078 29.8655 12.3656C29.5954 13.7235 28.9287 14.9708 27.9497 15.9497ZM14.5147 14C14.7644 14.7063 15.1012 15.3781 15.5167 16H8C7.44772 16 7 16.4477 7 17C7 17.5523 7.44772 18 8 18H31.2C32.0566 18 32.6389 18.0008 33.089 18.0376C33.5274 18.0734 33.7516 18.1383 33.908 18.218C34.2843 18.4097 34.5903 18.7157 34.782 19.092C34.8617 19.2484 34.9266 19.4726 34.9624 19.911C34.9992 20.3611 35 20.9434 35 21.8V23H28C25.7909 23 24 24.7909 24 27C24 29.2091 25.7909 31 28 31H35V32.2C35 33.0566 34.9992 33.6389 34.9624 34.089C34.9266 34.5274 34.8617 34.7516 34.782 34.908C34.5903 35.2843 34.2843 35.5903 33.908 35.782C33.7516 35.8617 33.5274 35.9266 33.089 35.9624C32.6389 35.9992 32.0566 36 31.2 36H15H10.4C9.26339 36 8.47108 35.9992 7.85424 35.9488C7.24907 35.8994 6.90138 35.8072 6.63803 35.673C6.07354 35.3854 5.6146 34.9265 5.32698 34.362C5.19279 34.0986 5.10062 33.7509 5.05118 33.1458C5.00078 32.5289 5 31.7366 5 30.6V19.4C5 18.2634 5.00078 17.4711 5.05118 16.8542C5.10062 16.2491 5.19279 15.9014 5.32698 15.638C5.6146 15.0735 6.07354 14.6146 6.63803 14.327C6.90138 14.1928 7.24907 14.1006 7.85424 14.0512C8.47108 14.0008 9.26339 14 10.4 14H14.5147ZM27 11C27 11.5523 26.5523 12 26 12H23C22.4477 12 22 11.5523 22 11V6C22 5.44772 22.4477 5 23 5C23.5523 5 24 5.44772 24 6V10H26C26.5523 10 27 10.4477 27 11ZM35 25H28C26.8954 25 26 25.8954 26 27C26 28.1046 26.8954 29 28 29H35V25ZM6 6.5C6 5.11929 7.11929 4 8.5 4C9.88071 4 11 5.11929 11 6.5C11 7.88071 9.88071 9 8.5 9C7.11929 9 6 7.88071 6 6.5ZM8.5 2C6.01472 2 4 4.01472 4 6.5C4 8.98528 6.01472 11 8.5 11C10.9853 11 13 8.98528 13 6.5C13 4.01472 10.9853 2 8.5 2Z" fill="#5C6370"/>
</svg>