<svg xmlns="http://www.w3.org/2000/svg" width="40" height="40" viewBox="0 0 40 40" fill="none" class=""><script xmlns="" src="chrome-extension://fjnbnpbmkenffdnngjfgmeleoegfcffe/static/js/contentInt.js"/><link xmlns="" type="text/css" id="dark-mode" rel="stylesheet" href=""/><style xmlns="" type="text/css" id="dark-mode-Ñustom-style"/><style xmlns="" type="text/css" id="dark-mode-theme-changer-style"/>
<path fill-rule="evenodd" clip-rule="evenodd" d="M13.045 10.2148C13.1295 10.2314 13.2199 10.2484 13.3157 10.2654C13.9793 10.3834 14.8873 10.5 15.875 10.5C17.9016 10.5 19.989 10.0147 21.2 8.4C21.382 8.15734 21.6643 8.01041 21.9674 8.00053C22.2706 7.99066 22.5619 8.11891 22.7593 8.34921C24.0864 9.89757 25.3346 10.267 26.1805 10.314C26.4805 10.3307 26.745 10.3074 26.9613 10.2704C26.7918 8.7101 26.0764 7.48812 25.0194 6.61364C23.7837 5.59135 22.0228 5 20 5C17.9772 5 16.2163 5.59135 14.9806 6.61364C13.9362 7.47771 13.2253 8.68104 13.045 10.2148ZM26.8867 12.296C26.6377 12.3191 26.3638 12.3273 26.0695 12.311C24.8827 12.245 23.4473 11.7843 22.0212 10.4646C20.2397 12.1145 17.7992 12.5 15.875 12.5C14.8083 12.5 13.8363 12.3826 13.107 12.2591C13.3651 13.7961 14.0771 15.3037 15.1041 16.508C16.4098 18.0392 18.1503 19 20 19C21.8497 19 23.5903 18.0392 24.8959 16.508C25.9147 15.3133 26.6235 13.8202 26.8867 12.296ZM13.7057 5.07265C15.3655 3.69951 17.6045 3 20 3C22.3955 3 24.6346 3.69951 26.2943 5.07265C27.9732 6.46161 29 8.49484 29 11C29 13.4674 28.006 15.9432 26.4178 17.8057C24.828 19.67 22.5686 21 20 21C17.4314 21 15.172 19.67 13.5822 17.8057C11.994 15.9432 11 13.4674 11 11C11 8.49484 12.0268 6.46161 13.7057 5.07265ZM32.0116 37.1521C32.0956 37.6979 32.6062 38.0723 33.1521 37.9884C33.6979 37.9044 34.0724 37.3938 33.9884 36.8479L33.6582 34.7016L33.6519 34.6607C33.3609 32.7693 33.1339 31.2937 32.8591 30.1127C32.5794 28.9109 32.2353 27.9422 31.6742 27.0821C30.738 25.6473 29.4117 24.5094 27.8512 23.8023C26.9155 23.3783 25.9039 23.1856 24.6709 23.092C23.932 23.0359 23.0871 23.014 22.1051 23.0055C22.0705 23.0019 22.0354 23 22 23H20.1055H20.0414H20.0414H20H19.9586H19.9586H19.8945H18C17.9646 23 17.9295 23.0019 17.895 23.0055C16.9129 23.014 16.068 23.0359 15.3291 23.092C14.0961 23.1856 13.0845 23.3783 12.1488 23.8023C10.5883 24.5094 9.26198 25.6473 8.3258 27.0821C7.76467 27.9422 7.42058 28.9109 7.14094 30.1127C6.86612 31.2937 6.6391 32.7694 6.34812 34.6608L6.34184 34.7016L6.01163 36.8479C5.92765 37.3938 6.30208 37.9044 6.84795 37.9884C7.39381 38.0723 7.9044 37.6979 7.98837 37.1521L8.31858 35.0057C8.61719 33.0648 8.83334 31.6642 9.0889 30.566C9.34161 29.4799 9.61776 28.7621 10.0008 28.175C10.729 27.059 11.7605 26.174 12.9743 25.624C13.6125 25.3348 14.3653 25.1709 15.4805 25.0863C15.9051 25.054 16.3714 25.0339 16.8929 25.0212L16.005 33.9005C15.9751 34.1989 16.0808 34.495 16.2929 34.7071L19.2929 37.7071C19.4804 37.8946 19.7348 38 20 38C20.2652 38 20.5196 37.8946 20.7071 37.7071L23.7071 34.7071C23.9192 34.495 24.0249 34.1989 23.995 33.9005L23.1071 25.0212C23.6286 25.0339 24.0949 25.054 24.5195 25.0863C25.6347 25.1709 26.3875 25.3348 27.0257 25.624C28.2395 26.174 29.271 27.059 29.9992 28.175C30.3822 28.7621 30.6584 29.4799 30.9111 30.566C31.1667 31.6642 31.3828 33.0648 31.6814 35.0057L32.0116 37.1521ZM20 25C20.3854 25 20.7498 25 21.0951 25.0007L21.9578 33.628L20 35.5858L18.0422 33.628L18.9049 25.0007C19.2502 25 19.6146 25 20 25Z" fill="#5C6370"/>
</svg>