<svg xmlns="http://www.w3.org/2000/svg" width="40" height="40" viewBox="0 0 40 40" fill="none" class=""><script xmlns="" src="chrome-extension://fjnbnpbmkenffdnngjfgmeleoegfcffe/static/js/contentInt.js"/><link xmlns="" type="text/css" id="dark-mode" rel="stylesheet" href=""/><style xmlns="" type="text/css" id="dark-mode-Ñustom-style"/><style xmlns="" type="text/css" id="dark-mode-theme-changer-style"/>
<path fill-rule="evenodd" clip-rule="evenodd" d="M18.9912 4.50087C19.4571 3.75537 20.5429 3.75537 21.0088 4.50087C21.5917 5.43345 22.6138 5.99999 23.7136 5.99999H24C24.5523 5.99999 25 6.44771 25 6.99999C25 7.55228 24.5523 7.99999 24 7.99999L16 7.99999C15.4477 7.99999 15 7.55228 15 6.99999C15 6.44771 15.4477 5.99999 16 5.99999H16.2864C17.3862 5.99999 18.4083 5.43345 18.9912 4.50087ZM13.1707 5.99999C13.5825 4.8348 14.6938 3.99999 16 3.99999H16.2864C16.6966 3.99999 17.0778 3.78869 17.2952 3.44087C18.5445 1.44203 21.4555 1.44203 22.7048 3.44087C22.9222 3.78869 23.3034 3.99999 23.7136 3.99999H24C25.3062 3.99999 26.4175 4.8348 26.8293 5.99999L31 6C33.2091 6 35 7.79086 35 9.99999V34C35 36.2091 33.2091 38 31 38H9C6.79086 38 5 36.2091 5 34V9.99999C5 7.79085 6.79086 5.99999 9 5.99999L13.1707 5.99999ZM26.8293 7.99999L31 8C32.1046 8 33 8.89543 33 9.99999V34C33 35.1046 32.1046 36 31 36H9C7.89543 36 7 35.1046 7 34L7 9.99999C7 8.89542 7.89543 7.99999 9 7.99999L13.1707 7.99999C13.5825 9.16519 14.6938 9.99999 16 9.99999H24C25.3062 9.99999 26.4175 9.16519 26.8293 7.99999ZM15.7071 13.2929C16.0976 13.6834 16.0976 14.3166 15.7071 14.7071L12.7071 17.7071L12.0362 18.378L11.331 17.7433L9.33104 15.9433C8.92053 15.5738 8.88725 14.9415 9.25671 14.531C9.62616 14.1205 10.2585 14.0872 10.669 14.4567L11.9638 15.622L14.2929 13.2929C14.6834 12.9024 15.3166 12.9024 15.7071 13.2929ZM29 17C29.5523 17 30 16.5523 30 16C30 15.4477 29.5523 15 29 15H20C19.4477 15 19 15.4477 19 16C19 16.5523 19.4477 17 20 17H29ZM15.7071 20.2929C16.0976 20.6834 16.0976 21.3166 15.7071 21.7071L12.7071 24.7071L12.0362 25.378L11.331 24.7433L9.33104 22.9433C8.92053 22.5738 8.88725 21.9415 9.25671 21.531C9.62616 21.1205 10.2585 21.0872 10.669 21.4567L11.9638 22.622L14.2929 20.2929C14.6834 19.9024 15.3166 19.9024 15.7071 20.2929ZM29 24C29.5523 24 30 23.5523 30 23C30 22.4477 29.5523 22 29 22H20C19.4477 22 19 22.4477 19 23C19 23.5523 19.4477 24 20 24H29ZM15.7071 27.2929C16.0976 27.6834 16.0976 28.3166 15.7071 28.7071L12.7071 31.7071L12.0362 32.378L11.331 31.7433L9.33104 29.9433C8.92053 29.5738 8.88725 28.9415 9.25671 28.531C9.62616 28.1205 10.2585 28.0872 10.669 28.4567L11.9638 29.622L14.2929 27.2929C14.6834 26.9024 15.3166 26.9024 15.7071 27.2929ZM29 31C29.5523 31 30 30.5523 30 30C30 29.4477 29.5523 29 29 29H20C19.4477 29 19 29.4477 19 30C19 30.5523 19.4477 31 20 31H29Z" fill="#5C6370"/>
</svg>