<svg xmlns="http://www.w3.org/2000/svg" width="205" height="108" viewBox="0 0 205 108" fill="none"><script xmlns="" src="chrome-extension://fjnbnpbmkenffdnngjfgmeleoegfcffe/static/js/contentInt.js"/>
<rect x="51.9102" y="27.9268" width="15.6066" height="34.0508" fill="#2C2C2C"/>
<rect x="68.9336" y="32.8926" width="17.7348" height="34.0508" fill="#2C2C2C"/>
<rect x="88.0898" y="29.3457" width="14.1878" height="34.0508" fill="#2C2C2C"/>
<rect x="103.695" y="34.3115" width="17.0254" height="34.0508" fill="#2C2C2C"/>
<rect x="122.141" y="29.3457" width="15.6066" height="29.7945" fill="#2C2C2C"/>
<rect x="139.164" y="32.8926" width="14.8972" height="34.0508" fill="#2C2C2C"/>
<path d="M56.734 74.8177H53.6127V71.9092H51.9102V79.2159H53.6127V76.2365H56.734V79.2159H58.4366V71.9092H56.734V74.8177Z" fill="#2C2C2C"/>
<path d="M64.8906 73.328L65.3162 71.9092H60.918V79.2159H65.2453V77.7971H62.6205V76.2365H64.8906V74.8177H62.6205V73.328H64.8906Z" fill="#2C2C2C"/>
<path d="M73.6162 71.9092H69.5018C69.0052 74.7467 68.4377 76.733 67.5864 77.7262H67.0898V81.2732H68.7214V79.145H73.0487V81.2732H74.6803V77.7262H73.6162V71.9092ZM71.9137 77.7971H69.3599C69.9984 76.733 70.4949 75.1014 70.7787 73.328H71.9137V77.7971Z" fill="#2C2C2C"/>
<path d="M80.569 75.2433C81.1365 74.8886 81.4203 74.3211 81.4203 73.7536C81.4203 72.8314 80.7109 71.9092 79.1502 71.9092H76.7383V79.2159H79.363C81.1365 79.2159 81.9878 78.0809 81.9878 77.0168C81.9168 76.1655 81.4912 75.4561 80.569 75.2433ZM78.3699 73.328H78.8665C79.5049 73.328 79.7887 73.6827 79.7887 74.1083C79.7887 74.5339 79.5049 74.8886 78.9374 74.8886H78.4408L78.3699 73.328ZM79.0793 77.8681H78.3699V76.2365H79.2212C79.8596 76.2365 80.2143 76.5202 80.2143 77.0168C80.2143 77.5843 79.8596 77.8681 79.0793 77.8681Z" fill="#2C2C2C"/>
<path d="M86.3879 75.598C86.175 75.8818 85.9622 76.1655 85.7494 76.4493C85.7494 76.0946 85.7494 75.5271 85.7494 75.2433V71.9092H84.0469V79.2159H85.6075L88.4451 75.3852C88.6579 75.1014 88.8707 74.8177 89.1545 74.463C89.1545 74.6758 89.1545 75.1724 89.1545 75.5271V79.2159H90.857V71.9092H89.1545L86.3879 75.598Z" fill="#2C2C2C"/>
<path d="M100.715 75.5272C101.282 75.1016 101.353 74.0375 101.708 73.6119C101.85 73.47 101.992 73.399 102.204 73.399C102.346 73.399 102.559 73.399 102.701 73.47V71.9803C102.488 71.9093 102.134 71.8384 101.921 71.8384C101.353 71.8384 100.857 72.0512 100.573 72.6187C100.005 73.5409 100.076 74.8888 99.1541 74.8888H98.6575V71.9093H97.0259V74.8888H96.5293C95.6071 74.8888 95.678 73.5409 95.1105 72.6187C94.8268 72.1221 94.3302 71.8384 93.7627 71.8384C93.4789 71.8384 93.1952 71.9093 92.9824 71.9803V73.47C93.1952 73.399 93.337 73.399 93.4789 73.399C93.6917 73.399 93.8336 73.47 93.9755 73.6119C94.2593 74.1084 94.3302 75.1016 94.8977 75.5272C94.614 75.6691 94.4011 75.811 94.1174 76.4494L92.7695 79.2161H94.6849L95.6071 76.946C95.8909 76.3075 95.9618 76.2366 96.1746 76.2366H97.0259V79.2161H98.6575V76.2366H99.4378C99.6506 76.2366 99.7925 76.3075 100.005 76.946L100.928 79.2161H102.843L101.495 76.4494C101.211 75.811 100.998 75.5982 100.715 75.5272Z" fill="#2C2C2C"/>
<path d="M107.028 75.598C106.816 75.8818 106.603 76.1655 106.39 76.4493C106.39 76.0946 106.39 75.5271 106.39 75.2433V71.9092H104.688V79.2159H106.248L109.086 75.3852C109.299 75.1014 109.511 74.8177 109.795 74.463C109.795 74.6758 109.795 75.1724 109.795 75.5271V79.2159H111.498V71.9092H109.795L107.028 75.598Z" fill="#2C2C2C"/>
<path d="M118.523 74.3921C118.31 74.7467 118.098 75.0305 118.027 75.3143C117.885 75.0305 117.672 74.7467 117.459 74.463L115.615 71.9092H114.125V79.2159H115.757V75.4561C115.757 75.2433 115.757 74.9596 115.757 74.7467C115.898 75.0305 116.111 75.2433 116.253 75.4561L117.601 77.3006H118.31L119.516 75.5271C119.658 75.3143 119.942 74.8886 120.013 74.7467C120.013 74.9596 120.013 75.2433 120.013 75.5271V79.2159H121.715V71.9092H120.155L118.523 74.3921Z" fill="#2C2C2C"/>
<path d="M127.674 71.8384C125.475 71.8384 123.914 73.399 123.914 75.5982C123.914 77.7973 125.475 79.3579 127.674 79.3579C129.873 79.3579 131.434 77.7973 131.434 75.5982C131.434 73.399 129.873 71.8384 127.674 71.8384ZM127.674 77.9392C126.539 77.9392 125.758 77.1588 125.758 75.5982C125.758 74.0375 126.539 73.2572 127.674 73.2572C128.809 73.2572 129.589 74.0375 129.589 75.5982C129.589 77.1588 128.809 77.9392 127.674 77.9392Z" fill="#2C2C2C"/>
<path d="M137.391 77.939C136.043 77.939 135.191 77.0168 135.191 75.669C135.191 74.392 135.901 73.328 137.462 73.328C138.171 73.328 138.809 73.4698 139.377 73.8245V72.2639C138.88 72.0511 138.242 71.9092 137.391 71.9092C134.908 71.9092 133.418 73.6117 133.418 75.669C133.418 77.7971 134.695 79.3578 137.249 79.3578C138.029 79.3578 138.88 79.2159 139.732 78.7193L139.235 77.3715C138.667 77.7262 138.171 77.939 137.391 77.939Z" fill="#2C2C2C"/>
<path d="M141.012 73.328H143.14V79.2159H144.842V73.328H146.687L147.112 71.9092H141.012V73.328Z" fill="#2C2C2C"/>
<path d="M152.927 74.8177C152.359 74.5339 151.65 74.3921 150.941 74.3921H150.515V71.9092H148.812V79.2159H150.941C153.211 79.2159 153.991 78.1518 153.991 76.804C154.062 75.8108 153.636 75.1724 152.927 74.8177ZM151.012 77.8681H150.515V75.8108H150.941C151.366 75.8108 151.792 75.8818 152.076 76.0946C152.289 76.2365 152.43 76.5202 152.43 76.8749C152.359 77.5134 152.005 77.8681 151.012 77.8681Z" fill="#2C2C2C"/>
<path d="M113.839 53.5357L110.079 48.499H110.008V53.5357H107.312V41.7598H110.008V46.5127H110.079L113.768 41.7598H116.818L112.278 47.364L117.102 53.5357H113.839Z" fill="white"/>
<path d="M131.149 41.689H128.95L124.41 53.5358H127.177L128.241 50.6982H132.001L133.136 53.5358H135.973L131.149 41.689ZM129.021 48.5701L129.589 46.9385C129.872 46.1581 130.014 45.6616 130.156 45.2359C130.227 45.5906 130.369 46.0872 130.653 46.9385L131.22 48.5701H129.021Z" fill="white"/>
<path d="M146.045 41.7598H141.859V53.5357H145.761C149.734 53.5357 152.5 51.2656 152.571 47.5768C152.571 43.9589 150.159 41.7598 146.045 41.7598ZM145.832 51.1947H144.555V44.0298H145.761C148.315 44.0298 149.663 45.3777 149.663 47.5768C149.663 49.5631 148.528 51.1947 145.832 51.1947Z" fill="white"/>
<path d="M94.5456 53.5359C93.1977 53.5359 91.708 53.1812 90.7148 52.4008L91.708 50.3436C92.4883 50.9111 93.3396 51.2658 94.4037 51.2658C95.184 51.2658 96.0353 50.9821 96.0353 50.2017C96.0353 48.2864 91.0695 48.4992 91.0695 44.8813C91.0695 43.1078 92.4883 41.4053 95.1131 41.4053C96.39 41.4053 97.4541 41.689 98.1635 42.0437V44.4557C97.0994 43.8881 96.1062 43.6044 95.184 43.6044C94.5456 43.6044 93.978 43.8172 93.978 44.5266C93.978 46.371 98.9438 46.0873 98.9438 49.847C99.0147 52.188 97.0994 53.5359 94.5456 53.5359Z" fill="white"/>
<path d="M79.2236 41.689H77.0245L72.4844 53.5358H75.251L76.3151 50.6982H80.0749L81.2099 53.5358H84.0475L79.2236 41.689ZM77.0954 48.5701L77.6629 46.9385C77.9467 46.1581 78.0886 45.6616 78.2304 45.2359C78.3014 45.5906 78.4433 46.0872 78.727 46.9385L79.2945 48.5701H77.0954Z" fill="white"/>
<path d="M61.2022 53.5357L57.4424 48.499H57.3715V53.5357H54.6758V41.7598H57.3715V46.5127H57.4424L61.1312 41.7598H64.1816L59.6415 47.364L64.4654 53.5357H61.2022Z" fill="white"/>
</svg>