<svg xmlns="http://www.w3.org/2000/svg" width="205" height="108" viewBox="0 0 205 108" fill="none"><script xmlns="" src="chrome-extension://fjnbnpbmkenffdnngjfgmeleoegfcffe/static/js/contentInt.js"/>
<g clip-path="url(#clip0_2226_3450)">
<g clip-path="url(#clip1_2226_3450)">
<path d="M176.227 56.321H180.162C180.162 56.321 182.522 56.19 183.835 54.0944L187.113 49.3794C187.113 49.3794 187.769 48.5936 188.294 48.2006V54.3564C188.294 55.6661 186.326 55.7971 186.326 55.7971L186.195 56.19H194.983L194.852 55.6661C193.147 55.5352 192.622 54.6184 192.491 54.4874V41.2591C192.622 40.9971 193.015 40.2113 194.852 40.0803L194.983 39.5564H182.129C182.129 39.5564 179.768 39.5564 179.768 42.1759C179.768 44.2715 181.342 46.7599 185.015 47.6768C184.359 47.8077 183.703 48.2006 183.179 48.7246C181.998 50.1652 181.342 51.213 179.113 54.0944C179.113 54.0944 177.801 55.7971 176.096 55.9281L176.227 56.321ZM183.572 42.6998C183.572 40.2113 186.064 40.2113 188.294 40.3423V47.6768C184.884 47.0219 183.572 45.0573 183.572 42.6998ZM149.076 59.0715H146.847L144.879 62.0838L143.043 59.0715H140.289L143.305 64.0484L140.026 69.0254H142.256L144.354 65.751L146.322 69.0254H149.208L146.06 63.7865L149.076 59.0715ZM165.734 65.0962V58.9405H162.98V69.0254H165.209L169.276 63.1316V69.0254H172.03V58.9405H169.931L165.734 65.0962ZM157.471 63.0006H153.798V59.0715H151.044V69.1564H153.798V64.7032H157.471V69.1564H160.094V59.0715H157.34L157.471 63.0006ZM134.124 64.7032H137.534V63.1316H134.124V60.6431H138.322V58.9405H131.501V69.0254H138.715V67.3227H134.124V64.7032ZM120.484 60.7741H123.893V69.1564H126.648V60.7741H130.058V59.0715H120.745L120.484 60.7741ZM182.654 59.0715H180.293L177.539 63.7865V59.0715H174.784V69.1564H177.539V64.4413L181.08 69.1564H184.096L179.768 63.5245L182.654 59.0715ZM91.234 65.0962V58.9405H88.4797V69.0254H90.7098L94.7756 63.1316V69.0254H97.53V58.9405H95.4318L91.234 65.0962ZM114.974 58.8095C110.515 58.8095 108.81 62.7387 109.334 65.4891C109.728 67.7157 111.433 69.2873 114.319 69.2873C118.778 69.2873 120.615 65.4891 119.959 62.6077C119.565 60.5121 117.991 58.8095 114.974 58.8095ZM114.581 67.7157C113.27 67.7157 112.482 66.6679 112.22 65.3581C111.826 63.3935 112.351 60.5121 114.713 60.5121C116.155 60.5121 116.942 61.5599 117.204 62.8697C117.467 64.8342 116.942 67.7157 114.581 67.7157ZM105.137 59.0715H100.547V69.1564H103.039V65.2272H104.22C107.236 65.2272 108.154 62.7387 107.892 61.036C107.629 59.9882 106.58 59.0715 105.137 59.0715ZM103.826 63.6555H103.039V60.7741C103.301 60.7741 103.563 60.6431 103.957 60.6431C104.481 60.6431 105.137 60.7741 105.269 61.429C105.4 62.3457 104.875 63.6555 103.826 63.6555ZM76.8064 69.1564H79.5607V60.7741H83.2336V69.1564H85.9879V59.0715H76.9376L76.8064 69.1564ZM85.3317 46.8909L85.2012 39.6874H78.3804C78.3804 39.6874 69.855 39.8184 69.855 47.1529C69.855 54.4874 69.855 61.036 69.855 61.036C69.855 61.036 69.7239 66.9298 65.5267 67.8466L65.3955 68.3705C65.3955 68.3705 73.134 68.7635 74.3145 60.7741C74.3145 60.7741 74.708 57.6307 74.708 55.7971C77.5937 55.4042 84.8075 53.7015 85.3317 46.8909ZM80.2168 46.8909C80.2168 46.8909 79.9544 52.3918 75.2324 55.0112C75.2324 55.0112 74.9703 55.0112 74.708 55.1422C74.708 52.9157 74.708 46.8909 74.708 46.8909C74.708 46.8909 74.8391 40.9971 80.2168 40.9971V46.8909ZM91.4965 56.5829C91.4965 56.5829 94.6444 56.19 96.3496 52.9157L101.465 43.0927C101.465 43.0927 105.4 35.2343 111.826 36.5441L112.089 36.1511C112.089 36.1511 104.744 33.7936 99.8913 42.6998L97.3987 47.5458L94.382 41.521C93.8578 40.3423 95.1693 40.0803 95.1693 40.0803L95.4318 39.6874H86.9057L87.0369 40.2113C89.0046 40.3423 89.7912 41.521 89.7912 41.521L94.9069 52.3918L94.6444 53.0467C94.6444 53.0467 93.2017 55.0112 91.4965 54.7493C91.4965 54.7493 89.5295 54.6184 89.9225 52.2608L89.6607 52.1299C89.6607 52.1299 88.7422 53.8325 87.4306 55.2732C87.2994 55.0112 88.218 56.8449 91.4965 56.5829ZM128.222 56.5829C128.222 56.5829 133.075 56.7139 135.829 52.6537L135.305 52.2608C135.305 52.2608 132.026 56.4519 128.222 55.1422C124.812 53.9635 124.681 47.9387 124.681 47.9387C124.681 41.1281 128.222 40.4732 128.222 40.4732C131.501 39.9494 132.681 43.3546 132.681 43.3546L134.911 40.8662C134.911 40.8662 132.55 39.1635 128.615 39.1635C128.615 39.1635 120.221 39.2945 120.221 47.8077C120.09 47.8077 119.827 56.5829 128.222 56.5829ZM111.696 40.6042C114.974 40.0803 116.155 43.4857 116.155 43.4857L118.385 40.9971C118.385 40.9971 116.024 39.2945 112.089 39.2945C112.089 39.2945 103.695 39.4255 103.695 47.9387C103.695 47.9387 103.432 56.7139 111.826 56.7139C111.826 56.7139 116.68 56.8449 119.434 52.7847L118.91 52.3918C118.91 52.3918 115.63 56.5829 111.826 55.2732C108.417 54.0944 108.285 48.0697 108.285 48.0697C108.154 41.2591 111.696 40.6042 111.696 40.6042ZM136.748 55.6661L136.616 56.19H145.404L145.273 55.7971C145.273 55.7971 143.305 55.6661 143.305 54.3564V48.2006C143.961 48.5936 144.354 49.3794 144.354 49.3794L147.765 53.9635C149.076 56.059 151.438 56.19 151.438 56.19H155.372L155.504 55.7971C153.667 55.5352 152.487 53.9635 152.487 53.9635C150.388 51.213 149.208 49.2484 148.421 48.7246C147.24 47.8077 146.191 47.5458 145.142 47.4148C145.535 46.498 150.126 37.0679 158.389 38.1157L158.258 37.8538C148.945 36.1511 143.437 46.8909 143.043 47.6768V41.3901C143.043 40.0803 145.011 39.9493 145.011 39.9493L145.142 39.5564H136.354L136.485 40.0803C138.19 40.2113 138.715 41.1281 138.846 41.2591V54.4874C138.977 54.7493 138.452 55.6661 136.748 55.6661ZM198 62.6077C198 62.6077 197.082 64.4413 193.672 64.8342L191.441 59.0715H188.818L185.409 69.1564H187.376L188.032 67.4537C188.425 67.3228 189.868 66.7988 191.966 66.5369L193.015 69.1564H195.639L194.458 66.275C196.295 65.751 197.344 64.4413 198 62.6077ZM187.769 67.3227L188.032 66.5369L188.556 64.9652L189.737 61.5599L191.048 64.9652L191.18 65.2272C189.999 65.6201 188.95 66.275 187.769 67.3227ZM164.423 42.5688L166.914 49.5104C164.423 50.0343 162.193 51.213 159.832 53.4396C159.832 53.4396 162.717 51.9989 167.702 51.7369L168.62 54.2254C169.145 55.5352 167.964 55.7971 167.964 55.7971L167.702 56.19H175.309L175.178 55.6661C173.735 55.5352 173.079 54.6183 172.817 54.3564L171.636 51.213C174.916 50.2962 176.621 48.2007 177.67 45.1883C177.67 45.1883 176.227 48.0697 170.719 48.9865L167.964 41.521C167.571 40.3423 168.488 40.0803 168.488 40.0803L168.62 39.6874H167.308H163.111H161.406L161.537 40.2113C162.849 40.3423 163.374 40.7352 163.635 41.1281L163.766 41.521C162.98 42.5688 154.979 52.7847 156.159 56.321C156.159 56.321 158.914 56.321 160.619 56.321C157.078 52.6537 161.8 45.9741 164.423 42.5688Z" fill="url(#paint0_linear_2226_3450)"/>
<path d="M48.0685 45.8772C42.0856 46.6287 40.0161 48.5825 37.0811 51.8515C37.0811 51.8515 39.5646 43.961 48.7458 43.0592C51.5303 42.7961 53.6751 42.9089 56.8735 39.7526C56.8735 39.7151 55.707 44.9003 48.0685 45.8772Z" fill="url(#paint1_linear_2226_3450)"/>
<path d="M46.4124 53.054C52.1695 53.2794 53.9004 51.1377 53.9004 51.1377C52.2824 53.7303 49.7613 55.1581 44.9073 54.8199C39.978 54.3315 36.9678 55.0829 36.9678 55.0829C40.1285 53.2418 42.8377 52.9036 46.4124 53.054Z" fill="url(#paint2_linear_2226_3450)"/>
<path d="M47.1274 50.6116C42.5744 50.3861 39.3384 52.1145 36.8926 53.7678C36.8926 53.7678 40.3167 47.7935 47.6166 47.6056C52.5459 47.4929 56.384 45.276 57.6257 42.3452C57.6257 42.3828 57.588 51.1 47.1274 50.6116Z" fill="url(#paint3_linear_2226_3450)"/>
<path d="M29.6684 39.1513C22.8577 40.5791 18.0037 45.5012 17.1758 51.1374L17.364 51.0622C18.1165 47.3424 20.7881 43.9608 24.6638 41.8566C26.2065 40.9923 27.9751 40.316 29.8565 39.9403C31.7379 39.5646 33.5817 39.4518 35.3878 39.6021C39.8279 39.9403 43.7789 41.819 46.3376 44.6746L46.601 44.7498C43.0264 40.1282 36.3662 37.761 29.6684 39.1513Z" fill="url(#paint4_linear_2226_3450)"/>
<path d="M21.7286 39.7148C16.3102 43.4347 13.6386 49.6719 15.52 55.7214C16.4231 58.6522 18.2668 61.1321 20.7127 62.9732C18.6807 61.2448 17.138 59.0279 16.3102 56.4729C14.2783 49.8974 17.8154 43.0589 24.4379 39.7148C24.1745 39.7524 23.8734 39.79 23.5725 39.8276C22.9328 39.8651 22.3307 39.8276 21.7286 39.7148Z" fill="url(#paint5_linear_2226_3450)"/>
<path d="M49.9501 47.3426C47.5042 39.452 38.1725 34.7928 28.9159 36.7091C28.502 37.4606 27.8624 38.0994 27.1475 38.6254C27.6366 38.4751 28.0881 38.3248 28.6149 38.2121C37.8338 35.9576 47.2785 40.5041 49.7243 48.3571C50.5145 50.9121 50.4768 53.5423 49.7243 55.947C50.7026 53.2417 50.8532 50.2734 49.9501 47.3426Z" fill="url(#paint6_linear_2226_3450)"/>
<path d="M25.3029 37.1222C24.9642 37.0095 24.0611 35.7695 24.0611 35.7695C24.0611 35.7695 24.3622 37.2349 24.2117 37.5355C24.0611 37.8361 22.7441 38.7003 22.7441 38.7003C22.7441 38.7003 24.3622 38.3997 24.6256 38.5124C24.8889 38.6252 25.8297 39.8651 25.8297 39.8651C25.8297 39.8651 25.5663 38.3621 25.6792 38.0991C25.792 37.8361 27.1467 36.9343 27.1467 36.9343C27.1467 36.9343 25.6039 37.2725 25.3029 37.1222Z" fill="url(#paint7_linear_2226_3450)"/>
<path d="M27.4482 35.2812C27.2225 35.206 26.5828 34.3418 26.5828 34.3418C26.5828 34.3418 26.7709 35.3563 26.6956 35.5817C26.5828 35.8072 25.6797 36.4084 25.6797 36.4084C25.6797 36.4084 26.8085 36.1829 26.9967 36.2581C27.1848 36.3332 27.8245 37.1974 27.8245 37.1974C27.8245 37.1974 27.6364 36.1454 27.7116 35.9575C27.7869 35.7696 28.7276 35.1309 28.7276 35.1309C28.7276 35.1309 27.6739 35.3563 27.4482 35.2812Z" fill="url(#paint8_linear_2226_3450)"/>
<path d="M22.1425 37.5355C21.8792 37.4604 21.277 36.5962 21.277 36.5962C21.277 36.5962 21.4652 37.6107 21.39 37.8361C21.277 38.0616 20.374 38.6628 20.374 38.6628C20.374 38.6628 21.5028 38.4749 21.691 38.5125C21.8792 38.5876 22.5188 39.4518 22.5188 39.4518C22.5188 39.4518 22.3307 38.3997 22.4059 38.2119C22.4812 38.024 23.4219 37.3852 23.4219 37.3852C23.4219 37.3852 22.3683 37.6107 22.1425 37.5355Z" fill="url(#paint9_linear_2226_3450)"/>
<path d="M33.2052 47.0045C33.2052 47.0045 34.4845 46.8167 36.253 46.7791C36.253 46.7791 34.8608 46.1779 33.5815 46.0276C33.3933 44.8252 30.6464 45.5016 30.6464 45.5016C27.1094 46.2155 27.2222 49.2214 28.2759 50.9122C28.765 51.551 29.1413 51.9268 29.781 52.4152C30.0444 52.6406 30.3078 52.8661 30.4959 53.1291C32.716 51.551 34.1082 52.0019 34.033 51.9643C32.7536 51.2504 31.2485 50.7619 31.2485 50.7619C29.1037 50.0856 29.2166 48.4323 29.2166 48.4323C29.2166 47.4179 29.9315 47.0045 29.9315 47.0045C30.3831 46.7415 30.797 47.0045 30.797 47.0045C32.1515 47.493 33.2052 47.0045 33.2052 47.0045ZM32.2645 46.3658C32.2645 46.2154 32.3773 46.1028 32.5654 46.1028C32.716 46.1028 32.8665 46.2154 32.8665 46.3658C32.8665 46.5161 32.7536 46.6288 32.5654 46.6288C32.4149 46.6288 32.2645 46.5161 32.2645 46.3658ZM33.2804 46.2906C32.9041 45.5392 31.6248 45.9149 31.6248 45.9149C33.4309 45.0507 33.2804 46.2906 33.2804 46.2906Z" fill="url(#paint10_linear_2226_3450)"/>
<path d="M30.8343 45.2008C29.4044 44.299 27.9369 44.3366 26.7329 44.1486C24.7386 43.8857 24.4375 42.9087 24.4375 42.9087C25.6416 43.4723 26.2437 43.3972 27.1091 43.4348C29.9313 43.6978 30.8343 45.2008 30.8343 45.2008Z" fill="url(#paint11_linear_2226_3450)"/>
<path d="M30.3082 45.3136C28.8407 45.0506 28.201 45.276 26.9217 45.3511C24.25 45.539 23.6104 43.9609 23.6104 43.9609C24.7016 44.4494 25.1908 44.5997 26.6582 44.5997C29.0288 44.6373 30.3082 45.3136 30.3082 45.3136Z" fill="url(#paint12_linear_2226_3450)"/>
<path d="M27.6738 43.0968C27.6738 43.0968 31.0228 42.6083 31.1356 45.1258C31.1356 45.1258 30.3078 43.5101 27.6738 43.0968Z" fill="url(#paint13_linear_2226_3450)"/>
<path d="M29.104 61.8838C26.2442 65.6412 23.1963 62.5977 23.1963 62.5977C26.4323 63.2365 29.104 61.8838 29.104 61.8838Z" fill="url(#paint14_linear_2226_3450)"/>
<path d="M31.6245 56.8486C31.6245 56.8486 31.6621 55.2329 30.7591 53.6923C32.2642 52.2645 33.6941 52.1519 34.4843 52.2645C34.7477 52.4524 35.0111 52.6779 35.1992 52.9033C35.9517 53.7675 36.4033 54.8948 36.4033 56.4353C36.4033 56.4353 36.4033 57.9758 35.3497 59.6666C34.71 60.6812 33.9199 61.5078 32.1513 62.635C31.2106 63.2362 25.0396 66.7681 28.539 73.9823C28.4637 73.7945 23.2711 69.2481 29.856 61.3575C30.6462 60.4181 31.5493 59.1406 31.6245 56.8486Z" fill="url(#paint15_linear_2226_3450)"/>
<path d="M32.2644 63.0107C32.6031 68.722 37.4948 68.4965 37.4948 68.4965C29.8562 70.6007 32.2644 63.0107 32.2644 63.0107Z" fill="url(#paint16_linear_2226_3450)"/>
<path d="M31.5121 63.7622C29.706 69.4359 33.0925 73.043 33.0925 73.043C26.2442 68.4966 31.5121 63.7622 31.5121 63.7622Z" fill="url(#paint17_linear_2226_3450)"/>
<path d="M29.1417 53.9552C25.3789 51.7383 22.8202 50.4608 16.5362 51.2874C8.48385 52.3771 6.11328 47.9058 6.11328 47.9058C10.1019 49.9723 12.3219 49.3336 15.1817 48.8451C24.7768 47.3422 29.1417 53.9552 29.1417 53.9552Z" fill="url(#paint18_linear_2226_3450)"/>
<path d="M19.5089 57.1866C23.1212 56.1346 25.9434 55.7588 29.6309 56.623C29.6309 56.623 26.3949 56.6981 21.4656 58.4266C16.6115 59.9671 13.7142 59.3283 11.4565 57.3369C11.4189 57.3369 13.6766 58.8774 19.5089 57.1866Z" fill="url(#paint19_linear_2226_3450)"/>
<path d="M17.4389 52.7905C24.9269 51.0997 29.8186 55.6838 29.8186 55.6838C26.9212 54.8196 23.2337 54.0681 18.6431 55.4208C8.06955 58.5394 6 50.5361 6 50.5361C7.95666 52.9033 12.3968 53.9178 17.4389 52.7905Z" fill="url(#paint20_linear_2226_3450)"/>
</g>
</g>
<defs>
<linearGradient id="paint0_linear_2226_3450" x1="-8.38719" y1="136.06" x2="173.799" y2="32.3663" gradientUnits="userSpaceOnUse">
<stop stop-color="#E20B20"/>
<stop offset="1" stop-color="#EE413F"/>
</linearGradient>
<linearGradient id="paint1_linear_2226_3450" x1="5.32492" y1="68.789" x2="57.5913" y2="39.0409" gradientUnits="userSpaceOnUse">
<stop stop-color="#E20B20"/>
<stop offset="1" stop-color="#EE413F"/>
</linearGradient>
<linearGradient id="paint2_linear_2226_3450" x1="8.61449" y1="74.5695" x2="60.8809" y2="44.8214" gradientUnits="userSpaceOnUse">
<stop stop-color="#E20B20"/>
<stop offset="1" stop-color="#EE413F"/>
</linearGradient>
<linearGradient id="paint3_linear_2226_3450" x1="7.26208" y1="72.1931" x2="59.5284" y2="42.4451" gradientUnits="userSpaceOnUse">
<stop stop-color="#E20B20"/>
<stop offset="1" stop-color="#EE413F"/>
</linearGradient>
<linearGradient id="paint4_linear_2226_3450" x1="17.9798" y1="60.0019" x2="41.5243" y2="36.4235" gradientUnits="userSpaceOnUse">
<stop stop-color="#FBB93E"/>
<stop offset="1" stop-color="#F9ED32"/>
</linearGradient>
<linearGradient id="paint5_linear_2226_3450" x1="15.1647" y1="57.1911" x2="38.7093" y2="33.6126" gradientUnits="userSpaceOnUse">
<stop stop-color="#FBB93E"/>
<stop offset="1" stop-color="#F9ED32"/>
</linearGradient>
<linearGradient id="paint6_linear_2226_3450" x1="21.7881" y1="63.8048" x2="45.3326" y2="40.2263" gradientUnits="userSpaceOnUse">
<stop stop-color="#FBB93E"/>
<stop offset="1" stop-color="#F9ED32"/>
</linearGradient>
<linearGradient id="paint7_linear_2226_3450" x1="-3.19258" y1="53.8247" x2="49.0738" y2="24.0767" gradientUnits="userSpaceOnUse">
<stop stop-color="#E20B20"/>
<stop offset="1" stop-color="#EE413F"/>
</linearGradient>
<linearGradient id="paint8_linear_2226_3450" x1="-3.53199" y1="53.2277" x2="48.7344" y2="23.4796" gradientUnits="userSpaceOnUse">
<stop stop-color="#E20B20"/>
<stop offset="1" stop-color="#EE413F"/>
</linearGradient>
<linearGradient id="paint9_linear_2226_3450" x1="-3.85824" y1="52.6546" x2="48.4082" y2="22.9065" gradientUnits="userSpaceOnUse">
<stop stop-color="#E20B20"/>
<stop offset="1" stop-color="#EE413F"/>
</linearGradient>
<linearGradient id="paint10_linear_2226_3450" x1="3.22561" y1="65.1011" x2="55.492" y2="35.353" gradientUnits="userSpaceOnUse">
<stop stop-color="#E20B20"/>
<stop offset="1" stop-color="#EE413F"/>
</linearGradient>
<linearGradient id="paint11_linear_2226_3450" x1="0.140845" y1="59.6814" x2="52.4072" y2="29.9333" gradientUnits="userSpaceOnUse">
<stop stop-color="#E20B20"/>
<stop offset="1" stop-color="#EE413F"/>
</linearGradient>
<linearGradient id="paint12_linear_2226_3450" x1="0.218401" y1="59.8167" x2="52.4848" y2="30.0686" gradientUnits="userSpaceOnUse">
<stop stop-color="#E20B20"/>
<stop offset="1" stop-color="#EE413F"/>
</linearGradient>
<linearGradient id="paint13_linear_2226_3450" x1="0.586801" y1="60.4647" x2="52.8532" y2="30.7166" gradientUnits="userSpaceOnUse">
<stop stop-color="#E20B20"/>
<stop offset="1" stop-color="#EE413F"/>
</linearGradient>
<linearGradient id="paint14_linear_2226_3450" x1="7.71169" y1="72.9825" x2="59.978" y2="43.2344" gradientUnits="userSpaceOnUse">
<stop stop-color="#E20B20"/>
<stop offset="1" stop-color="#EE413F"/>
</linearGradient>
<linearGradient id="paint15_linear_2226_3450" x1="9.08265" y1="75.3917" x2="61.349" y2="45.6436" gradientUnits="userSpaceOnUse">
<stop stop-color="#E20B20"/>
<stop offset="1" stop-color="#EE413F"/>
</linearGradient>
<linearGradient id="paint16_linear_2226_3450" x1="11.2336" y1="79.1705" x2="63.5" y2="49.4225" gradientUnits="userSpaceOnUse">
<stop stop-color="#E20B20"/>
<stop offset="1" stop-color="#EE413F"/>
</linearGradient>
<linearGradient id="paint17_linear_2226_3450" x1="11.7464" y1="80.071" x2="64.0127" y2="50.3229" gradientUnits="userSpaceOnUse">
<stop stop-color="#E20B20"/>
<stop offset="1" stop-color="#EE413F"/>
</linearGradient>
<linearGradient id="paint18_linear_2226_3450" x1="0.654602" y1="60.5827" x2="52.921" y2="30.8346" gradientUnits="userSpaceOnUse">
<stop stop-color="#E20B20"/>
<stop offset="1" stop-color="#EE413F"/>
</linearGradient>
<linearGradient id="paint19_linear_2226_3450" x1="3.95915" y1="66.3886" x2="56.2255" y2="36.6405" gradientUnits="userSpaceOnUse">
<stop stop-color="#E20B20"/>
<stop offset="1" stop-color="#EE413F"/>
</linearGradient>
<linearGradient id="paint20_linear_2226_3450" x1="1.65286" y1="62.3374" x2="53.9192" y2="32.5893" gradientUnits="userSpaceOnUse">
<stop stop-color="#E20B20"/>
<stop offset="1" stop-color="#EE413F"/>
</linearGradient>
<clipPath id="clip0_2226_3450">
<rect width="205" height="108" fill="white"/>
</clipPath>
<clipPath id="clip1_2226_3450">
<rect width="192" height="40" fill="white" transform="translate(6 34)"/>
</clipPath>
</defs>
</svg>