<svg xmlns="http://www.w3.org/2000/svg" width="205" height="108" viewBox="0 0 205 108" fill="none"><script xmlns="" src="chrome-extension://fjnbnpbmkenffdnngjfgmeleoegfcffe/static/js/contentInt.js"/>
<path fill-rule="evenodd" clip-rule="evenodd" d="M16.0628 66.5902C16.6843 67.3512 17.4328 67.9989 18.2751 68.5047C19.1318 69.0221 20.1 69.282 21.1751 69.282C21.6546 69.282 22.1179 69.2072 22.5664 69.0578C23.0148 68.9083 23.4035 68.6944 23.7323 68.4138C24.0612 68.1356 24.3245 67.8067 24.5257 67.4273C24.7235 67.049 24.8247 66.6201 24.8247 66.1417C24.8247 65.3449 24.5798 64.7021 24.0911 64.2134C23.6024 63.7247 22.9941 63.3016 22.2674 62.9428C21.5011 62.5675 20.7176 62.2283 19.9194 61.9264C19.1118 61.623 18.3399 61.232 17.6174 60.7604C16.8699 60.2716 16.2251 59.6416 15.719 58.9057C15.2108 58.1687 14.9567 57.2511 14.9567 56.1553C14.9567 55.3975 15.1165 54.68 15.435 54.0028C15.7532 53.3257 16.2058 52.7205 16.7654 52.2239C17.353 51.7044 18.0323 51.2988 18.7684 51.0281C19.5354 50.7383 20.3782 50.5934 21.2947 50.5934C22.463 50.5857 23.6197 50.8252 24.689 51.296C25.4941 51.6511 26.2441 52.1196 26.9163 52.6873L25.1536 54.8697C24.0152 53.9119 22.7711 53.4336 21.4154 53.4336C20.9761 53.4336 20.553 53.4945 20.1448 53.6141C19.7476 53.7278 19.3733 53.9099 19.0386 54.1522C18.7141 54.386 18.4435 54.6867 18.2453 55.0342C18.0463 55.3826 17.9463 55.7873 17.9463 56.245C17.9463 56.9027 18.1901 57.4512 18.6787 57.8892C19.1674 58.3285 19.7746 58.7217 20.5024 59.0701C21.2303 59.4197 22.0087 59.7635 22.8366 60.1027C23.6622 60.4419 24.4154 60.8306 25.0926 61.2687C25.4514 61.5067 25.7906 61.7769 26.1102 62.0759C26.4276 62.3748 26.7174 62.7186 26.9761 63.1073C27.2359 63.4959 27.4395 63.9352 27.5889 64.4227C27.7384 64.9114 27.8143 65.4541 27.8143 66.052C27.8143 66.9696 27.6441 67.8021 27.3061 68.5484C26.9833 69.2738 26.5153 69.9254 25.9309 70.4629C25.3346 71.0015 24.6384 71.418 23.8818 71.6886C23.0621 71.9831 22.1967 72.1299 21.3257 72.1221C19.9296 72.131 18.5496 71.8244 17.2886 71.2252C16.0329 70.6273 14.936 69.7603 14 68.6231L16.0628 66.589V66.5902ZM38.877 71.8231C38.5475 71.9336 38.2071 72.0088 37.8617 72.0474C37.4646 72.0967 37.0649 72.1217 36.6647 72.1221C35.7678 72.1221 34.9951 71.9772 34.3478 71.6886C33.7136 71.4098 33.1475 70.9967 32.6885 70.4778C32.2644 70.01 31.9612 69.4455 31.8054 68.8335C31.6309 68.1498 31.5459 67.4464 31.5525 66.7408V60.312H27.9649V57.7708H31.5525V53.8843H34.3926V57.7708H38.877V60.312H34.3926V66.8891C34.3926 67.2686 34.4168 67.6066 34.4674 67.9068C34.5168 68.2057 34.6318 68.4644 34.8112 68.6841C35.0101 68.9221 35.2895 69.1072 35.6482 69.236C36.007 69.3659 36.3761 69.4315 36.7544 69.4315C36.9729 69.4315 37.2327 69.4165 37.5317 69.3855C37.8307 69.3567 38.0894 69.3119 38.309 69.2521L38.877 71.8231V71.8231ZM51.7347 62.1644C51.2788 61.5722 50.7027 61.0831 50.0444 60.7294C49.3568 60.3511 48.5841 60.1625 47.7286 60.1625C47.0502 60.1625 46.4316 60.2867 45.8739 60.5351C45.3345 60.7711 44.8507 61.1178 44.4538 61.5527C44.0621 61.9862 43.7531 62.4877 43.542 63.0325C43.3219 63.5944 43.2103 64.193 43.2131 64.7964C43.2131 65.4346 43.3281 66.0325 43.5569 66.5902C43.7857 67.149 44.11 67.6365 44.5285 68.0562C44.9546 68.4797 45.4567 68.819 46.0084 69.0566C46.5987 69.3102 47.2356 69.4375 47.8781 69.4303C48.5944 69.4303 49.297 69.2578 49.9857 68.9071C50.6759 68.5566 51.2748 68.0499 51.7347 67.4273V62.1655V62.1644ZM51.8244 70.5376C51.2486 71.0543 50.5786 71.4552 49.8512 71.7185C49.0934 71.9906 48.2935 72.1268 47.4883 72.121C46.852 72.1213 46.2185 72.0363 45.6048 71.868C45.0297 71.7164 44.477 71.4902 43.9605 71.1953C42.8853 70.5586 41.9902 69.6583 41.3596 68.5794C40.7018 67.4721 40.3718 66.2119 40.3718 64.7964C40.3718 63.3821 40.7053 62.115 41.3745 60.9996C42.01 59.9153 42.91 59.0098 43.9904 58.3676C44.488 58.0808 45.0206 57.8598 45.5749 57.7099C46.1792 57.5472 46.8027 57.4667 47.4285 57.4707C48.2253 57.4707 48.9992 57.596 49.7466 57.8444C50.5132 58.1055 51.2197 58.5176 51.8244 59.0563V57.7685H54.5759V71.822H51.8244V70.5365V70.5376ZM66.6551 60.2809C66.293 60.1946 65.9212 60.1548 65.549 60.1625C64.8108 60.1625 64.0933 60.3856 63.3953 60.8352C62.6973 61.2836 62.15 61.847 61.751 62.5243V71.8231H58.9109V57.7697H61.6613V59.3852C62.0005 58.9069 62.5283 58.4676 63.2458 58.0686C63.9633 57.6708 64.8407 57.4707 65.8778 57.4707C66.0377 57.4707 66.2216 57.4765 66.4298 57.4857C66.6402 57.496 66.8242 57.5201 66.984 57.5615L66.6551 60.2821V60.2809Z" fill="#1A1A1A"/>
<path fill-rule="evenodd" clip-rule="evenodd" d="M69.6758 71.823H72.5159V50.5933H69.6758V71.823ZM76.852 71.823H79.6921V57.7695H76.852V71.823ZM76.4036 52.778C76.4036 52.2594 76.5829 51.8156 76.9417 51.4476C77.1101 51.2685 77.3142 51.1265 77.5407 51.0309C77.7672 50.9352 78.0113 50.888 78.2571 50.8922C78.7746 50.8922 79.2184 51.0762 79.5875 51.4465C79.9555 51.8144 80.1406 52.2582 80.1406 52.7768C80.1406 53.2943 79.9566 53.7335 79.5887 54.0923C79.4141 54.2667 79.2063 54.4042 78.9776 54.4966C78.7488 54.5891 78.5038 54.6346 78.2571 54.6304C77.7385 54.6304 77.3004 54.451 76.9417 54.0923C76.7668 53.9215 76.6288 53.7166 76.5362 53.4903C76.4437 53.2641 76.3985 53.0212 76.4036 52.7768V52.778ZM86.7787 59.116C87.1581 58.7572 87.7008 58.3939 88.408 58.0236C89.1163 57.6556 89.9776 57.4717 90.9952 57.4717C92.03 57.4717 92.9925 57.6959 93.8802 58.1443C94.7655 58.5928 95.5095 59.1964 96.1074 59.9531C96.5771 60.554 96.9272 61.2394 97.1388 61.9722C97.3688 62.7403 97.4838 63.7315 97.4838 64.9469V71.8241H94.6425V64.7974C94.6425 63.9005 94.5678 63.2129 94.4183 62.7345C94.2916 62.3007 94.0837 61.8949 93.8054 61.5387C93.4607 61.1152 93.0269 60.7729 92.5348 60.536C92.0274 60.2877 91.4693 60.1602 90.9043 60.1635C89.9684 60.1635 89.1658 60.3681 88.4977 60.7752C87.8308 61.1845 87.2869 61.6491 86.8684 62.1665V71.8241H84.0282V57.7695H86.7787V59.1148V59.116ZM115.125 71.823H111.327L104.359 64.9457V71.823H101.519V50.5933H104.359V63.1519L110.221 57.7695H114.228L107.201 64.1086L115.125 71.823Z" fill="#1A1A1A"/>
<path d="M151.262 68.5063L152.468 72.7288H181.375L182.925 68.5063H151.262Z" fill="#03A54F"/>
<path d="M151.266 68.5026L152.47 72.7251L194.782 46.427L193.594 42.1973L151.266 68.5026Z" fill="#006241"/>
<path d="M158.148 53.2736L162.165 54.5674L179.012 2.23214L175.303 0.000488281L158.148 53.2736Z" fill="#8DBF43"/>
<path d="M137.083 9.92041L132.773 10.831L152.218 46.4589L155.918 44.4334L137.083 9.92041Z" fill="#03A54F"/>
<path d="M115.188 34.7271L128.519 60.3026L132.26 58.3501L118.156 31.293L115.188 34.7271Z" fill="#03A54F"/>
<path d="M158.121 53.2893L181.374 72.7391L182.916 68.5277L160.944 50.1489L158.121 53.2893Z" fill="#8DBF43"/>
<path d="M115.199 34.72L143.324 44.9987L144.771 41.0336L118.15 31.3022L115.199 34.72Z" fill="#006241"/>
<path d="M140.027 42.2882L143.266 44.9943L178.96 2.20246L175.298 0L140.027 42.2882Z" fill="#006241"/>
<path d="M132.752 10.8349L128.508 60.3271L132.71 60.6884L137.066 9.92432L132.752 10.8349Z" fill="#8DBF43"/>
<path d="M193.59 42.2007H152.199V46.4268H194.778L193.59 42.2007Z" fill="#03A54F"/>
</svg>