<svg xmlns="http://www.w3.org/2000/svg" width="205" height="108" viewBox="0 0 205 108" fill="none"><script xmlns="" src="chrome-extension://fjnbnpbmkenffdnngjfgmeleoegfcffe/static/js/contentInt.js"/>
<path fill-rule="evenodd" clip-rule="evenodd" d="M14.8945 47.2384V49.2017H23.8464V68.4911H25.0436V47.2384H14.8945V47.2384ZM27.0608 43.9672H14.8945V45.9295H26.4206V68.4911H27.7011V45.9295H39.2262V43.9672H27.0608V43.9672ZM14.8945 53.7809V55.7376H18.6649V68.4911H19.9084V53.7809H14.8945ZM14.8945 50.5097V52.4721H21.2609V52.5128H21.2798V68.4921H22.4713V50.5097H14.8945ZM14.8945 57.0531V59.0164H16.1703V68.4873H17.3873V57.0531H14.8945ZM29.0781 47.2384V68.4911H30.2743V49.2017H39.2262V47.2384H29.0781V47.2384ZM34.2123 53.7809V68.4911H35.4559V55.7376H39.2262V53.7809H34.2152H34.2123ZM31.6457 50.5097V68.4911H32.8419V52.5118H32.8599V52.4721H39.2262V50.5097H31.6495H31.6457ZM36.7354 57.0531V68.4911H37.9514V59.0202H39.2262V57.0569H36.7354V57.0531ZM77.626 43.9672H51.3916V47.4714H63.0758V68.4892H66.5867V47.4733H77.9868V43.9691H77.625L77.626 43.9672ZM105.012 43.9672H81.4986V68.5726H81.8614L105.012 68.5214H105.373V64.7842H85.0104V58.344H103.313L103.019 54.5983H85.0104V47.5633H105.373V43.9719H105.012V43.9672ZM108.885 43.953V68.5773H112.398V62.2318L120.387 55.8115L130.593 68.4391L130.703 68.5726H135.197L134.723 67.9835L134.171 67.3016L123.111 53.6086L134.105 44.7675L135.081 43.9644H129.519L129.424 44.0429L112.4 57.7511V43.9482H108.889L108.885 43.953ZM163.757 43.9719H137.523V47.4761H149.208V68.5726H152.722V47.4733H164.116V43.9691H163.754L163.757 43.9719ZM174.495 48.4943C174.604 48.2612 174.777 48.0639 174.993 47.9257C175.21 47.7875 175.462 47.714 175.719 47.714C175.976 47.714 176.228 47.7875 176.445 47.9257C176.661 48.0639 176.834 48.2612 176.943 48.4943L181.09 57.3344H170.346L174.495 48.4943ZM171.671 46.5499L171.368 47.1987L166.513 57.5419L165.093 60.5649L161.613 67.9826L161.329 68.5773H165.063L165.202 68.2875L168.585 61.0801H182.844L186.227 68.2875L186.371 68.5726H190.106L189.822 67.9778L186.341 60.5602L184.92 57.5371L180.067 47.1939L179.762 46.5452C179.404 45.7736 178.833 45.1206 178.116 44.663C177.399 44.2053 176.566 43.9622 175.715 43.9622C174.865 43.9622 174.032 44.2053 173.315 44.663C172.598 45.1206 172.026 45.7736 171.668 46.5452" fill="#1D3D88"/>
</svg>