<svg xmlns="http://www.w3.org/2000/svg" width="205" height="108" viewBox="0 0 205 108" fill="none"><script xmlns="" src="chrome-extension://fjnbnpbmkenffdnngjfgmeleoegfcffe/static/js/contentInt.js"/>
<path fill-rule="evenodd" clip-rule="evenodd" d="M71.8314 58.3711V58.4121V58.4249C71.738 58.7438 71.6965 59.0757 71.7085 59.4078C71.7021 59.877 71.7801 60.3434 71.9389 60.7849C72.1222 61.3245 72.4749 61.7905 72.9444 62.1133C73.414 62.4362 73.9753 62.5988 74.5447 62.5768C74.9675 62.5981 75.3898 62.5254 75.7811 62.3638C76.1724 62.2022 76.523 61.9559 76.8076 61.6425H79.5721C78.2103 64.8626 75.1028 64.8985 74.6267 64.8985C70.9585 64.8985 69.2282 61.878 69.2282 59.5384C69.2282 57.1987 70.979 54.0298 74.6625 54.0298C77.7777 54.0298 79.9151 56.4231 79.9151 59.4641C79.9223 59.8113 79.9052 60.1586 79.8639 60.5034H73.0063V58.4121H77.3579V58.3711C77.2059 57.7784 76.8567 57.255 76.3678 56.887C75.8789 56.519 75.2793 56.3283 74.6676 56.3464C74.0401 56.3347 73.4256 56.5253 72.9148 56.8899C72.4041 57.2545 72.0242 57.7739 71.8314 58.3711ZM173.215 54.572C173.878 54.2995 174.588 54.1621 175.304 54.168L175.299 54.1501C176.72 54.1809 178.073 54.7671 179.067 55.7832C180.061 56.7992 180.618 58.1642 180.618 59.5857C180.618 61.0072 180.061 62.3722 179.067 63.3882C178.073 64.4042 176.72 64.9905 175.299 65.0213H175.271H173.735V62.7175H175.299C177.104 62.7175 178.263 61.2815 178.263 59.6228C178.263 57.9641 177.137 56.505 175.312 56.505C173.487 56.505 172.345 57.9794 172.345 59.6382H172.327V59.6535V66.0529V68.116H169.885V59.6228C169.875 58.9066 170.007 58.1954 170.276 57.5312C170.544 56.8669 170.942 56.263 171.447 55.7548C171.952 55.2466 172.553 54.8445 173.215 54.572ZM119.026 54.168C116.41 54.168 114.531 55.6808 113.865 57.8899H116.63C117.275 56.5819 118.639 56.4897 119.062 56.4897C120.295 56.4897 121.532 57.0989 121.954 58.517H117.736V60.6903H121.949C121.58 61.8524 120.587 62.7176 119.021 62.7176C118.486 62.7176 117.27 62.6254 116.625 61.3916H113.86C114.628 63.5648 116.42 65.0393 118.928 65.0393C122.686 65.0393 124.547 62.1109 124.547 59.5307C124.547 57.0989 122.778 54.1552 119.021 54.1552L119.026 54.168ZM104.422 55.0744C105.318 54.4799 106.37 54.1645 107.445 54.168C108.162 54.1622 108.872 54.2995 109.534 54.572C110.197 54.8445 110.798 55.2467 111.303 55.7548C111.808 56.263 112.206 56.867 112.474 57.5312C112.742 58.1955 112.875 58.9066 112.864 59.6229C112.861 60.6982 112.538 61.7483 111.938 62.6404C111.338 63.5325 110.486 64.2266 109.492 64.6348C108.497 65.043 107.403 65.1471 106.349 64.9338C105.295 64.7205 104.328 64.1995 103.57 63.4367C102.813 62.6738 102.298 61.7034 102.092 60.648C101.885 59.5927 101.997 58.4999 102.411 57.5078C102.826 56.5157 103.526 55.6688 104.422 55.0744ZM104.481 59.6229C104.481 61.2816 105.654 62.7176 107.445 62.7176C109.253 62.7176 110.412 61.2816 110.412 59.6229C110.412 57.9641 109.268 56.4897 107.445 56.4897C105.623 56.4897 104.481 57.9641 104.481 59.6229ZM63.5382 56.674H61.0859V54.5008H68.4375V56.674H65.9878V64.709H63.5382V56.674ZM87.3207 54.5008H90.1748L86.9342 59.4744L90.4896 64.709H87.4666L85.4034 61.4095L83.3403 64.709H80.3198L83.7652 59.4744L80.5937 54.5008H83.4504L85.3855 57.5597L87.3207 54.5008ZM98.1049 58.2585H94.3088V54.5008H91.8591V64.709H94.3088V60.4343H98.1049V64.709H100.557V54.5008H98.1049V58.2585ZM132.198 54.5008H135.109L131.039 59.2926L135.331 64.709H132.234L128.551 59.8071V64.709H126.098V54.5008H128.551V59.18L132.198 54.5008ZM140.691 56.4897C141.761 56.4897 142.627 56.9504 143.105 57.8898H145.87C145.186 55.6808 143.31 54.1705 140.73 54.1705C136.916 54.1705 135.183 57.1552 135.183 59.5306C135.183 62.0725 136.988 65.0392 140.814 65.0392C143.359 65.0392 145.11 63.5469 145.865 61.3916H143.1C142.419 62.6433 141.111 62.7175 140.686 62.7175C138.808 62.7175 137.615 61.3173 137.615 59.569C137.615 57.9282 138.72 56.4973 140.686 56.4973L140.691 56.4897ZM149.855 64.709H147.406V54.5008H156.101V64.709H153.651V56.674H149.855V64.709ZM163.143 54.168C162.068 54.164 161.015 54.479 160.119 55.0731C159.222 55.6673 158.522 56.5139 158.107 57.506C157.692 58.498 157.58 59.5909 157.786 60.6464C157.992 61.7019 158.507 62.6726 159.265 63.4357C160.022 64.1989 160.989 64.7201 162.043 64.9336C163.097 65.1471 164.191 65.0431 165.186 64.635C166.181 64.2268 167.033 63.5328 167.633 62.6406C168.234 61.7485 168.556 60.6983 168.56 59.6228C168.57 58.9068 168.438 58.1959 168.17 57.5318C167.902 56.8677 167.504 56.2639 166.999 55.7557C166.495 55.2476 165.893 54.8454 165.231 54.5727C164.569 54.3001 163.859 54.1625 163.143 54.168ZM163.143 62.7176C161.351 62.7176 160.176 61.2815 160.176 59.6228C160.176 57.9641 161.321 56.4897 163.143 56.4897C164.966 56.4897 166.11 57.9641 166.11 59.6228C166.11 61.2815 164.95 62.7176 163.143 62.7176ZM181.294 54.5008V56.674H183.744V64.709H186.196V56.674H188.645V54.5008H181.294Z" fill="#323E48"/>
<path fill-rule="evenodd" clip-rule="evenodd" d="M27.8966 38.459C33.5613 32.1518 40.3498 28.3838 45.7585 29.1978C53.9625 30.4316 55.8925 41.7329 50.0691 54.4369C49.1664 56.4069 48.1263 58.3109 46.9565 60.1349L33.0903 60.0888L41.9701 44.3976H47.8217L51.0981 38.6023V38.459H27.8966ZM26.6221 60.8465C26.627 61.7559 26.8723 62.6478 27.3331 63.4319H27.3383C27.7913 64.2207 28.4446 64.8759 29.232 65.3312C30.0195 65.7865 30.9133 66.0258 31.8229 66.0249L42.4433 66.0581C36.7965 72.2988 30.0541 76.0181 24.6787 75.2092C16.4696 73.9754 14.5395 62.6767 20.363 49.9702C21.2462 48.0453 22.2605 46.1834 23.3988 44.3976H35.1455L27.305 58.2535C26.8527 59.0425 26.6171 59.937 26.6221 60.8465Z" fill="#206764"/>
<path d="M51.4493 30.0427C51.4465 29.8177 51.5011 29.5957 51.608 29.3977C51.7112 29.2053 51.8653 29.045 52.0534 28.9344C52.2387 28.8221 52.4511 28.7627 52.6678 28.7627C52.8844 28.7627 53.0969 28.8221 53.2821 28.9344C53.4709 29.0464 53.6251 29.2085 53.7275 29.4028C53.8324 29.5997 53.8869 29.8196 53.8862 30.0427C53.8874 30.2628 53.8346 30.4799 53.7326 30.675C53.6311 30.8702 53.4791 31.0347 53.2923 31.1511C53.106 31.2702 52.8889 31.3324 52.6678 31.3303C52.4478 31.3318 52.232 31.2706 52.0457 31.1536C51.8592 31.0381 51.7071 30.8746 51.6055 30.6801C51.5011 30.484 51.4475 30.2649 51.4493 30.0427V30.0427ZM51.6464 30.0427C51.6454 30.2338 51.692 30.422 51.7821 30.5905C51.8696 30.7535 51.9996 30.8897 52.1584 30.9847C52.3124 31.0793 52.4896 31.1294 52.6703 31.1294C52.8511 31.1294 53.0283 31.0793 53.1823 30.9847C53.3391 30.889 53.4673 30.7528 53.5534 30.5905C53.6453 30.4227 53.692 30.234 53.6891 30.0427C53.6916 29.8539 53.6449 29.6678 53.5534 29.5026C53.4682 29.3403 53.3398 29.2048 53.1823 29.111C53.0284 29.0162 52.851 28.9665 52.6703 28.9676C52.49 28.9667 52.3129 29.0154 52.1584 29.1084C52.0009 29.2031 51.8718 29.3383 51.7846 29.5001C51.694 29.6666 51.6465 29.8531 51.6464 30.0427V30.0427ZM52.4143 30.1733V30.7569H52.1584V29.2978H52.6319C52.7771 29.2893 52.9211 29.3288 53.0415 29.4105C53.09 29.4495 53.1284 29.4997 53.1533 29.5567C53.1783 29.6138 53.1891 29.676 53.1848 29.7381C53.1849 29.8078 53.164 29.8759 53.1247 29.9334C53.0854 29.991 53.0296 30.0353 52.9647 30.0606C53.0334 30.0881 53.0913 30.1371 53.1296 30.2004C53.168 30.2637 53.1846 30.3377 53.1771 30.4113V30.5163C53.1737 30.5882 53.1833 30.6602 53.2053 30.7287V30.7569H52.9493C52.9303 30.6851 52.9225 30.6109 52.9263 30.5367C52.9263 30.4292 52.9263 30.3678 52.9263 30.3473C52.9084 30.2373 52.8316 30.1809 52.701 30.1758L52.4143 30.1733ZM52.4143 29.9531H52.6703C52.7413 29.9538 52.8108 29.9333 52.87 29.8943C52.8942 29.8774 52.914 29.8547 52.9274 29.8284C52.9408 29.802 52.9474 29.7728 52.9468 29.7432C52.9496 29.7107 52.9452 29.6779 52.9336 29.6473C52.9221 29.6167 52.9039 29.5892 52.8802 29.5666C52.8068 29.5262 52.7231 29.5084 52.6396 29.5154H52.4041L52.4143 29.9531Z" fill="#323E48"/>
<path fill-rule="evenodd" clip-rule="evenodd" d="M61.1038 48.8925V46.5708L65.7984 42.2192C66.51 41.5554 66.9639 41.0332 67.1602 40.6526C67.357 40.2723 67.4581 39.8497 67.4545 39.4214C67.4693 38.8669 67.2683 38.3282 66.894 37.9188C66.714 37.7339 66.4974 37.5885 66.2581 37.492C66.0188 37.3955 65.7619 37.3499 65.504 37.3582C65.1984 37.3483 64.8947 37.4106 64.6176 37.54C64.3405 37.6694 64.0979 37.8624 63.9093 38.1031C63.4976 38.6404 63.3137 39.318 63.3973 39.9897H60.9477C60.8862 38.505 61.2762 37.3105 62.1175 36.406C62.538 35.9548 63.0509 35.5996 63.6212 35.3646C64.1915 35.1296 64.8058 35.0203 65.4221 35.0442C66.6085 35.0175 67.7581 35.4568 68.6243 36.2678C69.4776 37.0716 69.9042 38.1364 69.9042 39.4624C69.8891 40.2906 69.6626 41.1012 69.2464 41.8173C68.6712 42.7419 67.9512 43.5681 67.1141 44.2644L64.5364 46.5836H69.9119V48.9053L61.1038 48.8925ZM71.0817 42.4062L72.3615 35.2645H78.6483L78.5203 37.5837H74.1943L73.7694 40.105C74.0259 39.9828 74.2944 39.8876 74.5706 39.8209C74.8633 39.7515 75.1632 39.7172 75.4639 39.7185C76.0592 39.7006 76.6509 39.8161 77.1957 40.0566C77.7405 40.2971 78.2246 40.6565 78.6124 41.1084C79.4211 42.0317 79.8549 43.2244 79.8283 44.4515C79.8463 45.0797 79.7372 45.705 79.5076 46.29C79.278 46.8751 78.9326 47.4077 78.4921 47.8559C78.0571 48.3031 77.534 48.655 76.9559 48.8894C76.3778 49.1238 75.7573 49.2356 75.1337 49.2177C74.5404 49.2405 73.9487 49.1421 73.3946 48.9287C72.8405 48.7152 72.3357 48.3912 71.911 47.9762C71.074 47.1418 70.5644 46.0345 70.475 44.8559H72.9221C72.9869 45.4142 73.2407 45.9336 73.6414 46.3278C73.8351 46.5157 74.0644 46.663 74.3159 46.761C74.5673 46.859 74.8358 46.9058 75.1056 46.8986C75.4094 46.9087 75.7118 46.8541 75.9929 46.7385C76.2741 46.6229 76.5274 46.4489 76.7361 46.2279C77.1777 45.7297 77.4057 45.0779 77.371 44.4131C77.3889 43.7877 77.161 43.1803 76.7361 42.7211C76.5263 42.4958 76.2706 42.3182 75.9862 42.2003C75.7018 42.0823 75.3953 42.0269 75.0877 42.0376C74.7171 42.0351 74.3524 42.1304 74.0305 42.3141C73.7207 42.4811 73.4569 42.722 73.2626 43.0154L71.0817 42.4062ZM90.9861 48.8927L86.806 38.6844H84.5995L80.44 48.8927H83.1712L85.713 42.0018L88.2549 48.8927H90.9861ZM93.6021 42.7364V42.6955C93.7957 42.0982 94.1761 41.5791 94.6872 41.2145C95.1983 40.8499 95.8131 40.6593 96.4408 40.6707C97.0523 40.6536 97.6514 40.8446 98.1401 41.2125C98.6289 41.5803 98.9783 42.1032 99.1311 42.6955V42.7364H94.7795V44.8226H101.637C101.678 44.4777 101.694 44.1305 101.686 43.7833C101.686 40.7424 99.5483 38.349 96.4357 38.349C92.7497 38.349 91.0014 41.518 91.0014 43.8576C91.0014 46.1972 92.7317 49.2177 96.3999 49.2177C96.876 49.2177 99.9835 49.1818 101.345 45.9617H98.5782C98.2937 46.2754 97.9432 46.5222 97.552 46.6842C97.1607 46.8462 96.7384 46.9194 96.3154 46.8986C95.7459 46.9206 95.1846 46.758 94.7151 46.4351C94.2455 46.1123 93.8928 45.6463 93.7096 45.1067C93.5507 44.6652 93.4727 44.1987 93.4792 43.7296C93.4672 43.3975 93.5087 43.0656 93.6021 42.7467V42.7364ZM104.829 40.8576H102.377V38.6844H109.729V40.8576H107.279V48.8927H104.829V40.8576Z" fill="#F7B400"/>
</svg>