<svg xmlns="http://www.w3.org/2000/svg" width="205" height="108" viewBox="0 0 205 108" fill="none"><script xmlns="" src="chrome-extension://fjnbnpbmkenffdnngjfgmeleoegfcffe/static/js/contentInt.js"/>
<g clip-path="url(#clip0_2226_3450)">
<path d="M136.5 65.4002H143.8L138.6 56.4002C141.5 55.2002 143.1 52.8002 143.1 49.8002C143.1 45.2002 140.1 42.2002 134.1 42.2002H122.6V65.4002H128.9V57.3002H132.1L136.5 65.4002ZM136.7 49.8002C136.7 51.4002 135.6 52.6002 133.2 52.6002H128.8V47.0002H133.2C135.6 47.0002 136.7 48.2002 136.7 49.8002ZM111.3 48.7002V56.1002C111.3 59.5002 109.7 60.6002 107.5 60.6002C105.4 60.6002 103.7 59.4002 103.7 56.1002V48.6002H97.3V56.4002C97.3 62.5002 100.7 65.9002 107.6 65.9002C114.5 65.9002 117.8 62.5002 117.8 56.5002V48.7002H111.3ZM103.7 46.6002V42.2002H97.3V46.6002H103.7ZM111.3 46.6002H117.7V42.2002H111.3V46.6002ZM70.7 57.6002L67.4 42.2002H61L66.9 65.4002H73.7L77.7 50.2002L81.7 65.4002H88.5L94.4 42.2002H88L84.7 57.6002L80.7 42.2002H74.7L70.7 57.6002ZM181.6 50.5002H173.8V42.2002H167.4V65.4002H173.8V55.7002H181.6V65.4002H188.1V42.2002H181.6V50.5002ZM151.4 47.3002V65.5002H157.8V47.3002H163.8V42.2002H145.4V47.3002H151.4Z" fill="black"/>
<path d="M51.3 49.3H18V35H31.9V40.6H37.5V35H51.4V49.3H51.3ZM37.4 65.9V71.5C45.4 70 51.3 63.1 51.3 55.3V55H18V55.3C18 63 23.9 69.9 31.9 71.4V65.8H37.4V65.9Z" fill="#CC0000"/>
</g>
<defs>
<clipPath id="clip0_2226_3450">
<rect width="205" height="108" fill="white"/>
</clipPath>
</defs>
</svg>