<svg xmlns="http://www.w3.org/2000/svg" width="205" height="108" viewBox="0 0 205 108" fill="none"><script xmlns="" src="chrome-extension://fjnbnpbmkenffdnngjfgmeleoegfcffe/static/js/contentInt.js"/>
<g clip-path="url(#clip0_2511_7534)">
<path d="M50.7225 38.7916H48.078C43.2318 38.7916 40.6857 41.236 40.6857 44.8553C40.6857 48.963 42.4487 50.8695 46.0711 53.316L49.0579 55.3214L40.4418 68.1824H34.0273L41.764 56.6899C37.3094 53.5118 34.8125 50.4305 34.8125 45.1974C34.8125 38.6453 39.3655 34.1934 48.0329 34.1934H56.6491V68.1804H50.7246V38.7916H50.7225Z" fill="#FC3F1D"/>
<path d="M104.68 43.583H87.6896V45.6853C87.6896 51.6995 87.298 59.4759 85.2419 63.5836H83.4297V73.8045H88.815V68.1798H101.888V73.8045H107.273V63.5836H104.678V43.583H104.68ZM98.8539 63.5836H90.6293C92.2447 59.8675 92.6854 53.167 92.6854 48.9129V48.1792H98.8539V63.5836V63.5836Z" fill="black"/>
<path d="M75.1568 53.3154H67.373V43.583H61.5469V68.1819H67.373V57.9116H75.1568V68.1819H80.9829V43.583H75.1568V53.3154Z" fill="black"/>
<path d="M165.344 47.6908C167.597 47.6908 169.798 48.474 170.975 49.2077V44.2694C169.751 43.5852 167.597 43.0967 164.708 43.0967C157.267 43.0967 153.398 48.4266 153.398 55.9083C153.398 64.1237 157.168 68.6725 164.952 68.6725C167.646 68.6725 169.554 68.184 170.975 67.1555V62.411C169.507 63.4374 167.744 64.0742 165.297 64.0742C161.135 64.0742 159.421 60.8466 159.421 55.7599C159.421 50.6732 161.527 47.6908 165.346 47.6908H165.344Z" fill="black"/>
<path d="M152.616 43.583H146.74L138.514 54.9292V43.583H132.688V68.1819H138.514V56.1019L147.132 68.1819H153.741L144.389 54.9292L152.616 43.583Z" fill="black"/>
<path d="M119.173 43.0947C112.074 43.0947 108.695 48.5236 108.695 55.9558C108.695 64.5133 112.906 68.6705 120.348 68.6705C124.068 68.6705 126.811 67.6915 128.525 66.5188V61.7763C126.713 62.9985 123.679 64.0743 120.837 64.0743C116.578 64.0743 114.962 62.0689 114.718 57.9612H128.771V54.8799C128.771 46.3224 125.001 43.0947 119.175 43.0947H119.173ZM122.844 53.6577H114.716C114.864 49.7458 116.282 47.6909 119.074 47.6909C121.867 47.6909 122.844 50.0879 122.844 53.1672V53.6556V53.6577Z" fill="black"/>
</g>
<defs>
<clipPath id="clip0_2511_7534">
<rect width="205" height="108" fill="white"/>
</clipPath>
</defs>
</svg>